# Blender 4.2.3 LTS
# www.blender.org
mtllib saw_blade_assembly.mtl
o Chassis
v 0.815000 0.124500 -0.000000
v 0.690000 0.124500 -0.000000
v 0.690000 0.625000 0.437500
v 0.690000 0.124500 1.000000
v 0.690000 0.625000 0.562500
v 0.815000 0.124500 1.000000
v 0.815000 0.625000 0.562500
v 0.815000 0.625000 0.437500
v 0.690000 -0.000500 0.000000
v 0.690000 -0.000500 1.000000
v 0.815000 -0.000500 1.000000
v 0.815000 -0.000500 0.000000
v 0.315000 0.625000 0.437500
v 0.315000 0.124500 -0.000000
v 0.190000 0.124500 -0.000000
v 0.315000 0.625000 0.562500
v 0.315000 0.124500 1.000000
v 0.190000 0.625000 0.562500
v 0.190000 0.124500 1.000000
v 0.190000 0.625000 0.437500
v 0.315000 -0.000500 1.000000
v 0.315000 -0.000500 0.000000
v 0.190000 -0.000500 0.000000
v 0.190000 -0.000500 1.000000
v 0.000000 0.582500 0.500000
v 0.000000 0.551250 0.554127
v 1.000000 0.551250 0.554127
v 0.000000 0.488750 0.554127
v 1.000000 0.488750 0.554127
v 0.000000 0.457500 0.500000
v 1.000000 0.457500 0.500000
v 0.000000 0.488750 0.445873
v 0.000000 0.551250 0.445873
v 1.000000 0.582500 0.500000
v 1.000000 0.551250 0.445873
v 1.000000 0.488750 0.445873
vn -0.0000 0.6581 -0.7529
vn -1.0000 -0.0000 -0.0000
vn -0.0000 0.6581 0.7529
vn 1.0000 -0.0000 -0.0000
vn -0.0000 1.0000 -0.0000
vn -0.0000 -0.0000 1.0000
vn -0.0000 -0.0000 -1.0000
vn -0.0000 0.8660 0.5000
vn -0.0000 -0.8660 0.5000
vn -0.0000 -0.8660 -0.5000
vn -0.0000 0.8660 -0.5000
vt 0.113457 0.884640
vt 0.082157 0.884640
vt 0.082157 0.681440
vt 0.031398 0.793434
vt 0.154351 0.793434
vt 0.099715 0.854888
vt 0.050957 0.884640
vt 0.050957 0.681440
vt 0.154351 0.766116
vt 0.031398 0.766116
vt 0.086035 0.704617
vt 0.031398 0.779753
vt 0.154351 0.779753
vt 0.050957 0.650240
vt 0.082157 0.650240
vt 0.082157 0.915840
vt 0.050957 0.915840
vt 0.113457 0.915840
vt 0.135811 0.671555
vt 0.120111 0.671555
vt 0.120111 0.874655
vt 0.104511 0.671555
vt 0.104511 0.874655
vt 0.088911 0.671555
vt 0.088911 0.874655
vt 0.073311 0.671555
vt 0.135811 0.874655
vt 0.151411 0.859055
vt 0.135811 0.859055
vt 0.057711 0.671555
vt 0.057711 0.874655
vt 0.073311 0.874655
vt 0.151411 0.843455
vt 0.113457 0.681440
vt 0.086035 0.854888
vt 0.099715 0.704617
vt 0.135811 0.843455
s 1
usemtl Material.002
f 1/1/1 2/2/1 3/3/1
f 2/4/2 4/5/2 5/6/2
f 4/2/3 6/7/3 7/8/3
f 6/9/4 1/10/4 8/11/4
f 9/12/2 10/13/2 4/5/2
f 8/14/5 3/15/5 5/3/5
f 11/13/4 12/12/4 1/10/4
f 10/16/6 11/17/6 6/7/6
f 12/18/7 9/16/7 2/2/7
f 13/3/1 14/2/1 15/1/1
f 16/6/4 17/5/4 14/4/4
f 18/8/3 19/7/3 17/2/3
f 20/11/2 15/10/2 19/9/2
f 17/5/4 21/13/4 22/12/4
f 16/3/5 13/15/5 20/14/5
f 15/10/2 23/12/2 24/13/2
f 19/7/6 24/17/6 21/16/6
f 14/2/7 22/16/7 23/18/7
f 25/19/8 26/20/8 27/21/8
f 26/20/6 28/22/6 29/23/6
f 28/22/9 30/24/9 31/25/9
f 31/25/10 30/24/10 32/26/10
f 26/27/2 33/28/2 30/29/2
f 33/26/11 25/30/11 34/31/11
f 32/26/7 33/26/7 35/32/7
f 34/28/4 27/33/4 36/29/4
f 8/34/1 1/1/1 3/3/1
f 3/35/2 2/4/2 5/6/2
f 5/3/3 4/2/3 7/8/3
f 7/36/4 6/9/4 8/11/4
f 2/4/2 9/12/2 4/5/2
f 7/8/5 8/14/5 5/3/5
f 6/9/4 11/13/4 1/10/4
f 4/2/6 10/16/6 6/7/6
f 1/1/7 12/18/7 2/2/7
f 20/34/1 13/3/1 15/1/1
f 13/35/4 16/6/4 14/4/4
f 16/3/3 18/8/3 17/2/3
f 18/36/2 20/11/2 19/9/2
f 14/4/4 17/5/4 22/12/4
f 18/8/5 16/3/5 20/14/5
f 19/9/2 15/10/2 24/13/2
f 17/2/6 19/7/6 21/16/6
f 15/1/7 14/2/7 23/18/7
f 34/27/8 25/19/8 27/21/8
f 27/21/6 26/20/6 29/23/6
f 29/23/9 28/22/9 31/25/9
f 36/32/10 31/25/10 32/26/10
f 30/29/2 28/29/2 26/27/2
f 33/28/2 32/29/2 30/29/2
f 26/27/2 25/28/2 33/28/2
f 35/32/11 33/26/11 34/31/11
f 36/32/7 32/26/7 35/32/7
f 36/29/4 35/29/4 34/28/4
f 29/37/4 31/37/4 36/29/4
f 36/29/4 27/33/4 29/37/4
o Saw
v 0.511500 0.683394 0.971596
v 0.511500 0.676035 0.924984
v 0.488500 0.676035 0.924984
v 0.511500 0.865516 0.150095
v 0.511500 0.825269 0.174731
v 0.488500 0.825269 0.174731
v 0.511500 0.075015 0.323966
v 0.511500 -0.005880 0.488962
v 0.488500 -0.005880 0.488962
v 0.511500 0.488962 1.005880
v 0.511500 0.500000 0.960000
v 0.488500 0.500000 0.960000
v 0.511500 0.971596 0.316606
v 0.511500 0.924984 0.323966
v 0.488500 0.924984 0.323966
v 0.511500 0.174731 0.174731
v 0.511500 0.036852 0.296210
v 0.488500 0.036852 0.296210
v 0.511500 0.296210 0.963148
v 0.511500 0.323966 0.924985
v 0.488500 0.323966 0.924985
v 0.511500 0.323966 0.075015
v 0.511500 0.150094 0.134484
v 0.488500 0.150094 0.134484
v 0.511500 0.924985 0.676034
v 0.511500 1.005879 0.511038
v 0.488500 1.005879 0.511038
v 0.511500 0.134484 0.849906
v 0.511500 0.174731 0.825269
v 0.488500 0.174731 0.825269
v 0.488500 0.500000 0.040000
v 0.511500 0.500000 0.040000
v 0.511500 0.316606 0.028404
v 0.511500 0.825269 0.825269
v 0.511500 0.963148 0.703789
v 0.488500 0.963148 0.703789
v 0.511500 0.028404 0.683394
v 0.511500 0.075015 0.676035
v 0.488500 0.075015 0.676035
v 0.488500 0.676034 0.075016
v 0.511500 0.676034 0.075016
v 0.511500 0.511038 -0.005879
v 0.511500 0.849906 0.865516
v 0.488500 0.849906 0.865516
v 0.511500 0.703790 0.036852
v 0.488500 0.703790 0.036852
v 0.511500 0.040000 0.500000
v 0.488500 0.040000 0.500000
v 0.488500 0.683394 0.971596
v 0.488500 0.075015 0.323966
v 0.488500 0.488962 1.005880
v 0.511500 0.960000 0.500000
v 0.488500 0.971596 0.316606
v 0.488500 0.174731 0.174731
v 0.488500 0.960000 0.500000
v 0.488500 0.296210 0.963148
v 0.488500 0.323966 0.075015
v 0.488500 0.134484 0.849906
v 0.488500 0.511038 -0.005879
v 0.488500 0.825269 0.825269
v 0.488500 0.924985 0.676034
v 0.488500 0.865516 0.150095
v 0.488500 0.316606 0.028404
v 0.488500 0.028404 0.683394
vn -0.0000 0.9878 -0.1559
vn -0.0000 -0.5221 -0.8529
vn -0.0000 -0.8979 -0.4402
vn -0.0000 0.9723 0.2339
vn -0.0000 -0.1560 -0.9878
vn -0.0000 -0.6611 -0.7503
vn -0.0000 0.8087 0.5882
vn -0.0000 -0.3236 -0.9462
vn -0.0000 0.8979 0.4402
vn -0.0000 0.5221 0.8529
vn -0.0000 0.0631 -0.9980
vn -0.0000 0.6611 0.7503
vn -0.0000 0.1560 0.9878
vn -0.0000 0.4402 -0.8979
vn -0.0000 0.3236 0.9462
vn -0.0000 0.7503 -0.6611
vn -0.0000 -0.2339 0.9723
vn -0.0000 -0.0631 0.9980
vn -0.0000 0.9462 -0.3236
vn -0.0000 -0.5882 0.8087
vn -0.0000 -0.4402 0.8979
vn -0.0000 0.9980 0.0631
vn -0.0000 -0.8529 0.5221
vn -0.0000 0.2339 -0.9723
vn -0.0000 -0.7503 0.6611
vn -0.0000 -0.9878 0.1560
vn -0.0000 0.5882 -0.8087
vn -0.0000 -0.9462 0.3236
vn -0.0000 -0.9723 -0.2339
vn -0.0000 0.8529 -0.5221
vn -0.0000 -0.9980 -0.0631
vn -0.0000 -0.8087 -0.5882
vn 1.0000 -0.0000 -0.0000
vn -1.0000 -0.0000 -0.0000
vt 0.052552 0.277571
vt 0.052552 0.261971
vt 0.036952 0.261971
vt 0.052552 0.527571
vt 0.036952 0.527571
vt 0.052552 0.402571
vt 0.052552 0.386971
vt 0.036952 0.386971
vt 0.052552 0.293271
vt 0.036952 0.293271
vt 0.052552 0.558871
vt 0.052552 0.543271
vt 0.036952 0.543271
vt 0.052552 0.433871
vt 0.052552 0.418271
vt 0.036952 0.418271
vt 0.052552 0.324471
vt 0.052552 0.308871
vt 0.036952 0.308871
vt 0.052552 0.449471
vt 0.036952 0.433871
vt 0.052552 0.590071
vt 0.052552 0.574471
vt 0.036952 0.574471
vt 0.052552 0.340071
vt 0.036952 0.340071
vt 0.036952 0.480671
vt 0.052552 0.480671
vt 0.052552 0.465071
vt 0.052552 0.621371
vt 0.052552 0.605671
vt 0.036952 0.605671
vt 0.052552 0.371371
vt 0.052552 0.355671
vt 0.036952 0.355671
vt 0.036952 0.496371
vt 0.052552 0.496371
vt 0.052552 0.246371
vt 0.036952 0.246371
vt 0.052552 0.511971
vt 0.036952 0.511971
vt 0.036952 0.277571
vt 0.036952 0.402571
vt 0.036952 0.558871
vt 0.036952 0.324471
vt 0.036952 0.449471
vt 0.094373 0.546893
vt 0.130931 0.546893
vt 0.659961 0.207651
vt 0.270278 0.301158
vt 0.341047 0.814703
vt 0.565725 0.860743
vt 0.345910 0.814458
vt 0.455818 0.165284
vt 0.036952 0.590071
vt 0.036952 0.465071
vt 0.036952 0.621371
vt 0.036952 0.371371
vt 0.305663 0.861308
vt 0.447427 0.861308
vt 0.447427 0.907912
vt 0.553807 0.861308
vt 0.553807 0.907912
vt 0.659961 0.814703
vt 0.659961 0.861308
vt 0.730956 0.721196
vt 0.766340 0.721196
vt 0.766340 0.581084
vt 0.801725 0.581084
vt 0.766340 0.441271
vt 0.801725 0.441271
vt 0.730956 0.301158
vt 0.766340 0.301158
vt 0.659961 0.161046
vt 0.553807 0.161046
vt 0.553807 0.114442
vt 0.447427 0.161046
vt 0.447427 0.114442
vt 0.341047 0.207651
vt 0.305663 0.161046
vt 0.234667 0.301158
vt 0.234667 0.441271
vt 0.199283 0.441271
vt 0.234667 0.581084
vt 0.199283 0.581084
vt 0.270278 0.721196
vt 0.234667 0.721196
vt 0.565725 0.118999
vt 0.565725 0.165284
vt 0.675398 0.165284
vt 0.675398 0.211866
vt 0.785306 0.304435
vt 0.748748 0.304435
vt 0.821864 0.443586
vt 0.785306 0.443586
vt 0.821864 0.582738
vt 0.785306 0.582738
vt 0.785306 0.721889
vt 0.748748 0.721889
vt 0.675398 0.860743
vt 0.675398 0.814458
vt 0.565725 0.907028
vt 0.455818 0.907028
vt 0.455818 0.860743
vt 0.309352 0.860743
vt 0.236002 0.721889
vt 0.272794 0.721889
vt 0.199444 0.582738
vt 0.236002 0.582738
vt 0.199444 0.443586
vt 0.236002 0.443586
vt 0.236002 0.304435
vt 0.272794 0.304435
vt 0.309352 0.165284
vt 0.345910 0.211866
vt 0.455818 0.118999
s 1
usemtl Material.003
f 37/38/12 38/39/12 39/40/12
f 40/41/13 41/41/13 42/42/13
f 43/43/14 44/44/14 45/45/14
f 46/46/15 47/46/15 48/47/15
f 49/48/16 50/49/16 51/50/16
f 52/51/17 53/52/17 54/53/17
f 55/54/18 56/55/18 57/56/18
f 58/57/19 59/51/19 60/58/19
f 61/59/20 62/60/20 63/61/20
f 64/62/21 65/62/21 66/63/21
f 67/64/22 68/65/22 69/66/22
f 70/67/23 71/68/23 72/69/23
f 73/70/24 74/71/24 75/72/24
f 76/73/25 77/74/25 78/65/25
f 38/39/26 79/75/26 80/76/26
f 41/41/27 81/77/27 82/78/27
f 44/44/28 83/44/28 84/45/28
f 47/46/29 37/38/29 85/79/29
f 51/50/30 50/49/30 40/41/30
f 53/52/31 43/43/31 86/80/31
f 56/55/32 46/46/32 87/47/32
f 88/60/33 49/48/33 89/81/33
f 59/51/34 52/51/34 90/58/34
f 62/60/35 88/60/35 91/61/35
f 65/62/36 55/54/36 92/82/36
f 69/66/37 58/57/37 93/83/37
f 72/69/38 71/68/38 61/59/38
f 74/71/39 64/62/39 94/63/39
f 95/84/40 78/85/40 68/85/40
f 79/75/41 70/75/41 96/76/41
f 84/45/42 83/44/42 73/70/42
f 81/77/43 77/74/43 76/73/43
f 65/86/44 52/87/44 41/88/44
f 86/89/45 75/90/45 97/91/45
f 85/79/12 37/38/12 39/40/12
f 98/42/13 40/41/13 42/42/13
f 86/80/14 43/43/14 45/45/14
f 87/47/15 46/46/15 48/47/15
f 89/81/16 49/48/16 51/50/16
f 90/58/17 52/51/17 54/53/17
f 92/82/18 55/54/18 57/56/18
f 93/83/19 58/57/19 60/58/19
f 97/92/20 61/59/20 63/61/20
f 94/63/21 64/62/21 66/63/21
f 99/93/22 67/64/22 69/66/22
f 96/94/23 70/67/23 72/69/23
f 100/95/24 73/70/24 75/72/24
f 95/64/25 76/73/25 78/65/25
f 39/40/26 38/39/26 80/76/26
f 42/42/27 41/41/27 82/78/27
f 45/45/28 44/44/28 84/45/28
f 48/47/29 47/46/29 85/79/29
f 98/42/30 51/50/30 40/41/30
f 54/53/31 53/52/31 86/80/31
f 57/56/32 56/55/32 87/47/32
f 91/61/33 88/60/33 89/81/33
f 60/58/34 59/51/34 90/58/34
f 63/61/35 62/60/35 91/61/35
f 66/63/36 65/62/36 92/82/36
f 99/93/37 69/66/37 93/83/37
f 97/92/38 72/69/38 61/59/38
f 75/72/39 74/71/39 94/63/39
f 67/64/40 95/64/40 68/65/40
f 80/76/41 79/75/41 96/76/41
f 100/95/42 84/45/42 73/70/42
f 82/78/43 81/77/43 76/73/43
f 41/88/44 40/96/44 50/97/44
f 50/97/44 49/98/44 88/99/44
f 88/99/44 62/100/44 61/101/44
f 61/101/44 71/102/44 70/103/44
f 70/103/44 79/104/44 38/105/44
f 38/105/44 37/106/44 47/107/44
f 47/107/44 46/108/44 56/109/44
f 56/109/44 55/110/44 65/86/44
f 65/86/44 64/111/44 74/112/44
f 74/112/44 73/113/44 83/114/44
f 83/114/44 44/115/44 43/116/44
f 43/116/44 53/117/44 52/87/44
f 52/87/44 59/118/44 58/119/44
f 58/119/44 69/120/44 68/121/44
f 68/121/44 78/122/44 77/123/44
f 77/123/44 81/124/44 41/88/44
f 41/88/44 50/97/44 88/99/44
f 88/99/44 61/101/44 70/103/44
f 70/103/44 38/105/44 47/107/44
f 47/107/44 56/109/44 65/86/44
f 65/86/44 74/112/44 83/114/44
f 83/114/44 43/116/44 52/87/44
f 41/88/44 58/119/44 68/121/44
f 68/121/44 77/123/44 41/88/44
f 41/88/44 88/99/44 70/103/44
f 41/88/44 47/107/44 65/86/44
f 65/86/44 83/114/44 52/87/44
f 52/87/44 58/119/44 41/88/44
f 41/88/44 70/103/44 47/107/44
f 97/91/45 63/125/45 91/126/45
f 91/126/45 89/127/45 51/128/45
f 51/128/45 98/129/45 42/130/45
f 42/130/45 82/131/45 76/132/45
f 76/132/45 95/133/45 67/134/45
f 67/134/45 99/135/45 93/136/45
f 93/136/45 60/137/45 90/138/45
f 90/138/45 54/139/45 86/89/45
f 86/89/45 45/140/45 84/141/45
f 84/141/45 100/142/45 75/90/45
f 75/90/45 94/143/45 66/144/45
f 66/144/45 92/145/45 57/146/45
f 57/146/45 87/147/45 48/148/45
f 48/148/45 85/149/45 39/150/45
f 39/150/45 80/151/45 96/152/45
f 96/152/45 72/153/45 97/91/45
f 76/132/45 91/126/45 51/128/45
f 51/128/45 42/130/45 76/132/45
f 76/132/45 67/134/45 93/136/45
f 93/136/45 90/138/45 86/89/45
f 86/89/45 84/141/45 75/90/45
f 75/90/45 66/144/45 57/146/45
f 97/91/45 48/148/45 39/150/45
f 39/150/45 96/152/45 97/91/45
f 97/91/45 91/126/45 76/132/45
f 97/91/45 93/136/45 86/89/45
f 97/91/45 75/90/45 57/146/45
f 57/146/45 48/148/45 97/91/45
f 97/91/45 76/132/45 93/136/45
