# Blender 4.2.3 LTS
# www.blender.org
mtllib crystallizer_multiblock.mtl
g Liquid_Mesh
v 1.351281 1.778812 0.719938
v 1.245839 1.778812 0.974497
v 1.245839 1.078812 0.974497
v 0.991281 1.778812 1.079938
v 0.991281 1.078812 1.079938
v 0.736723 1.778812 0.974497
v 0.736723 1.078812 0.974497
v 0.631280 1.778812 0.719938
v 0.631280 1.078812 0.719938
v 0.736723 1.778812 0.465380
v 0.736723 1.078812 0.465380
v 0.991281 1.778812 0.359938
v 0.991281 1.078812 0.359938
v 1.245839 1.778812 0.465380
v 1.351281 1.078812 0.719938
v 1.245839 1.078812 0.465380
v 1.351281 1.778812 1.519138
v 1.245839 1.778812 1.773697
v 1.245839 1.078812 1.773697
v 0.991281 1.778812 1.879138
v 0.991281 1.078812 1.879138
v 0.736723 1.778812 1.773697
v 0.736723 1.078812 1.773697
v 0.631280 1.778812 1.519138
v 0.631280 1.078812 1.519138
v 0.736723 1.778812 1.264580
v 0.736723 1.078812 1.264580
v 0.991281 1.778812 1.159138
v 0.991281 1.078812 1.159138
v 1.245839 1.778812 1.264580
v 1.351281 1.078812 1.519138
v 1.245839 1.078812 1.264580
v 1.351281 1.778812 2.318337
v 1.245839 1.778812 2.572896
v 1.245839 1.078812 2.572897
v 0.991281 1.778812 2.678338
v 0.991281 1.078812 2.678338
v 0.736723 1.778812 2.572896
v 0.736723 1.078812 2.572897
v 0.631280 1.778812 2.318337
v 0.631280 1.078812 2.318338
v 0.736723 1.778812 2.063780
v 0.736723 1.078812 2.063780
v 0.991281 1.778812 1.958338
v 0.991281 1.078812 1.958338
v 1.245839 1.778812 2.063780
v 1.351281 1.078812 2.318338
v 1.245839 1.078812 2.063780
vn 0.9239 -0.0000 0.3827
vn 0.3827 -0.0000 0.9239
vn -0.3827 -0.0000 0.9239
vn -0.9239 -0.0000 0.3827
vn -0.9239 -0.0000 -0.3827
vn -0.3827 -0.0000 -0.9239
vn -0.0000 1.0000 -0.0000
vn 0.9239 -0.0000 -0.3827
vn 0.3827 -0.0000 -0.9239
vt 0.544922 0.015625
vt 0.544922 0.140625
vt 0.435547 0.140625
vt 0.544922 0.265625
vt 0.435547 0.265625
vt 0.544922 0.390625
vt 0.435547 0.390625
vt 0.685547 0.015625
vt 0.685547 0.140625
vt 0.576172 0.140625
vt 0.685547 0.265625
vt 0.576172 0.265625
vt 0.685547 0.390625
vt 0.576172 0.390625
vt 0.197266 0.605469
vt 0.240234 0.816406
vt 0.134766 0.902344
vt 0.408203 0.164062
vt 0.408203 0.289062
vt 0.298828 0.289062
vt 0.408203 0.039062
vt 0.298828 0.164062
vt 0.818360 0.023438
vt 0.818360 0.148438
vt 0.708985 0.148438
vt 0.818360 0.273438
vt 0.708985 0.273438
vt 0.818360 0.398438
vt 0.708985 0.398438
vt 0.197266 0.902344
vt 0.984375 0.023438
vt 0.984375 0.148438
vt 0.875000 0.148438
vt 0.984375 0.273438
vt 0.875000 0.273438
vt 0.984375 0.398438
vt 0.875000 0.398438
vt 0.435547 0.015625
vt 0.576172 0.015625
vt 0.091797 0.691406
vt 0.134766 0.605469
vt 0.091797 0.816406
vt 0.240234 0.691406
vt 0.298828 0.039062
vt 0.708985 0.023438
vt 0.875000 0.023438
s 1
usemtl None
f 1/1/1 2/2/1 3/3/1
f 2/2/2 4/4/2 5/5/2
f 4/4/3 6/6/3 7/7/3
f 6/8/4 8/9/4 9/10/4
f 8/9/5 10/11/5 11/12/5
f 10/11/6 12/13/6 13/14/6
f 2/15/7 14/16/7 10/17/7
f 14/18/8 1/19/8 15/20/8
f 12/21/9 14/18/9 16/22/9
f 17/1/1 18/2/1 19/3/1
f 18/2/2 20/4/2 21/5/2
f 20/4/3 22/6/3 23/7/3
f 22/23/4 24/24/4 25/25/4
f 24/24/5 26/26/5 27/27/5
f 26/26/6 28/28/6 29/29/6
f 18/15/7 30/16/7 28/30/7
f 30/18/8 17/19/8 31/20/8
f 28/21/9 30/18/9 32/22/9
f 33/1/1 34/2/1 35/3/1
f 34/2/2 36/4/2 37/5/2
f 36/4/3 38/6/3 39/7/3
f 38/31/4 40/32/4 41/33/4
f 40/32/5 42/34/5 43/35/5
f 42/34/6 44/36/6 45/37/6
f 34/15/7 46/16/7 44/30/7
f 46/18/8 33/19/8 47/20/8
f 44/21/9 46/18/9 48/22/9
f 15/38/1 1/1/1 3/3/1
f 3/3/2 2/2/2 5/5/2
f 5/5/3 4/4/3 7/7/3
f 7/39/4 6/8/4 9/10/4
f 9/10/5 8/9/5 11/12/5
f 11/12/6 10/11/6 13/14/6
f 6/40/7 4/41/7 2/15/7
f 10/17/7 8/42/7 6/40/7
f 14/16/7 12/30/7 10/17/7
f 2/15/7 1/43/7 14/16/7
f 10/17/7 6/40/7 2/15/7
f 16/22/8 14/18/8 15/20/8
f 13/44/9 12/21/9 16/22/9
f 31/38/1 17/1/1 19/3/1
f 19/3/2 18/2/2 21/5/2
f 21/5/3 20/4/3 23/7/3
f 23/45/4 22/23/4 25/25/4
f 25/25/5 24/24/5 27/27/5
f 27/27/6 26/26/6 29/29/6
f 22/40/7 20/41/7 18/15/7
f 18/15/7 24/42/7 22/40/7
f 18/15/7 28/30/7 26/17/7
f 18/15/7 17/43/7 30/16/7
f 26/17/7 24/42/7 18/15/7
f 32/22/8 30/18/8 31/20/8
f 29/44/9 28/21/9 32/22/9
f 47/38/1 33/1/1 35/3/1
f 35/3/2 34/2/2 37/5/2
f 37/5/3 36/4/3 39/7/3
f 39/46/4 38/31/4 41/33/4
f 41/33/5 40/32/5 43/35/5
f 43/35/6 42/34/6 45/37/6
f 38/40/7 36/41/7 34/15/7
f 34/15/7 40/42/7 38/40/7
f 34/15/7 44/30/7 42/17/7
f 34/15/7 33/43/7 46/16/7
f 42/17/7 40/42/7 34/15/7
f 48/22/8 46/18/8 47/20/8
f 45/44/9 44/21/9 48/22/9
g Rail_Mesh
v 1.286716 1.876512 1.828514
v 1.286716 0.990305 1.828514
v 1.286716 1.876512 1.804832
v 1.286716 0.990305 1.804832
v 1.259975 1.876512 1.828514
v 1.259975 0.990305 1.828514
v 1.259975 1.876512 1.804832
v 1.259975 0.990305 1.804832
v 1.295871 1.881924 1.286522
v 1.295871 0.995717 1.286522
v 1.295871 1.881924 1.262840
v 1.295871 0.995717 1.262840
v 1.269129 1.881924 1.286522
v 1.269129 0.995717 1.286522
v 1.269129 1.881924 1.262840
v 1.269129 0.995717 1.262840
v 0.660269 1.000024 1.212375
v 0.660269 1.886231 1.212375
v 0.660269 1.000024 1.236057
v 0.660269 1.886231 1.236057
v 0.687010 1.000024 1.212375
v 0.687010 1.886231 1.212375
v 0.687010 1.000024 1.236057
v 0.687010 1.886231 1.236057
v 0.672848 1.000018 2.654453
v 0.672848 1.886225 2.630771
v 0.672848 1.000018 2.630772
v 0.699589 1.886225 2.654453
v 0.699589 1.000018 2.654453
v 0.699589 1.000018 2.630772
v 0.699589 1.886225 2.630771
v 0.672848 1.886225 2.654453
v 0.694227 1.886225 0.363522
v 0.694227 1.000018 0.363522
v 0.694227 1.886225 0.339840
v 0.694227 1.000018 0.339840
v 0.667485 1.886225 0.363522
v 0.667485 1.000018 0.363522
v 0.667485 1.886225 0.339840
v 0.667485 1.000018 0.339840
v 1.275773 0.989671 0.395266
v 1.275773 1.875878 0.395266
v 1.275773 0.989671 0.418948
v 1.275773 1.875878 0.418948
v 1.302514 0.989671 0.395266
v 1.302514 1.875878 0.395266
v 1.302514 0.989671 0.418948
v 1.302514 1.875878 0.418948
v 1.265687 0.991862 0.985601
v 1.265687 1.878069 0.985601
v 1.265687 0.991862 1.009283
v 1.265687 1.878069 1.009283
v 1.292428 0.991862 0.985601
v 1.292428 1.878069 0.985601
v 1.292428 0.991862 1.009283
v 1.292428 1.878069 1.009283
v 1.296468 1.877592 2.613722
v 1.296468 0.991386 2.613722
v 1.296468 1.877592 2.590040
v 1.296468 0.991386 2.590040
v 1.269727 1.877592 2.613722
v 1.269727 0.991386 2.613722
v 1.269727 1.877592 2.590040
v 1.269727 0.991386 2.590040
v 1.300313 1.873449 1.974221
v 1.300313 0.987242 1.997903
v 1.300313 1.873449 1.997902
v 1.273571 0.987242 1.974221
v 1.273571 1.873449 1.974221
v 1.273571 0.987242 1.997903
v 1.273571 1.873449 1.997902
v 1.300313 0.987242 1.974221
v 0.670020 1.000018 1.997582
v 0.670020 1.886225 1.997582
v 0.670020 1.000018 2.021264
v 0.670020 1.886225 2.021264
v 0.696761 1.000018 1.997582
v 0.696761 1.886225 1.997582
v 0.696761 1.000018 2.021264
v 0.696761 1.886225 2.021264
v 0.644913 0.999588 1.793360
v 0.644913 1.885795 1.793360
v 0.644913 0.999588 1.817042
v 0.644913 1.885795 1.817042
v 0.671654 0.999588 1.793360
v 0.671654 1.885795 1.793360
v 0.671654 0.999588 1.817042
v 0.671654 1.885795 1.817042
v 0.667485 0.998879 0.968876
v 0.667485 1.885086 0.968876
v 0.667485 0.998879 0.992558
v 0.667485 1.885086 0.992558
v 0.694227 0.998879 0.968876
v 0.694227 1.885086 0.968876
v 0.694227 0.998879 0.992558
v 0.694227 1.885086 0.992558
vn -0.0000 -0.0000 1.0000
vn -1.0000 -0.0000 -0.0000
vn 1.0000 -0.0000 -0.0000
vn -0.0000 -0.0000 -1.0000
vn -0.0000 -1.0000 -0.0000
vn -0.0000 1.0000 -0.0000
vt 0.011750 0.497568
vt 0.370593 0.497568
vt 0.370593 0.439451
vt 0.014553 0.493391
vt 0.365330 0.493391
vt 0.365330 0.445629
vt 0.014553 0.445629
vt 0.011750 0.439451
vt 0.014106 0.527020
vt 0.014106 0.580254
vt 0.368238 0.580254
vt 0.012064 0.926739
vt 0.012064 0.975830
vt 0.370280 0.926739
vt 0.657574 0.876314
vt 0.720926 0.939666
vt 0.720926 0.876314
vt 0.753814 0.871201
vt 0.753814 0.944779
vt 0.827392 0.871201
vt 0.827392 0.944779
vt 0.657574 0.939666
vt 0.370280 0.975830
vt 0.368238 0.527020
s 0
usemtl Body
f 58/47/10 57/48/10 61/49/10
f 62/50/11 61/51/11 63/52/11
f 65/53/11 67/50/11 66/52/11
f 67/54/10 71/47/10 68/49/10
f 71/55/12 69/56/12 70/57/12
f 69/58/13 65/59/13 70/60/13
f 67/61/14 69/62/14 71/63/14
f 72/64/15 70/65/15 68/66/15
f 70/65/15 66/67/15 68/66/15
f 69/62/14 67/61/14 65/68/14
f 65/59/13 66/69/13 70/60/13
f 67/50/11 68/51/11 66/52/11
f 71/47/10 72/48/10 68/49/10
f 70/57/12 72/70/12 71/55/12
f 75/59/13 74/69/13 79/60/13
f 73/50/11 80/51/11 74/52/11
f 77/55/12 78/56/12 79/57/12
f 78/58/13 75/59/13 79/60/13
f 73/61/14 78/62/14 77/63/14
f 77/47/10 76/48/10 80/49/10
f 79/57/12 76/70/12 77/55/12
f 76/64/15 79/65/15 80/66/15
f 79/65/15 74/67/15 80/66/15
f 113/57/12 115/70/12 114/55/12
f 78/62/14 73/61/14 75/68/14
f 83/57/12 81/70/12 82/55/12
f 82/47/10 81/48/10 85/49/10
f 86/50/11 85/51/11 87/52/11
f 88/59/13 87/69/13 83/60/13
f 84/62/14 86/61/14 88/68/14
f 83/65/15 87/67/15 85/66/15
f 81/64/15 83/65/15 85/66/15
f 86/61/14 84/62/14 82/63/14
f 84/58/13 88/59/13 83/60/13
f 82/55/12 84/56/12 83/57/12
f 86/54/10 82/47/10 85/49/10
f 88/53/11 86/50/11 87/52/11
f 89/53/11 91/50/11 90/52/11
f 91/54/10 95/47/10 92/49/10
f 95/55/12 93/56/12 94/57/12
f 93/58/13 89/59/13 94/60/13
f 91/61/14 93/62/14 95/63/14
f 96/64/15 94/65/15 92/66/15
f 94/65/15 90/67/15 92/66/15
f 93/62/14 91/61/14 89/68/14
f 89/59/13 90/69/13 94/60/13
f 91/50/11 92/51/11 90/52/11
f 95/47/10 96/48/10 92/49/10
f 94/57/12 96/70/12 95/55/12
f 97/53/11 99/50/11 98/52/11
f 99/54/10 103/47/10 100/49/10
f 103/55/12 101/56/12 102/57/12
f 101/58/13 97/59/13 102/60/13
f 99/61/14 101/62/14 103/63/14
f 104/64/15 102/65/15 100/66/15
f 102/65/15 98/67/15 100/66/15
f 101/62/14 99/61/14 97/68/14
f 97/59/13 98/69/13 102/60/13
f 99/50/11 100/51/11 98/52/11
f 103/47/10 104/48/10 100/49/10
f 102/57/12 104/70/12 103/55/12
f 64/59/13 63/69/13 59/60/13
f 60/62/14 62/61/14 64/68/14
f 59/65/15 63/67/15 61/66/15
f 57/64/15 59/65/15 61/66/15
f 62/61/14 60/62/14 58/63/14
f 60/58/13 64/59/13 59/60/13
f 58/55/12 60/56/12 59/57/12
f 62/54/10 58/47/10 61/49/10
f 56/53/11 54/50/11 55/52/11
f 54/54/10 50/47/10 53/49/10
f 50/55/12 52/56/12 51/57/12
f 52/58/13 56/59/13 51/60/13
f 54/61/14 52/62/14 50/63/14
f 49/64/15 51/65/15 53/66/15
f 51/65/15 55/67/15 53/66/15
f 52/62/14 54/61/14 56/68/14
f 56/59/13 55/69/13 51/60/13
f 54/50/11 53/51/11 55/52/11
f 50/47/10 49/48/10 53/49/10
f 51/57/12 49/70/12 50/55/12
f 114/47/10 115/48/10 119/49/10
f 118/50/11 119/51/11 117/52/11
f 121/53/11 123/50/11 122/52/11
f 123/54/10 127/47/10 124/49/10
f 127/55/12 125/56/12 126/57/12
f 125/58/13 121/59/13 126/60/13
f 123/61/14 125/62/14 127/63/14
f 128/64/15 126/65/15 124/66/15
f 126/65/15 122/67/15 124/66/15
f 125/62/14 123/61/14 121/68/14
f 121/59/13 122/69/13 126/60/13
f 123/50/11 124/51/11 122/52/11
f 127/47/10 128/48/10 124/49/10
f 126/57/12 128/70/12 127/55/12
f 116/59/13 117/69/13 113/60/13
f 120/62/14 118/61/14 116/68/14
f 113/65/15 117/67/15 119/66/15
f 115/64/15 113/65/15 119/66/15
f 118/61/14 120/62/14 114/63/14
f 120/58/13 116/59/13 113/60/13
f 114/55/12 120/56/12 113/57/12
f 118/54/10 114/47/10 119/49/10
f 116/53/11 118/50/11 117/52/11
f 112/53/11 110/50/11 111/52/11
f 110/54/10 106/47/10 109/49/10
f 106/55/12 108/56/12 107/57/12
f 108/58/13 112/59/13 107/60/13
f 110/61/14 108/62/14 106/63/14
f 105/64/15 107/65/15 109/66/15
f 107/65/15 111/67/15 109/66/15
f 108/62/14 110/61/14 112/68/14
f 112/59/13 111/69/13 107/60/13
f 110/50/11 109/51/11 111/52/11
f 106/47/10 105/48/10 109/49/10
f 107/57/12 105/70/12 106/55/12
f 64/53/11 62/50/11 63/52/11
f 129/53/11 131/50/11 130/52/11
f 131/54/10 135/47/10 132/49/10
f 135/55/12 133/56/12 134/57/12
f 133/58/13 129/59/13 134/60/13
f 131/61/14 133/62/14 135/63/14
f 136/64/15 134/65/15 132/66/15
f 134/65/15 130/67/15 132/66/15
f 133/62/14 131/61/14 129/68/14
f 129/59/13 130/69/13 134/60/13
f 131/50/11 132/51/11 130/52/11
f 135/47/10 136/48/10 132/49/10
f 134/57/12 136/70/12 135/55/12
f 137/53/11 139/50/11 138/52/11
f 139/54/10 143/47/10 140/49/10
f 143/55/12 141/56/12 142/57/12
f 141/58/13 137/59/13 142/60/13
f 139/61/14 141/62/14 143/63/14
f 144/64/15 142/65/15 140/66/15
f 142/65/15 138/67/15 140/66/15
f 141/62/14 139/61/14 137/68/14
f 137/59/13 138/69/13 142/60/13
f 139/50/11 140/51/11 138/52/11
f 143/47/10 144/48/10 140/49/10
f 142/57/12 144/70/12 143/55/12
f 59/57/12 57/70/12 58/55/12
f 73/54/10 77/47/10 80/49/10
f 75/53/11 73/50/11 74/52/11
g Hull_Mesh
v 0.600000 1.778587 2.300000
v 0.717157 1.778587 2.017157
v 1.400000 1.778587 2.300000
v 0.600000 1.778587 1.500000
v 1.000000 1.778587 1.100000
v 1.400000 1.778587 1.500000
v 0.600000 1.778587 0.700000
v 1.000000 1.778587 0.300000
v 1.400000 1.778587 0.700000
v 1.400000 1.094143 0.700000
v 1.000000 1.094143 0.300000
v 0.600000 1.094143 0.700000
v 1.400000 1.094143 1.500000
v 1.000000 1.094143 1.100000
v 0.600000 1.094143 1.500000
v 1.400000 1.094143 2.300000
v 1.282843 1.094143 2.017157
v 0.600000 1.094143 2.300000
v 1.000000 1.778587 2.700000
v 0.717157 1.778587 2.582843
v 1.282843 1.778587 2.582843
v 1.000000 1.778587 1.900000
v 1.282843 1.778587 2.017157
v 1.000000 1.778587 1.900000
v 0.717157 1.778587 1.782843
v 1.282843 1.778587 1.782843
v 1.282843 1.778587 1.217157
v 0.717157 1.778587 1.217157
v 1.000000 1.778587 1.100000
v 0.717157 1.778587 0.982843
v 1.282843 1.778587 0.982843
v 1.282843 1.778587 0.417157
v 0.717157 1.778587 0.417157
v 1.000000 1.094143 1.100000
v 1.282843 1.094143 0.982843
v 0.717157 1.094143 0.982843
v 0.717157 1.094143 0.417157
v 1.282843 1.094143 0.417157
v 1.000000 1.094143 1.900000
v 1.282843 1.094143 1.782843
v 0.717157 1.094143 1.782843
v 0.717157 1.094143 1.217157
v 1.282843 1.094143 1.217157
v 1.000000 1.094143 2.700000
v 1.282843 1.094143 2.582843
v 0.717157 1.094143 2.582843
v 1.000000 1.094143 1.900000
v 0.717157 1.094143 2.017157
v 1.400000 0.997297 0.700000
v 0.600000 0.997297 0.700000
v 1.000000 0.997297 0.300000
v 1.000000 0.997297 1.100000
v 1.282843 0.997297 0.982843
v 0.717157 0.997297 0.982843
v 0.717157 0.997297 0.417157
v 1.282843 0.997297 0.417157
v 1.400000 0.997246 1.500000
v 0.600000 0.997246 1.500000
v 1.000000 0.997246 1.100000
v 1.000000 0.997246 1.900000
v 1.282843 0.997246 1.782843
v 0.717157 0.997246 1.782843
v 0.717157 0.997246 1.217157
v 1.282843 0.997246 1.217157
v 1.400000 0.995442 2.300000
v 0.600000 0.995442 2.300000
v 1.282843 0.995442 2.017157
v 1.000000 0.995442 2.700000
v 1.282843 0.995442 2.582843
v 0.717157 0.995442 2.582843
v 1.000000 0.995442 1.900000
v 0.717157 0.995442 2.017157
v 0.600000 1.880699 2.300000
v 1.400000 1.880699 2.300000
v 0.717157 1.880699 2.017157
v 1.000000 1.880699 2.700000
v 0.717157 1.880699 2.582843
v 1.282843 1.880699 2.582843
v 1.000000 1.880699 1.900000
v 1.282843 1.880699 2.017157
v 0.600000 1.881239 1.500000
v 1.400000 1.881239 1.500000
v 1.000000 1.881239 1.100000
v 1.000000 1.881239 1.900000
v 0.717157 1.881239 1.782843
v 1.282843 1.881239 1.782843
v 1.282843 1.881239 1.217157
v 0.717157 1.881239 1.217157
v 1.397792 1.091672 2.295243
v 0.997792 1.091672 1.895243
v 0.597792 1.091672 2.295243
v 0.997792 1.091672 2.695243
v 1.280635 1.091672 2.578086
v 0.714949 1.091672 2.578086
v 0.714949 1.091672 2.012400
v 1.280635 1.091672 2.012400
v 0.600000 1.876043 0.700000
v 1.400000 1.876043 0.700000
v 1.000000 1.876043 0.300000
v 1.000000 1.876043 1.100000
v 0.717157 1.876043 0.982843
v 1.282843 1.876043 0.982843
v 1.282843 1.876043 0.417157
v 0.717157 1.876043 0.417157
v 0.603495 1.777435 1.493414
v 1.003495 1.777435 1.093414
v 1.403495 1.777435 1.493414
v 1.003495 1.777435 1.893414
v 0.720652 1.777435 1.776257
v 1.286338 1.777435 1.776257
v 1.286338 1.777435 1.210571
v 0.720652 1.777435 1.210571
v 0.687500 0.312500 2.937500
v 0.687500 0.687500 2.937500
v 0.687500 0.687500 3.000000
v 0.687500 0.312500 3.000000
v 0.312500 0.687500 3.000000
v 0.312500 0.312500 3.000000
v 0.312500 0.687500 2.937500
v 0.312500 0.312500 2.937500
v 0.000000 0.250000 2.000000
v 0.000000 0.875000 2.000000
v 0.000000 0.875000 1.000000
v 0.000000 0.250000 1.000000
v 0.062500 0.875000 1.000000
v 0.062500 0.250000 1.000000
v 0.062500 0.250000 2.000000
v 0.062500 0.875000 2.000000
v 1.937500 0.250000 1.812500
v 1.937500 0.875000 1.812500
v 2.000000 0.875000 1.812500
v 2.000000 0.250000 1.812500
v 2.000000 0.875000 2.000000
v 2.000000 0.250000 2.000000
v 1.937500 0.875000 2.000000
v 1.937500 0.250000 2.000000
v 1.937500 0.250000 1.000000
v 1.937500 0.875000 1.000000
v 2.000000 0.875000 1.000000
v 2.000000 0.250000 1.000000
v 2.000000 0.875000 1.187500
v 2.000000 0.250000 1.187500
v 1.937500 0.875000 1.187500
v 1.937500 0.250000 1.187500
v 0.187500 0.250000 3.000000
v 0.187500 0.875000 3.000000
v 0.000000 0.875000 3.000000
v 0.000000 0.250000 3.000000
v 0.000000 0.875000 2.812500
v 0.000000 0.250000 2.812500
v 0.187500 0.875000 2.812500
v 0.187500 0.250000 2.812500
v 2.000000 0.250000 3.000000
v 2.000000 0.875000 3.000000
v 1.812500 0.875000 3.000000
v 1.812500 0.250000 3.000000
v 1.812500 0.875000 2.812500
v 1.812500 0.250000 2.812500
v 2.000000 0.875000 2.812500
v 2.000000 0.250000 2.812500
v 2.000000 0.250000 0.187500
v 2.000000 0.875000 0.187500
v 1.812500 0.875000 0.187500
v 1.812500 0.250000 0.187500
v 1.812500 0.875000 -0.000000
v 1.812500 0.250000 -0.000000
v 2.000000 0.875000 -0.000000
v 2.000000 0.250000 -0.000000
v 0.187500 0.250000 0.187500
v 0.187500 0.875000 0.187500
v 0.000000 0.875000 0.187500
v 0.000000 0.250000 0.187500
v 0.000000 0.875000 -0.000000
v 0.000000 0.250000 -0.000000
v 0.187500 0.875000 -0.000000
v 0.187500 0.250000 -0.000000
v 1.937500 0.250000 2.937500
v 1.937500 0.875000 2.937500
v 0.062500 0.875000 2.937500
v 0.062500 0.250000 2.937500
v 0.062500 0.875000 0.062500
v 0.062500 0.250000 0.062500
v 1.937500 0.875000 0.062500
v 1.937500 0.250000 0.062500
v 2.000000 0.875000 3.000000
v 2.000000 1.000000 3.000000
v 0.000000 1.000000 3.000000
v 0.000000 0.875000 3.000000
v 0.000000 1.000000 -0.000000
v 0.000000 0.875000 -0.000000
v 2.000000 1.000000 -0.000000
v 2.000000 0.875000 -0.000000
v 2.000000 0.000000 3.000000
v 2.000000 0.250000 3.000000
v 0.000000 0.250000 3.000000
v 0.000000 0.000000 3.000000
v 0.000000 0.250000 -0.000000
v 0.000000 0.000000 0.000000
v 2.000000 0.250000 -0.000000
v 2.000000 0.000000 0.000000
v 0.312500 0.312500 0.062500
v 0.312500 0.687500 0.062500
v 0.312500 0.687500 -0.000000
v 0.312500 0.312500 -0.000000
v 0.687500 0.687500 -0.000000
v 0.687500 0.312500 -0.000000
v 0.687500 0.687500 0.062500
v 0.687500 0.312500 0.062500
v 1.937500 0.312500 1.312500
v 1.937500 0.687500 1.312500
v 2.000000 0.687500 1.312500
v 2.000000 0.312500 1.312500
v 2.000000 0.687500 1.687500
v 2.000000 0.312500 1.687500
v 1.937500 0.687500 1.687500
v 1.937500 0.312500 1.687500
v 2.000000 1.875000 3.000000
v 2.000000 2.000000 3.000000
v 0.000000 2.000000 3.000000
v 0.000000 1.875000 3.000000
v 0.000000 2.000000 -0.000000
v 0.000000 1.875000 -0.000000
v 2.000000 2.000000 -0.000000
v 2.000000 1.875000 -0.000000
v 0.000000 1.000000 0.187500
v 0.000000 1.875000 0.187500
v 0.000000 1.875000 -0.000000
v 0.000000 1.000000 -0.000000
v 0.187500 1.875000 -0.000000
v 0.187500 1.000000 -0.000000
v 0.187500 1.875000 0.187500
v 0.187500 1.000000 0.187500
v 0.000000 1.000000 3.000000
v 0.000000 1.875000 3.000000
v 0.000000 1.875000 2.812500
v 0.000000 1.000000 2.812500
v 0.187500 1.875000 2.812500
v 0.187500 1.000000 2.812500
v 0.187500 1.875000 3.000000
v 0.187500 1.000000 3.000000
v 1.812500 1.000000 0.187500
v 1.812500 1.875000 0.187500
v 1.812500 1.875000 -0.000000
v 1.812500 1.000000 -0.000000
v 2.000000 1.875000 -0.000000
v 2.000000 1.000000 -0.000000
v 2.000000 1.875000 0.187500
v 2.000000 1.000000 0.187500
v 1.812500 1.000000 3.000000
v 1.812500 1.875000 3.000000
v 1.812500 1.875000 2.812500
v 1.812500 1.000000 2.812500
v 2.000000 1.875000 2.812500
v 2.000000 1.000000 2.812500
v 2.000000 1.875000 3.000000
v 2.000000 1.000000 3.000000
v 1.312500 0.312500 0.062500
v 1.312500 0.687500 0.062500
v 1.312500 0.687500 -0.000000
v 1.312500 0.312500 -0.000000
v 1.687500 0.687500 -0.000000
v 1.687500 0.312500 -0.000000
v 1.687500 0.687500 0.062500
v 1.687500 0.312500 0.062500
v 1.687500 0.312500 2.937500
v 1.687500 0.687500 2.937500
v 1.687500 0.687500 3.000000
v 1.687500 0.312500 3.000000
v 1.312500 0.687500 3.000000
v 1.312500 0.312500 3.000000
v 1.312500 0.687500 2.937500
v 1.312500 0.312500 2.937500
v 1.400000 0.997297 0.700000
v 0.600000 0.997297 0.700000
v 1.000000 0.997297 0.300000
v 1.000000 0.997297 1.100000
v 1.282843 0.997297 0.982843
v 0.717157 0.997297 0.982843
v 0.717157 0.997297 0.417157
v 1.282843 0.997297 0.417157
v 1.400000 0.997246 1.500000
v 0.600000 0.997246 1.500000
v 1.000000 0.997246 1.100000
v 1.000000 0.997246 1.900000
v 1.282843 0.997246 1.782843
v 0.717157 0.997246 1.782843
v 0.717157 0.997246 1.217157
v 1.282843 0.997246 1.217157
v 1.400000 0.995442 2.300000
v 0.600000 0.995442 2.300000
v 1.282843 0.995442 2.017157
v 1.000000 0.995442 2.700000
v 1.282843 0.995442 2.582843
v 0.717157 0.995442 2.582843
v 1.000000 0.995442 1.900000
v 0.717157 0.995442 2.017157
v 1.400000 0.898545 1.500000
v 0.600000 0.898545 1.500000
v 1.000000 0.898545 1.100000
v 1.000000 0.898545 1.900000
v 1.282843 0.898545 1.782843
v 0.717157 0.898545 1.782843
v 0.717157 0.898545 1.217157
v 1.282843 0.898545 1.217157
v 0.600000 1.880699 2.300000
v 1.400000 1.880699 2.300000
v 0.717157 1.880699 2.017157
v 1.000000 1.880699 2.700000
v 0.717157 1.880699 2.582843
v 1.282843 1.880699 2.582843
v 1.000000 1.880699 1.900000
v 1.282843 1.880699 2.017157
v 0.600000 1.881239 1.500000
v 1.400000 1.881239 1.500000
v 1.000000 1.881239 1.100000
v 1.000000 1.881239 1.900000
v 0.717157 1.881239 1.782843
v 1.282843 1.881239 1.782843
v 1.282843 1.881239 1.217157
v 0.717157 1.881239 1.217157
v 0.600000 1.983351 2.300000
v 1.400000 1.983351 2.300000
v 0.717157 1.983351 2.017157
v 1.000000 1.983352 2.700000
v 0.717157 1.983352 2.582843
v 1.282843 1.983352 2.582843
v 1.000000 1.983351 1.900000
v 1.282843 1.983351 2.017157
v 0.600000 1.876043 0.700000
v 1.400000 1.876043 0.700000
v 1.000000 1.876043 0.300000
v 1.000000 1.876043 1.100000
v 0.717157 1.876043 0.982843
v 1.282843 1.876043 0.982843
v 1.282843 1.876043 0.417157
v 0.717157 1.876043 0.417157
vn -0.7764 -0.6303 -0.0000
vn -0.5490 -0.6303 -0.5490
vn 0.7764 -0.6303 -0.0000
vn -0.0000 -0.6303 -0.7764
vn 0.7764 0.6303 -0.0000
vn -0.0000 0.6303 -0.7764
vn -0.7764 0.6303 -0.0000
vn -0.0000 -0.6303 0.7764
vn -0.5490 -0.6303 0.5490
vn 0.5490 -0.6303 0.5490
vn 0.5490 -0.6303 -0.5490
vn 0.3827 -0.0000 -0.9239
vn 0.3827 -0.0000 0.9239
vn 0.9239 -0.0000 0.3827
vn -0.0000 0.6303 0.7764
vn 0.5490 0.6303 0.5490
vn -0.5490 0.6303 0.5490
vn -0.5490 0.6303 -0.5490
vn 0.5490 0.6303 -0.5490
vn -0.9239 -0.0000 -0.3827
vn 0.9239 -0.0000 -0.3827
vn 0.7071 -0.0000 -0.7071
vn -0.7071 -0.0000 -0.7071
vn -0.7071 -0.0000 0.7071
vn -0.0000 -0.0000 1.0000
vn 1.0000 -0.0000 -0.0000
vn -0.0000 -0.0000 -1.0000
vn -1.0000 -0.0000 -0.0000
vn 0.7071 -0.0000 0.7071
vn -0.3827 -0.0000 -0.9239
vn -0.3827 -0.0000 0.9239
vn -0.9239 -0.0000 0.3827
vn -0.0000 1.0000 -0.0000
vn -0.0000 -1.0000 -0.0000
vt 0.405769 0.781934
vt 0.374519 0.719434
vt 0.444831 0.578809
vt 0.374519 0.641309
vt 0.476080 0.719434
vt 0.444831 0.781934
vt 0.476080 0.641309
vt 0.405769 0.578809
vt 0.035682 0.636487
vt 0.000829 0.708771
vt 0.016612 0.719557
vt 0.118077 0.814111
vt 0.118077 0.713787
vt 0.102815 0.726418
vt 0.085595 0.637791
vt 0.079338 0.668508
vt 0.037929 0.731071
vt 0.059844 0.687776
vt 0.054290 0.664043
vt 0.109527 0.738585
vt 0.111301 0.800645
vt 0.123775 0.808473
vt 0.058888 0.840017
vt 0.037511 0.793924
vt 0.025498 0.804964
vt 0.090008 0.690035
vt 0.095021 0.665888
vt 0.270110 0.681925
vt 0.300665 0.681730
vt 0.305023 0.657190
vt 0.249374 0.794117
vt 0.249879 0.729336
vt 0.237520 0.721683
vt 0.300396 0.838786
vt 0.269926 0.840128
vt 0.265592 0.864604
vt 0.321588 0.791833
vt 0.306573 0.861667
vt 0.322108 0.727418
vt 0.333994 0.716466
vt 0.263864 0.659099
vt 0.237511 0.804594
vt 0.333994 0.799895
vt 0.025498 0.722356
vt 0.089672 0.842764
vt 0.095142 0.866579
vt 0.217823 0.733092
vt 0.217389 0.800166
vt 0.230380 0.809279
vt 0.162150 0.681005
vt 0.195004 0.683917
vt 0.199991 0.658237
vt 0.140980 0.792196
vt 0.139075 0.725976
vt 0.126034 0.717790
vt 0.194008 0.846387
vt 0.199810 0.871196
vt 0.230380 0.721559
vt 0.156437 0.656109
vt 0.161815 0.843991
vt 0.128688 0.803200
vt 0.156567 0.869228
vt 0.121290 0.728050
vt 0.054121 0.864590
vt 0.034585 0.884575
vt 0.084445 0.887101
vt 0.077190 0.857350
vt 0.000977 0.809748
vt 0.016240 0.796461
vt 0.206971 0.887852
vt 0.241658 0.817647
vt 0.226251 0.806836
vt 0.124814 0.712541
vt 0.126336 0.810321
vt 0.141120 0.797706
vt 0.207515 0.646354
vt 0.158531 0.641937
vt 0.165320 0.671320
vt 0.241658 0.718238
vt 0.201379 0.676381
vt 0.157914 0.885438
vt 0.200100 0.858403
vt 0.140202 0.722403
vt 0.164175 0.855519
vt 0.226777 0.731822
vt 0.042890 0.666408
vt 0.040849 0.853873
vt 0.102383 0.803784
vt 0.286385 0.866694
vt 0.260890 0.811522
vt 0.246151 0.824329
vt 0.351673 0.807346
vt 0.324189 0.863721
vt 0.331676 0.892237
vt 0.325778 0.672997
vt 0.352331 0.728739
vt 0.367041 0.715041
vt 0.263105 0.732662
vt 0.247971 0.722545
vt 0.281261 0.897188
vt 0.367041 0.817932
vt 0.288105 0.673698
vt 0.331071 0.642499
vt 0.280308 0.645482
vt 0.773438 0.718750
vt 0.781250 0.812500
vt 0.773438 0.812500
vt 0.734375 0.718750
vt 0.781250 0.718750
vt 0.742188 0.812500
vt 0.742188 0.718750
vt 0.734375 0.734375
vt 0.781250 0.734375
vt 0.734375 0.812500
vt 0.781250 0.796875
vt 1.000000 0.812500
vt 0.875000 0.656250
vt 1.000000 0.656250
vt 0.898438 0.812500
vt 0.890625 0.656250
vt 0.898438 0.656250
vt 0.882812 0.812500
vt 0.882812 0.656250
vt 0.984375 0.968750
vt 0.976562 0.812500
vt 0.984375 0.812500
vt 1.000000 0.968750
vt 0.992188 0.968750
vt 0.992188 0.812500
vt 0.976562 0.968750
vt 1.000000 0.000000
vt 0.000000 1.000000
vt 0.000000 0.000000
vt 0.750000 0.812500
vt 0.632812 0.812500
vt 0.632812 0.968750
vt 0.750000 0.968750
vt 1.000000 1.000000
vt 0.625000 0.968750
vt 0.625000 1.000000
vt 0.750000 1.000000
vt 0.375000 0.500000
vt 0.000000 0.500000
vt 0.250000 0.437500
vt -0.000000 0.375000
vt 0.250000 0.375000
vt 0.000000 0.437500
vt 0.375000 0.437500
vt 0.820312 0.718750
vt 0.828125 0.812500
vt 0.820312 0.812500
vt 0.828125 0.718750
vt 0.789062 0.812500
vt 0.789062 0.718750
vt 0.828125 0.734375
vt 0.828125 0.796875
vt 0.867188 0.718750
vt 0.875000 0.812500
vt 0.867188 0.812500
vt 0.875000 0.718750
vt 0.835938 0.812500
vt 0.835938 0.718750
vt 0.875000 0.734375
vt 0.875000 0.796875
vt 0.375000 1.000000
vt 0.554688 1.000000
vt 0.531250 0.781250
vt 0.554688 0.781250
vt 0.726562 0.718750
vt 0.726562 0.812500
vt 0.687500 0.718750
vt 0.695312 0.812500
vt 0.695312 0.718750
vt 0.687500 0.734375
vt 0.687500 0.812500
vt 0.734375 0.796875
vt 0.679688 0.718750
vt 0.679688 0.812500
vt 0.640625 0.718750
vt 0.648438 0.812500
vt 0.648438 0.718750
vt 0.640625 0.734375
vt 0.640625 0.812500
vt 0.687500 0.796875
vt 0.890625 0.812500
vt 0.531250 1.000000
vt 0.640625 0.796875
vt 0.375000 0.718750
vt 0.406250 0.781250
vt 0.445312 0.578125
vt 0.406250 0.578125
vt 0.476562 0.718750
vt 0.476562 0.640625
vt 0.375000 0.640625
vt 0.445312 0.781250
s 1
usemtl Body
f 145/71/16 146/72/17 147/73/18
f 151/71/16 152/74/19 153/73/18
f 154/71/20 155/74/21 156/73/22
f 157/75/20 158/71/21 159/74/22
f 163/75/23 164/76/24 145/71/16
f 147/73/18 165/77/25 163/75/23
f 166/74/19 167/78/26 147/73/18
f 147/73/18 146/72/17 166/74/19
f 147/73/18 163/75/23 145/71/16
s 0
f 171/79/27 149/80/27 227/81/27
f 168/82/28 170/83/28 230/84/28
f 170/83/29 150/85/29 226/86/29
s 1
f 173/75/23 174/76/24 151/71/16
f 153/73/18 175/77/25 173/75/23
f 152/74/19 176/78/26 153/73/18
f 151/71/16 177/72/17 152/74/19
f 153/73/18 173/75/23 151/71/16
f 178/75/30 179/76/31 154/71/20
f 156/73/22 180/77/32 178/75/30
f 155/74/21 181/78/33 156/73/22
f 154/71/20 182/72/34 155/74/21
f 156/73/22 178/75/30 154/71/20
f 183/73/30 184/77/31 157/75/20
f 159/74/22 185/78/32 183/73/30
f 158/71/21 186/72/33 159/74/22
f 157/75/20 187/76/34 158/71/21
f 159/74/22 183/73/30 157/75/20
s 0
f 191/87/27 161/88/27 211/89/27
f 189/90/28 188/91/28 212/92/28
f 162/93/35 192/94/35 216/95/35
f 161/88/36 160/96/36 209/97/36
s 1
f 155/98/21 182/99/34 200/100/37
f 156/101/22 181/102/33 199/103/38
f 178/104/30 180/105/32 198/106/39
f 179/107/31 178/104/30 196/108/40
f 182/99/34 154/109/20 193/110/41
f 181/102/33 155/98/21 195/111/42
f 180/105/32 156/101/22 194/112/43
f 154/109/20 179/107/31 197/113/44
s 0
f 192/94/45 191/87/45 215/114/45
f 188/91/46 190/115/46 214/116/46
s 1
f 187/117/34 157/118/20 201/119/41
f 186/120/33 158/121/21 203/122/42
f 185/123/32 159/124/22 202/125/43
f 157/118/20 184/126/31 205/127/44
f 158/121/21 187/117/34 208/128/37
f 159/124/22 186/120/33 207/129/38
f 183/130/30 185/123/32 206/131/39
f 184/126/31 183/130/30 204/132/40
s 0
f 160/96/29 189/90/29 213/133/29
f 190/115/47 162/93/47 210/134/47
f 148/135/47 169/136/47 229/137/47
f 149/80/45 172/138/45 232/139/45
s 1
f 165/140/25 147/141/18 218/142/41
f 145/143/16 164/144/24 221/145/39
f 166/146/19 146/147/17 219/148/38
f 167/149/26 166/146/19 223/150/42
f 163/151/23 165/140/25 222/152/44
f 146/147/17 145/143/16 217/153/43
f 164/144/24 163/151/23 220/154/40
f 147/141/18 167/149/26 224/155/37
s 0
f 150/85/36 171/79/36 231/156/36
f 172/138/35 148/135/35 225/157/35
f 169/136/46 168/82/46 228/158/46
s 1
f 233/75/48 234/71/48 235/74/48
f 236/73/48 237/77/48 233/75/48
f 235/74/48 238/78/48 236/73/48
f 234/71/48 239/72/48 235/74/48
f 233/75/48 240/76/48 234/71/48
f 235/74/48 236/73/48 233/75/48
f 177/159/17 151/160/16 241/161/43
f 176/162/26 152/163/19 243/164/42
f 175/165/25 153/166/18 242/167/41
f 151/160/16 174/168/24 245/169/39
f 152/163/19 177/159/17 248/170/38
f 153/166/18 176/162/26 247/171/37
f 173/172/23 175/165/25 246/173/44
f 174/168/24 173/172/23 244/174/40
f 249/71/49 250/74/49 251/73/49
f 252/75/49 253/76/49 249/71/49
f 251/73/49 254/77/49 252/75/49
f 250/74/49 255/78/49 251/73/49
f 249/71/49 256/72/49 250/74/49
f 251/73/49 252/75/49 249/71/49
f 187/117/34 201/119/41 208/128/37
f 186/120/33 203/122/42 207/129/38
f 185/123/32 202/125/43 206/131/39
f 157/118/20 205/127/44 201/119/41
f 158/121/21 208/128/37 203/122/42
f 159/124/22 207/129/38 202/125/43
f 183/130/30 206/131/39 204/132/40
f 155/98/21 200/100/37 195/111/42
f 156/101/22 199/103/38 194/112/43
f 178/104/30 198/106/39 196/108/40
f 179/107/31 196/108/40 197/113/44
f 182/99/34 193/110/41 200/100/37
f 181/102/33 195/111/42 199/103/38
f 180/105/32 194/112/43 198/106/39
f 154/109/20 197/113/44 193/110/41
f 177/159/17 241/161/43 248/170/38
f 176/162/26 243/164/42 247/171/37
f 175/165/25 242/167/41 246/173/44
f 151/160/16 245/169/39 241/161/43
f 152/163/19 248/170/38 243/164/42
f 153/166/18 247/171/37 242/167/41
f 173/172/23 246/173/44 244/174/40
f 174/168/24 244/174/40 245/169/39
s 0
f 171/79/27 227/81/27 231/156/27
f 168/82/28 230/84/28 228/158/28
f 170/83/29 226/86/29 230/84/29
f 148/135/47 229/137/47 225/157/47
f 149/80/45 232/139/45 227/81/45
f 150/85/36 231/156/36 226/86/36
f 172/138/35 225/157/35 232/139/35
f 169/136/46 228/158/46 229/137/46
s 1
f 184/126/31 204/132/40 205/127/44
s 0
f 191/87/27 211/89/27 215/114/27
f 189/90/28 212/92/28 213/133/28
f 162/93/35 216/95/35 210/134/35
f 161/88/36 209/97/36 211/89/36
f 192/94/45 215/114/45 216/95/45
f 188/91/46 214/116/46 212/92/46
f 160/96/29 213/133/29 209/97/29
f 190/115/47 210/134/47 214/116/47
s 1
f 165/140/25 218/142/41 222/152/44
f 145/143/16 221/145/39 217/153/43
f 166/146/19 219/148/38 223/150/42
f 167/149/26 223/150/42 224/155/37
f 163/151/23 222/152/44 220/154/40
f 146/147/17 217/153/43 219/148/38
f 164/144/24 220/154/40 221/145/39
f 147/141/18 224/155/37 218/142/41
s 0
f 258/175/41 260/176/41 257/177/41
f 259/176/40 262/178/40 260/179/40
f 261/180/43 264/178/43 262/181/43
f 262/182/49 257/179/49 260/183/49
f 259/184/48 263/185/48 261/176/48
f 266/186/43 268/187/43 265/188/43
f 267/189/42 270/190/42 268/191/42
f 272/192/40 265/187/40 271/193/40
f 274/194/42 276/195/42 273/196/42
f 275/197/41 278/195/41 276/186/41
f 277/198/40 280/186/40 278/199/40
f 282/194/42 284/195/42 281/196/42
f 283/197/41 286/195/41 284/186/41
f 285/197/40 288/199/40 286/186/40
f 290/197/40 292/195/40 289/186/40
f 291/197/43 294/195/43 292/186/43
f 293/197/42 296/195/42 294/186/42
f 295/197/41 289/195/41 296/186/41
f 298/197/40 300/195/40 297/186/40
f 299/197/43 302/195/43 300/186/43
f 301/200/42 304/196/42 302/195/42
f 303/197/41 297/195/41 304/186/41
f 306/186/40 308/198/40 305/199/40
f 307/197/43 310/199/43 308/186/43
f 309/197/42 312/195/42 310/186/42
f 311/197/41 305/195/41 312/186/41
f 310/201/49 305/202/49 308/203/49
f 307/201/48 311/202/48 309/203/48
f 314/197/40 316/195/40 313/186/40
f 315/197/43 318/195/43 316/186/43
f 317/197/42 320/195/42 318/186/42
f 319/197/41 313/199/41 320/186/41
f 322/200/40 324/204/40 321/195/40
f 323/205/43 326/198/43 324/206/43
f 325/204/42 328/200/42 326/207/42
f 327/198/41 321/205/41 328/199/41
f 330/208/40 332/207/40 329/197/40
f 331/209/43 334/208/43 332/210/43
f 333/207/42 336/208/42 334/211/42
f 335/208/41 329/209/41 336/197/41
f 334/212/49 329/202/49 332/213/49
f 331/212/48 335/202/48 333/213/48
f 338/214/40 340/215/40 337/216/40
f 339/212/43 342/217/43 340/218/43
f 341/214/42 344/215/42 342/216/42
f 343/212/41 337/217/41 344/218/41
f 342/212/49 337/202/49 340/213/49
f 339/212/48 343/202/48 341/213/48
f 346/219/43 348/220/43 345/221/43
f 347/220/42 350/179/42 348/222/42
f 349/223/41 352/179/41 350/224/41
f 350/183/49 345/222/49 348/225/49
f 347/176/48 351/226/48 349/220/48
f 354/227/42 356/228/42 353/229/42
f 355/228/41 358/222/41 356/230/41
f 357/231/40 360/222/40 358/232/40
f 358/225/49 353/230/49 356/233/49
f 355/220/48 359/234/48 357/228/48
f 362/208/40 364/207/40 361/197/40
f 363/209/43 366/208/43 364/210/43
f 365/207/42 368/208/42 366/211/42
f 367/208/41 361/209/41 368/197/41
f 366/202/49 361/212/49 364/235/49
f 363/212/48 367/202/48 365/213/48
f 370/236/43 372/237/43 369/238/43
f 371/236/42 374/237/42 372/238/42
f 373/236/41 376/237/41 374/238/41
f 375/236/40 369/237/40 376/238/40
f 378/236/43 380/237/43 377/238/43
f 379/236/42 382/237/42 380/238/42
f 381/236/41 384/237/41 382/238/41
f 383/236/40 377/237/40 384/238/40
f 386/236/43 388/237/43 385/238/43
f 387/236/42 390/237/42 388/238/42
f 389/236/41 392/237/41 390/238/41
f 391/236/40 385/237/40 392/238/40
f 394/236/43 396/237/43 393/238/43
f 395/236/42 398/237/42 396/238/42
f 397/236/41 400/237/41 398/238/41
f 399/236/40 393/237/40 400/238/40
f 402/239/43 404/184/43 401/240/43
f 403/184/42 406/241/42 404/178/42
f 405/242/41 408/241/41 406/243/41
f 406/244/49 401/178/49 404/182/49
f 403/245/48 407/246/48 405/184/48
f 410/247/41 412/245/41 409/248/41
f 411/245/40 414/249/40 412/241/40
f 413/250/43 416/249/43 414/251/43
f 414/252/49 409/241/49 412/244/49
f 411/253/48 415/254/48 413/245/48
f 258/175/41 259/179/41 260/176/41
f 259/176/40 261/184/40 262/178/40
f 261/180/43 263/184/43 264/178/43
f 262/182/49 264/178/49 257/179/49
f 259/184/48 258/246/48 263/185/48
f 266/186/43 267/228/43 268/187/43
f 267/189/42 269/255/42 270/190/42
f 272/192/40 266/228/40 265/187/40
f 274/194/42 275/200/42 276/195/42
f 275/197/41 277/200/41 278/195/41
f 277/198/40 279/197/40 280/186/40
f 282/194/42 283/200/42 284/195/42
f 283/197/41 285/200/41 286/195/41
f 285/197/40 287/198/40 288/199/40
f 290/197/40 291/200/40 292/195/40
f 291/197/43 293/200/43 294/195/43
f 293/197/42 295/200/42 296/195/42
f 295/197/41 290/200/41 289/195/41
f 298/197/40 299/200/40 300/195/40
f 299/197/43 301/200/43 302/195/43
f 301/200/42 303/194/42 304/196/42
f 303/197/41 298/200/41 297/195/41
f 306/186/40 307/197/40 308/198/40
f 307/197/43 309/198/43 310/199/43
f 309/197/42 311/200/42 312/195/42
f 311/197/41 306/200/41 305/195/41
f 310/201/49 312/208/49 305/202/49
f 307/201/48 306/208/48 311/202/48
f 314/197/40 315/200/40 316/195/40
f 315/197/43 317/200/43 318/195/43
f 317/197/42 319/200/42 320/195/42
f 319/197/41 314/198/41 313/199/41
f 322/200/40 323/207/40 324/204/40
f 323/205/43 325/199/43 326/198/43
f 325/204/42 327/195/42 328/200/42
f 327/198/41 322/206/41 321/205/41
f 330/208/40 331/211/40 332/207/40
f 331/209/43 333/197/43 334/208/43
f 333/207/42 335/197/42 336/208/42
f 335/208/41 330/210/41 329/209/41
f 334/212/49 336/235/49 329/202/49
f 331/212/48 330/235/48 335/202/48
f 338/214/40 339/217/40 340/215/40
f 339/212/43 341/213/43 342/217/43
f 341/214/42 343/217/42 344/215/42
f 343/212/41 338/213/41 337/217/41
f 342/212/49 344/235/49 337/202/49
f 339/212/48 338/235/48 343/202/48
f 346/219/43 347/222/43 348/220/43
f 347/220/42 349/176/42 350/179/42
f 349/223/41 351/176/41 352/179/41
f 350/183/49 352/179/49 345/222/49
f 347/176/48 346/185/48 351/226/48
f 354/227/42 355/230/42 356/228/42
f 355/228/41 357/220/41 358/222/41
f 357/231/40 359/220/40 360/222/40
f 358/225/49 360/222/49 353/230/49
f 355/220/48 354/226/48 359/234/48
f 362/208/40 363/211/40 364/207/40
f 363/209/43 365/197/43 366/208/43
f 365/207/42 367/197/42 368/208/42
f 367/208/41 362/210/41 361/209/41
f 366/202/49 368/213/49 361/212/49
f 363/212/48 362/235/48 367/202/48
f 370/236/43 371/256/43 372/237/43
f 371/236/42 373/256/42 374/237/42
f 373/236/41 375/256/41 376/237/41
f 375/236/40 370/256/40 369/237/40
f 378/236/43 379/256/43 380/237/43
f 379/236/42 381/256/42 382/237/42
f 381/236/41 383/256/41 384/237/41
f 383/236/40 378/256/40 377/237/40
f 386/236/43 387/256/43 388/237/43
f 387/236/42 389/256/42 390/237/42
f 389/236/41 391/256/41 392/237/41
f 391/236/40 386/256/40 385/237/40
f 394/236/43 395/256/43 396/237/43
f 395/236/42 397/256/42 398/237/42
f 397/236/41 399/256/41 400/237/41
f 399/236/40 394/256/40 393/237/40
f 402/239/43 403/178/43 404/184/43
f 403/184/42 405/245/42 406/241/42
f 405/242/41 407/245/41 408/241/41
f 406/244/49 408/241/49 401/178/49
f 403/245/48 402/254/48 407/246/48
f 410/247/41 411/241/41 412/245/41
f 411/245/40 413/253/40 414/249/40
f 413/250/43 415/253/43 416/249/43
f 414/252/49 416/249/49 409/241/49
f 411/253/48 410/257/48 415/254/48
s 1
f 451/258/44 465/259/18 449/259/41
f 428/260/42 446/261/34 430/261/37
f 452/262/42 470/263/17 454/263/38
f 454/263/38 466/260/16 450/260/43
f 430/261/37 442/264/20 426/264/41
f 417/259/48 419/264/48 418/260/48
f 420/262/48 421/265/48 417/259/48
f 418/260/48 422/263/48 420/262/48
f 419/264/48 423/261/48 418/260/48
f 417/259/48 424/258/48 419/264/48
f 418/260/48 420/262/48 417/259/48
f 425/262/43 445/263/33 429/263/38
f 427/259/40 448/265/32 432/265/39
f 429/263/38 444/260/21 428/260/42
f 432/265/39 441/262/22 425/262/43
f 433/259/48 435/258/48 434/260/48
f 436/262/48 437/265/48 433/259/48
f 434/260/48 438/263/48 436/262/48
f 439/264/48 440/261/48 434/260/48
f 434/260/48 435/258/48 439/264/48
f 434/260/48 436/262/48 433/259/48
f 441/262/22 443/259/30 442/264/20
f 444/260/21 445/263/33 441/262/22
f 442/264/20 446/261/34 444/260/21
f 443/259/30 447/258/31 442/264/20
f 441/262/22 448/265/32 443/259/30
f 442/264/20 444/260/21 441/262/22
f 431/258/44 443/259/30 427/259/40
f 426/264/41 447/258/31 431/258/44
f 449/259/41 469/265/26 453/265/37
f 455/264/40 467/258/25 451/258/44
f 453/265/37 468/262/19 452/262/42
f 450/260/43 472/261/24 456/261/39
f 457/262/49 459/259/49 458/264/49
f 460/260/49 461/263/49 457/262/49
f 458/264/49 462/261/49 460/260/49
f 459/259/49 463/258/49 458/264/49
f 457/262/49 464/265/49 459/259/49
f 458/264/49 460/260/49 457/262/49
f 465/259/18 467/258/25 466/260/16
f 468/262/19 469/265/26 465/259/18
f 466/260/16 470/263/17 468/262/19
f 471/264/23 472/261/24 466/260/16
f 466/260/16 467/258/25 471/264/23
f 466/260/16 468/262/19 465/259/18
f 456/261/39 471/264/23 455/264/40
f 473/259/49 475/264/49 474/260/49
f 476/262/49 477/265/49 473/259/49
f 474/260/49 478/263/49 476/262/49
f 475/264/49 479/261/49 474/260/49
f 473/259/49 480/258/49 475/264/49
f 474/260/49 476/262/49 473/259/49
f 451/258/44 467/258/25 465/259/18
f 428/260/42 444/260/21 446/261/34
f 452/262/42 468/262/19 470/263/17
f 454/263/38 470/263/17 466/260/16
f 430/261/37 446/261/34 442/264/20
f 425/262/43 441/262/22 445/263/33
f 427/259/40 443/259/30 448/265/32
f 429/263/38 445/263/33 444/260/21
f 432/265/39 448/265/32 441/262/22
f 431/258/44 447/258/31 443/259/30
f 426/264/41 442/264/20 447/258/31
f 449/259/41 465/259/18 469/265/26
f 455/264/40 471/264/23 467/258/25
f 453/265/37 469/265/26 468/262/19
f 450/260/43 466/260/16 472/261/24
f 456/261/39 472/261/24 471/264/23
