# Blender 4.2.3 LTS
# www.blender.org
mtllib cuttingmachine_multiblock.mtl
g Hull_Mesh
v 0.312500 0.312500 0.062500
v 0.312500 0.687500 0.062500
v 0.312500 0.312500 -0.000000
v 0.312500 0.687500 -0.000000
v 0.687500 0.312500 0.062500
v 0.687500 0.687500 0.062500
v 0.687500 0.312500 -0.000000
v 0.687500 0.687500 -0.000000
v 0.000000 0.250000 2.000000
v 0.000000 0.875000 2.000000
v 0.000000 0.250000 1.000000
v 0.000000 0.875000 1.000000
v 0.062500 0.250000 2.000000
v 0.062500 0.875000 2.000000
v 0.062500 0.250000 1.000000
v 0.062500 0.875000 1.000000
v 1.937500 0.250000 2.000000
v 1.937500 0.875000 2.000000
v 1.937500 0.250000 1.812500
v 1.937500 0.875000 1.812500
v 2.000000 0.250000 2.000000
v 2.000000 0.875000 2.000000
v 2.000000 0.250000 1.812500
v 2.000000 0.875000 1.812500
v 1.937500 0.250000 1.187500
v 1.937500 0.875000 1.187500
v 1.937500 0.250000 1.000000
v 1.937500 0.875000 1.000000
v 2.000000 0.250000 1.187500
v 2.000000 0.875000 1.187500
v 2.000000 0.250000 1.000000
v 2.000000 0.875000 1.000000
v 0.250000 1.000000 0.625000
v 0.250000 1.500000 0.625000
v 0.250000 1.000000 0.125000
v 1.750000 1.000000 0.625000
v 1.750000 1.500000 0.625000
v 1.750000 1.000000 0.125000
v 0.125000 1.000000 2.750000
v 0.125000 1.000000 2.375000
v 0.375000 1.000000 2.750000
v 0.375000 1.250000 2.750000
v 0.375000 1.000000 2.375000
v 0.375000 1.250000 2.375000
v 0.375000 1.000000 2.750000
v 0.375000 1.250000 2.750000
v 0.375000 1.000000 2.375000
v 0.375000 1.250000 2.375000
v 0.500000 1.000000 2.750000
v 0.500000 1.250000 2.750000
v 0.500000 1.000000 2.375000
v 0.500000 1.250000 2.375000
v 0.437500 1.000000 3.000000
v 0.437500 1.375000 3.000000
v 0.437500 1.000000 2.937500
v 0.437500 1.375000 2.937500
v 0.500000 1.000000 3.000000
v 0.500000 1.375000 3.000000
v 0.500000 1.000000 2.937500
v 0.500000 1.375000 2.937500
v 0.500000 1.312500 3.000000
v 0.500000 1.375000 3.000000
v 0.500000 1.312500 2.937500
v 0.500000 1.375000 2.937500
v 1.500000 1.312500 3.000000
v 1.500000 1.375000 3.000000
v 1.500000 1.312500 2.937500
v 1.500000 1.375000 2.937500
v 0.437500 1.312500 2.937500
v 0.437500 1.375000 2.937500
v 0.437500 1.312500 2.187500
v 0.437500 1.375000 2.187500
v 0.500000 1.312500 2.937500
v 0.500000 1.375000 2.937500
v 0.500000 1.312500 2.187500
v 0.500000 1.375000 2.187500
v 0.500000 1.000000 2.937500
v 0.500000 1.375000 2.937500
v 0.500000 1.000000 2.187500
v 0.500000 1.375000 2.187500
v 1.500000 1.000000 2.937500
v 1.500000 1.375000 2.937500
v 1.500000 1.000000 2.187500
v 1.500000 1.375000 2.187500
v 0.750000 1.000000 2.187500
v 0.750000 1.062500 2.187500
v 0.750000 1.000000 0.875000
v 0.750000 1.062500 0.875000
v 0.875000 1.000000 2.187500
v 0.875000 1.062500 2.187500
v 0.875000 1.000000 0.875000
v 0.875000 1.062500 0.875000
v 0.250000 1.000000 0.875000
v 0.250000 1.500000 0.875000
v 0.250000 1.000000 0.625000
v 0.250000 1.500000 0.625000
v 1.750000 1.000000 0.875000
v 1.750000 1.500000 0.875000
v 1.750000 1.000000 0.625000
v 1.750000 1.500000 0.625000
v 0.187500 0.250000 3.000000
v 0.187500 0.875000 3.000000
v 0.000000 0.250000 3.000000
v 0.000000 0.875000 3.000000
v 0.187500 0.250000 2.812500
v 0.187500 0.875000 2.812500
v 0.000000 0.250000 2.812500
v 0.000000 0.875000 2.812500
v 2.000000 0.250000 3.000000
v 2.000000 0.875000 3.000000
v 1.812500 0.250000 3.000000
v 1.812500 0.875000 3.000000
v 2.000000 0.250000 2.812500
v 2.000000 0.875000 2.812500
v 1.812500 0.250000 2.812500
v 1.812500 0.875000 2.812500
v 2.000000 0.250000 0.187500
v 2.000000 0.875000 0.187500
v 1.812500 0.250000 0.187500
v 1.812500 0.875000 0.187500
v 2.000000 0.250000 -0.000000
v 2.000000 0.875000 -0.000000
v 1.812500 0.250000 -0.000000
v 1.812500 0.875000 -0.000000
v 0.187500 0.250000 0.187500
v 0.187500 0.875000 0.187500
v 0.000000 0.250000 0.187500
v 0.000000 0.875000 0.187500
v 0.187500 0.250000 -0.000000
v 0.187500 0.875000 -0.000000
v 0.000000 0.250000 -0.000000
v 0.000000 0.875000 -0.000000
v 1.937500 0.250000 2.937500
v 1.937500 0.875000 2.937500
v 0.062500 0.250000 2.937500
v 0.062500 0.875000 2.937500
v 1.937500 0.250000 0.062500
v 1.937500 0.875000 0.062500
v 0.062500 0.250000 0.062500
v 0.062500 0.875000 0.062500
v 2.000000 0.875000 3.000000
v 2.000000 1.000000 3.000000
v 0.000000 0.875000 3.000000
v 0.000000 1.000000 3.000000
v 2.000000 0.875000 -0.000000
v 2.000000 1.000000 -0.000000
v 0.000000 0.875000 -0.000000
v 0.000000 1.000000 -0.000000
v 2.000000 0.000000 3.000000
v 2.000000 0.250000 3.000000
v 0.000000 0.000000 3.000000
v 0.000000 0.250000 3.000000
v 2.000000 0.000000 0.000000
v 2.000000 0.250000 -0.000000
v 0.000000 0.000000 0.000000
v 0.000000 0.250000 -0.000000
v 0.437500 1.000000 2.187500
v 0.437500 1.375000 2.187500
v 0.437500 1.000000 2.125000
v 0.437500 1.375000 2.125000
v 0.500000 1.000000 2.187500
v 0.500000 1.375000 2.187500
v 0.500000 1.000000 2.125000
v 0.500000 1.375000 2.125000
v 1.500000 1.000000 3.000000
v 1.500000 1.375000 3.000000
v 1.500000 1.000000 2.937500
v 1.500000 1.375000 2.937500
v 1.562500 1.000000 3.000000
v 1.562500 1.375000 3.000000
v 1.562500 1.000000 2.937500
v 1.562500 1.375000 2.937500
v 1.500000 1.000000 2.187500
v 1.500000 1.375000 2.187500
v 1.500000 1.000000 2.125000
v 1.500000 1.375000 2.125000
v 1.562500 1.000000 2.187500
v 1.562500 1.375000 2.187500
v 1.562500 1.000000 2.125000
v 1.562500 1.375000 2.125000
v 1.500000 1.312500 2.937500
v 1.500000 1.375000 2.937500
v 1.500000 1.312500 2.187500
v 1.500000 1.375000 2.187500
v 1.562500 1.312500 2.937500
v 1.562500 1.375000 2.937500
v 1.562500 1.312500 2.187500
v 1.562500 1.375000 2.187500
v 1.562500 1.312500 2.187500
v 1.562500 1.375000 2.187500
v 1.562500 1.312500 2.937500
v 1.562500 1.375000 2.937500
v 0.500000 1.312500 2.187500
v 0.500000 1.312500 2.125000
v 1.500000 1.312500 2.187500
v 1.500000 1.312500 2.125000
v 1.500000 1.312500 2.125000
v 1.500000 1.375000 2.125000
v 0.500000 1.375000 2.125000
v 0.500000 1.312500 2.125000
v 0.500000 1.375000 2.125000
v 1.500000 1.375000 2.125000
v 0.500000 1.375000 2.187500
v 0.500000 1.375000 2.125000
v 1.500000 1.375000 2.187500
v 1.500000 1.375000 2.125000
v 1.125000 1.000000 2.187500
v 1.125000 1.062500 2.187500
v 1.125000 1.000000 0.875000
v 1.125000 1.062500 0.875000
v 1.250000 1.000000 2.187500
v 1.250000 1.062500 2.187500
v 1.250000 1.000000 0.875000
v 1.250000 1.062500 0.875000
v 0.187500 1.000000 0.937500
v 0.187500 1.500000 0.937500
v 0.187500 1.000000 0.875000
v 0.187500 1.500000 0.875000
v 0.250000 1.000000 0.937500
v 0.250000 1.500000 0.937500
v 0.250000 1.000000 0.875000
v 0.250000 1.500000 0.875000
v 1.750000 1.000000 0.937500
v 1.750000 1.500000 0.937500
v 1.750000 1.000000 0.875000
v 1.750000 1.500000 0.875000
v 1.812500 1.000000 0.937500
v 1.812500 1.500000 0.937500
v 1.812500 1.000000 0.875000
v 1.812500 1.500000 0.875000
v 0.187500 1.000000 0.625000
v 0.187500 1.500000 0.625000
v 0.187500 1.000000 0.562500
v 0.187500 1.500000 0.562500
v 0.250000 1.000000 0.625000
v 0.250000 1.500000 0.625000
v 0.250000 1.000000 0.562500
v 0.250000 1.500000 0.562500
v 1.750000 1.000000 0.625000
v 1.750000 1.500000 0.625000
v 1.750000 1.000000 0.562500
v 1.750000 1.500000 0.562500
v 1.812500 1.000000 0.625000
v 1.812500 1.500000 0.625000
v 1.812500 1.000000 0.562500
v 1.812500 1.500000 0.562500
v 0.250000 1.437500 0.937500
v 0.250000 1.500000 0.937500
v 0.250000 1.437500 0.875000
v 0.250000 1.500000 0.875000
v 1.750000 1.437500 0.937500
v 1.750000 1.500000 0.937500
v 1.750000 1.437500 0.875000
v 1.750000 1.500000 0.875000
v 1.750000 1.437500 0.562500
v 1.750000 1.500000 0.562500
v 0.250000 1.437500 0.562500
v 0.250000 1.500000 0.562500
v 0.250000 1.437500 0.562500
v 0.250000 1.500000 0.562500
v 1.750000 1.437500 0.562500
v 1.750000 1.500000 0.562500
v 0.250000 1.500000 0.625000
v 0.250000 1.500000 0.562500
v 1.750000 1.500000 0.625000
v 1.750000 1.500000 0.562500
v 0.187500 1.437500 0.875000
v 0.187500 1.500000 0.875000
v 0.187500 1.437500 0.625000
v 0.187500 1.500000 0.625000
v 0.250000 1.437500 0.875000
v 0.250000 1.500000 0.875000
v 0.250000 1.437500 0.625000
v 0.250000 1.500000 0.625000
v 1.750000 1.437500 0.875000
v 1.750000 1.500000 0.875000
v 1.750000 1.437500 0.625000
v 1.750000 1.500000 0.625000
v 1.812500 1.437500 0.875000
v 1.812500 1.500000 0.875000
v 1.812500 1.437500 0.625000
v 1.812500 1.500000 0.625000
v 1.812500 1.437500 0.625000
v 1.812500 1.500000 0.625000
v 1.812500 1.437500 0.875000
v 1.812500 1.500000 0.875000
v 0.687500 0.312500 2.937500
v 0.687500 0.687500 2.937500
v 0.687500 0.312500 3.000000
v 0.687500 0.687500 3.000000
v 0.312500 0.312500 2.937500
v 0.312500 0.687500 2.937500
v 0.312500 0.312500 3.000000
v 0.312500 0.687500 3.000000
v 1.687500 0.312500 2.937500
v 1.687500 0.687500 2.937500
v 1.687500 0.312500 3.000000
v 1.687500 0.687500 3.000000
v 1.312500 0.312500 2.937500
v 1.312500 0.687500 2.937500
v 1.312500 0.312500 3.000000
v 1.312500 0.687500 3.000000
vn -1.0000 -0.0000 -0.0000
vn -0.0000 -0.0000 -1.0000
vn 1.0000 -0.0000 -0.0000
vn -0.0000 -1.0000 -0.0000
vn -0.0000 1.0000 -0.0000
vn -0.0000 -0.0000 1.0000
vn -0.0000 0.7071 -0.7071
vn -0.7071 0.7071 -0.0000
vt 0.773438 0.718750
vt 0.781250 0.812500
vt 0.773438 0.812500
vt 0.734375 0.718750
vt 0.781250 0.718750
vt 0.742188 0.812500
vt 0.742188 0.718750
vt 0.734375 0.734375
vt 0.781250 0.734375
vt 0.734375 0.812500
vt 0.781250 0.796875
vt 1.000000 0.812500
vt 0.875000 0.656250
vt 1.000000 0.656250
vt 0.898438 0.812500
vt 0.890625 0.656250
vt 0.898438 0.656250
vt 0.882812 0.812500
vt 0.882812 0.656250
vt 0.984375 0.968750
vt 0.976562 0.812500
vt 0.984375 0.812500
vt 1.000000 0.968750
vt 0.992188 0.968750
vt 0.992188 0.812500
vt 0.187500 0.062500
vt 0.375000 0.187500
vt 0.187500 0.187500
vt 0.312500 0.187500
vt 0.375000 0.062500
vt 0.250000 0.187500
vt 0.265625 0.187500
vt 0.218750 0.125000
vt 0.265625 0.125000
vt 0.375000 0.125000
vt 0.343750 0.125000
vt 0.187500 0.125000
vt 0.218750 0.093750
vt 0.375000 0.093750
vt 0.343750 0.093750
vt 0.265625 0.093750
vt 1.000000 0.984375
vt 0.953125 1.000000
vt 0.953125 0.984375
vt 1.000000 1.000000
vt 0.992188 1.000000
vt 0.875000 0.984375
vt 0.875000 1.000000
vt 0.906250 0.984375
vt 0.906250 1.000000
vt 0.328125 0.437500
vt 0.375000 0.250000
vt 0.375000 0.437500
vt 0.125000 0.375000
vt -0.000000 0.281250
vt 0.125000 0.281250
vt 0.328125 0.250000
vt 0.250000 0.343750
vt 0.375000 0.343750
vt 0.250000 0.437500
vt 0.835938 0.984375
vt 0.835938 1.000000
vt 0.835938 0.968750
vt 0.312500 0.312500
vt 0.375000 0.312500
vt 0.250000 0.312500
vt 0.312500 0.250000
vt 0.000000 0.062500
vt 0.187500 0.250000
vt 0.976562 0.968750
vt 1.000000 0.000000
vt 0.000000 1.000000
vt 0.000000 0.000000
vt 0.750000 0.812500
vt 0.632812 0.812500
vt 0.632812 0.968750
vt 0.750000 0.968750
vt 0.625000 0.968750
vt 0.625000 1.000000
vt 0.750000 1.000000
vt 0.375000 0.500000
vt 0.000000 0.500000
vt -0.000000 0.375000
vt 0.250000 0.375000
vt 0.000000 0.437500
vt 0.937500 1.000000
vt 0.937500 0.984375
vt 0.812500 0.984375
vt 0.812500 1.000000
vt 0.968750 0.984375
vt 0.968750 1.000000
vt 0.820312 0.718750
vt 0.828125 0.812500
vt 0.820312 0.812500
vt 0.828125 0.718750
vt 0.789062 0.812500
vt 0.789062 0.718750
vt 0.828125 0.734375
vt 0.828125 0.796875
vt 0.867188 0.718750
vt 0.875000 0.812500
vt 0.867188 0.812500
vt 0.875000 0.718750
vt 0.835938 0.812500
vt 0.835938 0.718750
vt 0.875000 0.734375
vt 0.875000 0.796875
vt 0.734375 0.796875
vt 0.890625 0.812500
vt 0.218750 0.187500
vt 0.187500 0.093750
vt 0.992188 0.984375
vt 0.250000 0.250000
vt 0.000000 0.187500
vt 0.375000 1.000000
s 0
usemtl None
f 2/1/1 3/2/1 1/3/1
f 4/2/2 7/4/2 3/5/2
f 8/6/3 5/4/3 7/7/3
f 7/8/4 1/5/4 3/9/4
f 4/10/5 6/11/5 8/2/5
f 10/12/1 11/13/1 9/14/1
f 12/15/2 15/16/2 11/17/2
f 14/18/6 9/13/6 13/19/6
f 20/20/2 23/21/2 19/22/2
f 24/23/3 21/21/3 23/12/3
f 22/24/6 17/12/6 21/25/6
f 28/20/2 31/21/2 27/22/2
f 32/23/3 29/21/3 31/12/3
f 30/23/6 25/25/6 29/12/6
f 34/26/7 38/27/7 35/28/7
f 33/27/1 34/29/1 35/30/1
f 36/28/3 38/26/3 37/31/3
f 42/32/8 40/33/8 39/34/8
f 39/27/6 41/35/6 42/36/6
f 43/37/2 40/28/2 44/33/2
f 48/37/2 51/38/2 47/33/2
f 50/39/6 45/36/6 49/40/6
f 48/33/5 50/41/5 52/34/5
f 54/42/1 55/43/1 53/44/1
f 56/42/2 59/43/2 55/44/2
f 60/43/3 57/42/3 59/45/3
f 58/43/6 53/42/6 57/45/6
f 56/42/5 58/46/5 60/45/5
f 66/45/6 61/47/6 65/42/6
f 67/42/4 61/48/4 63/47/4
f 64/48/5 66/42/5 68/45/5
f 70/49/1 71/45/1 69/50/1
f 75/49/4 69/45/4 71/50/4
f 72/49/5 74/45/5 76/50/5
f 78/51/1 79/52/1 77/53/1
f 80/54/2 83/55/2 79/56/2
f 84/52/3 81/51/3 83/57/3
f 82/53/6 77/58/6 81/59/6
f 80/60/5 82/52/5 84/53/5
f 86/61/1 87/45/1 85/62/1
f 92/45/3 89/61/3 91/42/3
f 88/63/5 90/45/5 92/62/5
f 94/64/1 95/52/1 93/65/1
f 100/66/3 97/67/3 99/64/3
f 98/28/6 93/68/6 97/26/6
f 96/69/5 98/27/5 100/52/5
f 102/23/6 103/21/6 101/12/6
f 104/23/1 107/21/1 103/12/1
f 108/23/2 105/21/2 107/12/2
f 106/23/3 101/21/3 105/12/3
f 110/23/6 111/21/6 109/12/6
f 112/23/1 115/21/1 111/12/1
f 116/70/2 113/22/2 115/21/2
f 114/23/3 109/21/3 113/12/3
f 118/12/6 119/24/6 117/25/6
f 120/23/1 123/25/1 119/12/1
f 124/23/2 121/21/2 123/12/2
f 122/23/3 117/21/3 121/12/3
f 123/71/4 117/72/4 119/73/4
f 120/71/5 122/72/5 124/73/5
f 126/23/6 127/21/6 125/12/6
f 128/23/1 131/21/1 127/12/1
f 132/23/2 129/21/2 131/12/2
f 130/23/3 125/25/3 129/12/3
f 134/70/6 135/74/6 133/21/6
f 136/75/1 139/24/1 135/76/1
f 140/74/2 137/70/2 139/77/2
f 138/24/3 133/75/3 137/25/3
f 142/45/6 143/77/6 141/23/6
f 144/78/1 147/45/1 143/79/1
f 148/77/2 145/45/2 147/80/2
f 146/45/3 141/78/3 145/23/3
f 147/81/4 141/72/4 143/82/4
f 144/81/5 146/72/5 148/82/5
f 150/60/6 151/83/6 149/84/6
f 152/81/1 155/85/1 151/53/1
f 156/60/2 153/83/2 155/84/2
f 154/81/3 149/85/3 153/53/3
f 155/81/4 149/72/4 151/82/4
f 152/81/5 154/72/5 156/82/5
f 158/42/1 159/43/1 157/44/1
f 160/42/2 163/43/2 159/44/2
f 164/43/3 161/42/3 163/45/3
f 162/43/6 157/42/6 161/45/6
f 160/42/5 162/46/5 164/45/5
f 166/42/1 167/43/1 165/44/1
f 168/42/2 171/43/2 167/44/2
f 172/43/3 169/42/3 171/45/3
f 170/43/6 165/42/6 169/45/6
f 168/42/5 170/46/5 172/45/5
f 174/42/1 175/43/1 173/44/1
f 176/42/2 179/43/2 175/44/2
f 180/43/3 177/42/3 179/45/3
f 178/43/6 173/42/6 177/45/6
f 176/42/5 178/46/5 180/45/5
f 182/49/1 183/45/1 181/50/1
f 187/49/4 181/45/4 183/50/4
f 184/49/5 186/45/5 188/50/5
f 190/49/3 191/45/3 189/50/3
f 196/42/4 193/48/4 194/47/4
f 201/45/2 197/47/2 200/42/2
f 202/45/6 198/47/6 201/42/6
f 204/48/5 205/42/5 206/45/5
f 208/61/1 209/45/1 207/62/1
f 214/45/3 211/61/3 213/42/3
f 210/63/5 212/45/5 214/62/5
f 216/86/1 217/42/1 215/45/1
f 218/42/2 221/86/2 217/87/2
f 222/86/3 219/42/3 221/45/3
f 220/86/6 215/42/6 219/45/6
f 218/46/5 220/42/5 222/45/5
f 224/86/1 225/42/1 223/45/1
f 226/42/2 229/86/2 225/87/2
f 230/86/3 227/42/3 229/45/3
f 228/86/6 223/42/6 227/45/6
f 226/46/5 228/42/5 230/45/5
f 232/86/1 233/42/1 231/45/1
f 234/42/2 237/86/2 233/87/2
f 238/86/3 235/42/3 237/45/3
f 236/86/6 231/42/6 235/45/6
f 234/46/5 236/42/5 238/45/5
f 240/86/1 241/42/1 239/45/1
f 242/42/2 245/86/2 241/87/2
f 246/86/3 243/42/3 245/45/3
f 244/86/6 239/42/6 243/45/6
f 242/46/5 244/42/5 246/45/5
f 252/45/6 247/88/6 251/42/6
f 253/42/4 247/89/4 249/88/4
f 250/89/5 252/42/5 254/45/5
f 260/45/2 255/88/2 259/42/2
f 257/88/2 259/45/5 255/89/5
f 262/45/2 256/88/5 260/42/5
f 264/89/5 265/42/5 266/45/5
f 268/90/1 269/45/1 267/91/1
f 273/42/4 267/91/4 269/90/4
f 270/91/5 272/42/5 274/45/5
f 281/42/4 275/91/4 277/90/4
f 278/91/5 280/42/5 282/45/5
f 284/90/3 285/45/3 283/91/3
f 288/92/3 289/93/3 287/94/3
f 290/93/6 293/5/6 289/95/6
f 294/96/1 291/5/1 293/97/1
f 293/9/4 287/95/4 289/98/4
f 290/2/5 292/99/5 294/93/5
f 296/100/3 297/101/3 295/102/3
f 298/101/6 301/95/6 297/103/6
f 302/104/1 299/95/1 301/105/1
f 301/98/4 295/103/4 297/106/4
f 298/93/5 300/107/5 302/101/5
f 2/1/1 4/5/1 3/2/1
f 4/2/2 8/10/2 7/4/2
f 8/6/3 6/10/3 5/4/3
f 7/8/4 5/4/4 1/5/4
f 4/10/5 2/108/5 6/11/5
f 10/12/1 12/101/1 11/13/1
f 12/15/2 16/109/2 15/16/2
f 14/18/6 10/101/6 9/13/6
f 20/20/2 24/70/2 23/21/2
f 24/23/3 22/70/3 21/21/3
f 22/24/6 18/23/6 17/12/6
f 28/20/2 32/70/2 31/21/2
f 32/23/3 30/70/3 29/21/3
f 30/23/6 26/24/6 25/25/6
f 34/26/7 37/30/7 38/27/7
f 42/32/8 44/110/8 40/33/8
f 48/37/2 52/111/2 51/38/2
f 50/39/6 46/35/6 45/36/6
f 48/33/5 46/38/5 50/41/5
f 54/42/1 56/45/1 55/43/1
f 56/42/2 60/45/2 59/43/2
f 60/43/3 58/44/3 57/42/3
f 58/43/6 54/44/6 53/42/6
f 56/42/5 54/112/5 58/46/5
f 66/45/6 62/48/6 61/47/6
f 67/42/4 65/45/4 61/48/4
f 64/48/5 62/47/5 66/42/5
f 70/49/1 72/42/1 71/45/1
f 75/49/4 73/42/4 69/45/4
f 72/49/5 70/42/5 74/45/5
f 78/51/1 80/57/1 79/52/1
f 80/54/2 84/83/2 83/55/2
f 84/52/3 82/53/3 81/51/3
f 82/53/6 78/60/6 77/58/6
f 80/60/5 78/113/5 82/52/5
f 86/61/1 88/42/1 87/45/1
f 92/45/3 90/62/3 89/61/3
f 88/63/5 86/23/5 90/45/5
f 94/64/1 96/67/1 95/52/1
f 100/66/3 98/113/3 97/67/3
f 98/28/6 94/114/6 93/68/6
f 96/69/5 94/28/5 98/27/5
f 102/23/6 104/70/6 103/21/6
f 104/23/1 108/70/1 107/21/1
f 108/23/2 106/70/2 105/21/2
f 106/23/3 102/70/3 101/21/3
f 110/23/6 112/70/6 111/21/6
f 112/23/1 116/70/1 115/21/1
f 116/70/2 114/20/2 113/22/2
f 114/23/3 110/70/3 109/21/3
f 118/12/6 120/23/6 119/24/6
f 120/23/1 124/24/1 123/25/1
f 124/23/2 122/70/2 121/21/2
f 122/23/3 118/70/3 117/21/3
f 123/71/4 121/45/4 117/72/4
f 120/71/5 118/45/5 122/72/5
f 126/23/6 128/70/6 127/21/6
f 128/23/1 132/70/1 131/21/1
f 132/23/2 130/70/2 129/21/2
f 130/23/3 126/24/3 125/25/3
f 134/70/6 136/77/6 135/74/6
f 136/75/1 140/25/1 139/24/1
f 140/74/2 138/21/2 137/70/2
f 138/24/3 134/76/3 133/75/3
f 142/45/6 144/80/6 143/77/6
f 144/78/1 148/23/1 147/45/1
f 148/77/2 146/23/2 145/45/2
f 146/45/3 142/79/3 141/78/3
f 147/81/4 145/115/4 141/72/4
f 144/81/5 142/115/5 146/72/5
f 150/60/6 152/85/6 151/83/6
f 152/81/1 156/82/1 155/85/1
f 156/60/2 154/85/2 153/83/2
f 154/81/3 150/82/3 149/85/3
f 155/81/4 153/115/4 149/72/4
f 152/81/5 150/115/5 154/72/5
f 158/42/1 160/45/1 159/43/1
f 160/42/2 164/45/2 163/43/2
f 164/43/3 162/44/3 161/42/3
f 162/43/6 158/44/6 157/42/6
f 160/42/5 158/112/5 162/46/5
f 166/42/1 168/45/1 167/43/1
f 168/42/2 172/45/2 171/43/2
f 172/43/3 170/44/3 169/42/3
f 170/43/6 166/44/6 165/42/6
f 168/42/5 166/112/5 170/46/5
f 174/42/1 176/45/1 175/43/1
f 176/42/2 180/45/2 179/43/2
f 180/43/3 178/44/3 177/42/3
f 178/43/6 174/44/6 173/42/6
f 176/42/5 174/112/5 178/46/5
f 182/49/1 184/42/1 183/45/1
f 187/49/4 185/42/4 181/45/4
f 184/49/5 182/42/5 186/45/5
f 190/49/3 192/42/3 191/45/3
f 196/42/4 195/45/4 193/48/4
f 201/45/2 198/48/2 197/47/2
f 202/45/6 199/48/6 198/47/6
f 204/48/5 203/47/5 205/42/5
f 208/61/1 210/42/1 209/45/1
f 214/45/3 212/62/3 211/61/3
f 210/63/5 208/23/5 212/45/5
f 216/86/1 218/87/1 217/42/1
f 218/42/2 222/45/2 221/86/2
f 222/86/3 220/87/3 219/42/3
f 220/86/6 216/87/6 215/42/6
f 218/46/5 216/112/5 220/42/5
f 224/86/1 226/87/1 225/42/1
f 226/42/2 230/45/2 229/86/2
f 230/86/3 228/87/3 227/42/3
f 228/86/6 224/87/6 223/42/6
f 226/46/5 224/112/5 228/42/5
f 232/86/1 234/87/1 233/42/1
f 234/42/2 238/45/2 237/86/2
f 238/86/3 236/87/3 235/42/3
f 236/86/6 232/87/6 231/42/6
f 234/46/5 232/112/5 236/42/5
f 240/86/1 242/87/1 241/42/1
f 242/42/2 246/45/2 245/86/2
f 246/86/3 244/87/3 243/42/3
f 244/86/6 240/87/6 239/42/6
f 242/46/5 240/112/5 244/42/5
f 252/45/6 248/89/6 247/88/6
f 253/42/4 251/45/4 247/89/4
f 250/89/5 248/88/5 252/42/5
f 260/45/2 256/89/2 255/88/2
f 257/88/4 261/42/4 259/45/2
f 262/45/4 258/89/4 256/88/2
f 264/89/5 263/88/5 265/42/5
f 268/90/1 270/42/1 269/45/1
f 273/42/4 271/45/4 267/91/4
f 270/91/5 268/90/5 272/42/5
f 281/42/4 279/45/4 275/91/4
f 278/91/5 276/90/5 280/42/5
f 284/90/3 286/42/3 285/45/3
f 288/92/3 290/95/3 289/93/3
f 290/93/6 294/2/6 293/5/6
f 294/96/1 292/2/1 291/5/1
f 293/9/4 291/5/4 287/95/4
f 290/2/5 288/11/5 292/99/5
f 296/100/3 298/103/3 297/101/3
f 298/101/6 302/93/6 301/95/6
f 302/104/1 300/93/1 299/95/1
f 301/98/4 299/95/4 295/103/4
f 298/93/5 296/99/5 300/107/5
g Saw_Mesh
v 1.011500 1.183394 1.971596
v 1.011500 1.176035 1.924984
v 0.988500 1.176035 1.924984
v 0.988500 1.365516 1.150095
v 1.011500 1.365516 1.150095
v 1.011500 1.325269 1.174731
v 1.011500 0.575015 1.323966
v 1.011500 0.494120 1.488962
v 0.988500 0.494120 1.488962
v 1.011500 0.988962 2.005879
v 1.011500 1.000000 1.960000
v 0.988500 1.000000 1.960000
v 1.011500 1.471596 1.316606
v 1.011500 1.424984 1.323966
v 0.988500 1.424984 1.323966
v 1.011500 0.674731 1.174731
v 1.011500 0.536852 1.296210
v 0.988500 0.536852 1.296210
v 1.011500 0.796210 1.963148
v 1.011500 0.823966 1.924985
v 0.988500 0.823966 1.924985
v 1.011500 0.823966 1.075016
v 1.011500 0.650094 1.134484
v 0.988500 0.650094 1.134484
v 1.011500 1.424985 1.676034
v 1.011500 1.505879 1.511038
v 0.988500 1.505879 1.511038
v 1.011500 0.634484 1.849906
v 1.011500 0.674731 1.825269
v 0.988500 0.674731 1.825269
v 1.011500 1.000000 1.040000
v 1.011500 0.816606 1.028404
v 0.988500 0.816606 1.028404
v 1.011500 1.325269 1.825269
v 1.011500 1.463148 1.703789
v 0.988500 1.463148 1.703789
v 1.011500 0.528404 1.683394
v 1.011500 0.575015 1.676035
v 0.988500 0.575015 1.676035
v 1.011500 1.176034 1.075016
v 1.011500 1.011038 0.994121
v 0.988500 1.011038 0.994121
v 1.011500 1.349906 1.865516
v 0.988500 1.349906 1.865516
v 1.011500 1.203790 1.036852
v 0.988500 1.203790 1.036852
v 1.011500 0.540000 1.500000
v 0.988500 0.540000 1.500000
v 0.988500 1.183394 1.971596
v 0.988500 0.575015 1.323966
v 0.988500 0.988962 2.005879
v 1.011500 1.460000 1.500000
v 0.988500 1.471596 1.316606
v 0.988500 0.674731 1.174731
v 0.988500 1.460000 1.500000
v 0.988500 0.796210 1.963148
v 0.988500 0.823966 1.075016
v 0.988500 1.424985 1.676034
v 0.988500 0.634484 1.849906
v 0.988500 1.000000 1.040000
v 0.988500 1.325269 1.825269
v 0.988500 1.176034 1.075016
v 0.988500 1.325269 1.174731
v 0.988500 0.528404 1.683394
vn -0.0000 0.9878 -0.1559
vn -0.0000 -0.5221 -0.8529
vn -0.0000 -0.8979 -0.4402
vn -0.0000 0.9723 0.2339
vn -0.0000 -0.1560 -0.9878
vn -0.0000 -0.6611 -0.7503
vn -0.0000 0.8087 0.5882
vn -0.0000 -0.3236 -0.9462
vn -0.0000 0.8979 0.4402
vn -0.0000 0.5221 0.8529
vn -0.0000 0.0631 -0.9980
vn -0.0000 0.6611 0.7503
vn -0.0000 0.1559 0.9878
vn -0.0000 0.4402 -0.8979
vn -0.0000 0.3236 0.9462
vn -0.0000 0.7503 -0.6611
vn -0.0000 -0.2339 0.9723
vn -0.0000 -0.0631 0.9980
vn -0.0000 0.9462 -0.3236
vn -0.0000 -0.5882 0.8087
vn -0.0000 -0.4402 0.8979
vn -0.0000 0.9980 0.0631
vn -0.0000 -0.8529 0.5221
vn -0.0000 0.2339 -0.9723
vn -0.0000 -0.7503 0.6611
vn -0.0000 -0.9878 0.1560
vn -0.0000 0.5882 -0.8087
vn -0.0000 -0.9462 0.3236
vn -0.0000 -0.9723 -0.2339
vn -0.0000 0.8529 -0.5221
vn -0.0000 -0.9980 -0.0631
vn -0.0000 -0.8087 -0.5882
vn 1.0000 -0.0000 -0.0000
vn -1.0000 -0.0000 -0.0000
vt 0.867188 0.453125
vt 0.867188 0.468750
vt 0.859375 0.468750
vt 0.859375 0.203125
vt 0.867188 0.203125
vt 0.867188 0.328125
vt 0.867188 0.343750
vt 0.859375 0.343750
vt 0.867188 0.437500
vt 0.859375 0.437500
vt 0.867188 0.171875
vt 0.867188 0.187500
vt 0.859375 0.187500
vt 0.867188 0.296875
vt 0.867188 0.312500
vt 0.859375 0.312500
vt 0.867188 0.406250
vt 0.867188 0.421875
vt 0.859375 0.421875
vt 0.867188 0.281250
vt 0.859375 0.296875
vt 0.867188 0.140625
vt 0.867188 0.156250
vt 0.859375 0.156250
vt 0.867188 0.390625
vt 0.859375 0.390625
vt 0.867188 0.250000
vt 0.867188 0.265625
vt 0.859375 0.265625
vt 0.867188 0.484375
vt 0.867188 0.500000
vt 0.859375 0.500000
vt 0.867188 0.359375
vt 0.867188 0.375000
vt 0.859375 0.375000
vt 0.867188 0.234375
vt 0.859375 0.250000
vt 0.859375 0.484375
vt 0.867188 0.218750
vt 0.859375 0.218750
vt 0.859375 0.453125
vt 0.859375 0.328125
vt 0.859375 0.171875
vt 0.859375 0.406250
vt 0.859375 0.281250
vt 0.867188 0.125000
vt 0.859375 0.140625
vt 0.859375 0.234375
vt 0.968750 0.625000
vt 0.921875 0.640625
vt 0.898438 0.421875
vt 0.945312 0.140625
vt 0.875000 0.234375
vt 0.921875 0.375000
vt 0.859375 0.359375
vt 0.859375 0.125000
vt 0.890625 0.406250
vt 0.921875 0.406250
vt 0.921875 0.390625
vt 0.945312 0.406250
vt 0.945312 0.390625
vt 0.968750 0.421875
vt 0.968750 0.406250
vt 0.984375 0.453125
vt 0.992188 0.453125
vt 0.992188 0.500000
vt 1.000000 0.500000
vt 0.992188 0.546875
vt 1.000000 0.546875
vt 0.984375 0.593750
vt 0.992188 0.593750
vt 0.968750 0.640625
vt 0.945312 0.640625
vt 0.945312 0.656250
vt 0.921875 0.656250
vt 0.898438 0.625000
vt 0.890625 0.640625
vt 0.882812 0.593750
vt 0.875000 0.593750
vt 0.875000 0.546875
vt 0.867188 0.546875
vt 0.875000 0.500000
vt 0.882812 0.453125
vt 0.875000 0.453125
vt 0.945312 0.375000
vt 0.968750 0.375000
vt 0.968750 0.359375
vt 0.992188 0.328125
vt 0.984375 0.328125
vt 1.000000 0.281250
vt 0.992188 0.281250
vt 1.000000 0.234375
vt 0.992188 0.234375
vt 0.992188 0.187500
vt 0.984375 0.187500
vt 0.968750 0.140625
vt 0.968750 0.156250
vt 0.945312 0.125000
vt 0.921875 0.125000
vt 0.921875 0.140625
vt 0.890625 0.140625
vt 0.898438 0.156250
vt 0.875000 0.187500
vt 0.882812 0.187500
vt 0.875000 0.281250
vt 0.875000 0.328125
vt 0.882812 0.328125
vt 0.890625 0.375000
vt 0.898438 0.359375
s 1
usemtl None
f 303/116/9 304/117/9 305/118/9
f 306/119/10 307/120/10 308/120/10
f 309/121/11 310/122/11 311/123/11
f 312/124/12 313/124/12 314/125/12
f 315/126/13 316/127/13 317/128/13
f 318/129/14 319/130/14 320/131/14
f 321/132/15 322/133/15 323/134/15
f 324/135/16 325/129/16 326/136/16
f 327/137/17 328/138/17 329/139/17
f 330/140/18 331/140/18 332/141/18
f 333/142/19 334/143/19 335/144/19
f 336/145/20 337/146/20 338/147/20
f 339/148/21 340/149/21 341/150/21
f 342/151/22 343/142/22 344/152/22
f 304/117/23 345/145/23 346/153/23
f 308/120/24 347/154/24 348/155/24
f 310/122/25 349/122/25 350/123/25
f 313/124/26 303/116/26 351/156/26
f 316/127/27 307/120/27 306/119/27
f 319/130/28 309/121/28 352/157/28
f 322/133/29 312/124/29 353/125/29
f 354/138/30 315/126/30 355/158/30
f 325/129/31 318/129/31 356/136/31
f 328/138/32 354/138/32 357/139/32
f 331/140/33 321/132/33 358/159/33
f 334/143/34 324/135/34 359/160/34
f 337/161/35 327/137/35 360/162/35
f 340/149/36 330/140/36 361/141/36
f 343/142/37 333/142/37 362/152/37
f 345/145/38 336/145/38 363/153/38
f 350/123/39 349/122/39 339/148/39
f 347/154/40 342/151/40 364/163/40
f 331/164/41 349/165/41 308/166/41
f 352/167/42 323/168/42 360/169/42
f 351/156/9 303/116/9 305/118/9
f 365/119/10 306/119/10 308/120/10
f 352/157/11 309/121/11 311/123/11
f 353/125/12 312/124/12 314/125/12
f 355/158/13 315/126/13 317/128/13
f 356/136/14 318/129/14 320/131/14
f 358/159/15 321/132/15 323/134/15
f 359/160/16 324/135/16 326/136/16
f 360/162/17 327/137/17 329/139/17
f 361/141/18 330/140/18 332/141/18
f 362/152/19 333/142/19 335/144/19
f 363/153/20 336/145/20 338/147/20
f 366/170/21 339/148/21 341/150/21
f 364/163/22 342/151/22 344/152/22
f 305/118/23 304/117/23 346/153/23
f 365/119/24 308/120/24 348/155/24
f 311/123/25 310/122/25 350/123/25
f 314/125/26 313/124/26 351/156/26
f 317/128/27 316/127/27 306/119/27
f 320/131/28 319/130/28 352/157/28
f 323/134/29 322/133/29 353/125/29
f 357/139/30 354/138/30 355/158/30
f 326/136/31 325/129/31 356/136/31
f 329/139/32 328/138/32 357/139/32
f 332/141/33 331/140/33 358/159/33
f 335/144/34 334/143/34 359/160/34
f 338/171/35 337/161/35 360/162/35
f 341/150/36 340/149/36 361/141/36
f 344/152/37 343/142/37 362/152/37
f 346/153/38 345/145/38 363/153/38
f 366/170/39 350/123/39 339/148/39
f 348/155/40 347/154/40 364/163/40
f 308/166/41 307/172/41 316/173/41
f 316/173/41 315/174/41 354/175/41
f 354/175/41 328/176/41 327/177/41
f 327/177/41 337/178/41 336/179/41
f 336/179/41 345/180/41 304/181/41
f 304/181/41 303/182/41 313/183/41
f 313/183/41 312/184/41 322/185/41
f 322/185/41 321/186/41 331/164/41
f 331/164/41 330/187/41 340/188/41
f 340/188/41 339/189/41 349/165/41
f 349/165/41 310/190/41 309/191/41
f 309/191/41 319/192/41 318/193/41
f 318/193/41 325/194/41 324/195/41
f 324/195/41 334/196/41 333/197/41
f 333/197/41 343/146/41 342/198/41
f 342/198/41 347/199/41 308/166/41
f 308/166/41 316/173/41 354/175/41
f 354/175/41 327/177/41 336/179/41
f 336/179/41 304/181/41 313/183/41
f 313/183/41 322/185/41 331/164/41
f 331/164/41 340/188/41 349/165/41
f 349/165/41 309/191/41 318/193/41
f 308/166/41 324/195/41 333/197/41
f 333/197/41 342/198/41 308/166/41
f 308/166/41 354/175/41 336/179/41
f 308/166/41 313/183/41 331/164/41
f 308/166/41 349/165/41 318/193/41
f 318/193/41 324/195/41 308/166/41
f 308/166/41 336/179/41 313/183/41
f 360/169/42 329/176/42 357/200/42
f 357/200/42 355/201/42 317/202/42
f 317/202/42 306/203/42 365/204/42
f 365/204/42 348/205/42 364/206/42
f 364/206/42 344/207/42 362/208/42
f 362/208/42 335/209/42 359/210/42
f 359/210/42 326/211/42 356/212/42
f 356/212/42 320/213/42 352/167/42
f 352/167/42 311/214/42 350/215/42
f 350/215/42 366/216/42 341/217/42
f 341/217/42 361/218/42 332/219/42
f 332/219/42 358/151/42 323/168/42
f 323/168/42 353/135/42 314/220/42
f 314/220/42 351/221/42 305/222/42
f 305/222/42 346/223/42 363/224/42
f 363/224/42 338/174/42 360/169/42
f 364/206/42 357/200/42 317/202/42
f 317/202/42 365/204/42 364/206/42
f 364/206/42 362/208/42 359/210/42
f 359/210/42 356/212/42 352/167/42
f 352/167/42 350/215/42 341/217/42
f 341/217/42 332/219/42 323/168/42
f 360/169/42 314/220/42 305/222/42
f 305/222/42 363/224/42 360/169/42
f 360/169/42 357/200/42 364/206/42
f 364/206/42 359/210/42 352/167/42
f 352/167/42 341/217/42 323/168/42
f 323/168/42 314/220/42 360/169/42
f 360/169/42 364/206/42 352/167/42
