# Blender 4.2.3 LTS
# www.blender.org
mtllib electrolyzer_multiblock.mtl
g Hull_Mesh
v 1.812500 1.250000 -0.375000
v 1.812500 1.375000 -0.375000
v 1.562500 1.250000 -0.375000
v 1.562500 1.375000 -0.375000
v 1.812500 1.250000 -0.625000
v 1.812500 1.375000 -0.625000
v 1.562500 1.250000 -0.625000
v 1.562500 1.375000 -0.625000
v 1.437500 0.875000 -0.375000
v 1.437500 1.000000 -0.375000
v 1.187500 0.875000 -0.375000
v 1.187500 1.000000 -0.375000
v 1.437500 0.875000 -0.625000
v 1.437500 1.000000 -0.625000
v 1.187500 0.875000 -0.625000
v 1.187500 1.000000 -0.625000
v 1.437500 1.000000 0.062500
v 1.437500 1.250000 0.062500
v 1.187500 1.000000 0.062500
v 1.187500 1.250000 0.062500
v 1.437500 1.000000 -0.625000
v 1.437500 1.250000 -0.625000
v 1.187500 1.000000 -0.625000
v 1.187500 1.250000 -0.625000
v 1.812500 1.000000 0.062500
v 1.812500 1.250000 0.062500
v 1.562500 1.000000 0.062500
v 1.562500 1.250000 0.062500
v 1.812500 1.000000 -0.625000
v 1.812500 1.250000 -0.625000
v 1.562500 1.000000 -0.625000
v 1.562500 1.250000 -0.625000
v 1.875000 1.250000 -0.875000
v 1.875000 1.375000 -0.875000
v 1.125000 1.250000 -0.875000
v 1.125000 1.375000 -0.875000
v 1.875000 1.250000 -1.000000
v 1.875000 1.375000 -1.000000
v 1.125000 1.250000 -1.000000
v 1.125000 1.375000 -1.000000
v 1.875000 1.375000 1.937500
v 1.125000 1.375000 1.937500
v 1.875000 1.375000 1.062500
v 1.125000 1.375000 1.062500
v 1.875000 1.375000 -0.062500
v 1.875000 2.000000 -0.062500
v 1.125000 1.375000 -0.062500
v 1.125000 2.000000 -0.062500
v 1.875000 1.375000 -0.937500
v 1.875000 2.000000 -0.937500
v 1.125000 1.375000 -0.937500
v 1.125000 2.000000 -0.937500
v 1.125000 0.250000 -0.875000
v 1.125000 2.000000 -0.875000
v 1.000000 0.250000 -0.875000
v 1.000000 2.000000 -0.875000
v 1.125000 0.250000 -1.000000
v 1.125000 2.000000 -1.000000
v 1.000000 0.250000 -1.000000
v 1.000000 2.000000 -1.000000
v 1.937500 0.250000 0.937500
v 1.937500 1.375000 0.937500
v 1.062500 0.250000 0.937500
v 1.062500 1.375000 0.937500
v 1.937500 0.250000 0.062500
v 1.937500 1.375000 0.062500
v 1.062500 0.250000 0.062500
v 1.062500 1.375000 0.062500
v 0.187500 0.250000 -0.812500
v 0.187500 0.875000 -0.812500
v 0.000000 0.250000 -0.812500
v 0.000000 0.875000 -0.812500
v 0.187500 0.250000 -1.000000
v 0.187500 0.875000 -1.000000
v 0.000000 0.250000 -1.000000
v 0.000000 0.875000 -1.000000
v 1.000000 0.875000 2.000000
v 1.000000 1.000000 2.000000
v 0.000000 0.875000 2.000000
v 0.000000 1.000000 2.000000
v 1.000000 0.875000 -1.000000
v 1.000000 1.000000 -1.000000
v 0.000000 0.875000 -1.000000
v 0.000000 1.000000 -1.000000
v 0.937500 0.250000 1.937500
v 0.937500 0.875000 1.937500
v 0.062500 0.250000 1.937500
v 0.062500 0.875000 1.937500
v 0.937500 0.250000 -0.937500
v 0.937500 0.875000 -0.937500
v 0.062500 0.250000 -0.937500
v 0.062500 0.875000 -0.937500
v 2.000000 0.000000 2.000000
v 2.000000 0.250000 2.000000
v 0.000000 0.000000 2.000000
v 0.000000 0.250000 2.000000
v 2.000000 -0.000000 -1.000000
v 2.000000 0.250000 -1.000000
v 0.000000 -0.000000 -1.000000
v 0.000000 0.250000 -1.000000
v 0.000000 0.875000 2.000000
v 0.000000 1.000000 2.000000
v 0.000000 0.875000 -1.000000
v 0.000000 1.000000 -1.000000
v 1.000000 0.250000 -0.812500
v 1.000000 0.875000 -0.812500
v 0.812500 0.250000 -0.812500
v 0.812500 0.875000 -0.812500
v 1.000000 0.250000 -1.000000
v 1.000000 0.875000 -1.000000
v 0.812500 0.250000 -1.000000
v 0.812500 0.875000 -1.000000
v 0.187500 0.250000 2.000000
v 0.187500 0.875000 2.000000
v 0.000000 0.250000 2.000000
v 0.000000 0.875000 2.000000
v 0.187500 0.250000 1.812500
v 0.187500 0.875000 1.812500
v 0.000000 0.250000 1.812500
v 0.000000 0.875000 1.812500
v 1.000000 0.250000 2.000000
v 1.000000 0.875000 2.000000
v 0.812500 0.250000 2.000000
v 0.812500 0.875000 2.000000
v 1.000000 0.250000 1.812500
v 1.000000 0.875000 1.812500
v 0.812500 0.250000 1.812500
v 0.812500 0.875000 1.812500
v 1.875000 0.250000 -0.062500
v 1.875000 0.875000 -0.062500
v 1.125000 0.250000 -0.062500
v 1.125000 0.875000 -0.062500
v 1.875000 0.250000 -0.937500
v 1.875000 0.875000 -0.937500
v 1.125000 0.250000 -0.937500
v 1.125000 0.875000 -0.937500
v 1.875000 1.375000 1.937500
v 1.875000 2.000000 1.937500
v 1.125000 1.375000 1.937500
v 1.125000 2.000000 1.937500
v 1.875000 1.375000 1.062500
v 1.875000 2.000000 1.062500
v 1.125000 1.375000 1.062500
v 1.125000 2.000000 1.062500
v 1.875000 0.250000 1.937500
v 1.875000 0.875000 1.937500
v 1.125000 0.250000 1.937500
v 1.125000 0.875000 1.937500
v 1.875000 0.250000 1.062500
v 1.875000 0.875000 1.062500
v 1.125000 0.250000 1.062500
v 1.125000 0.875000 1.062500
v 2.000000 0.250000 -0.875000
v 2.000000 2.000000 -0.875000
v 1.875000 0.250000 -0.875000
v 1.875000 2.000000 -0.875000
v 2.000000 0.250000 -1.000000
v 2.000000 2.000000 -1.000000
v 1.875000 0.250000 -1.000000
v 1.875000 2.000000 -1.000000
v 1.125000 0.250000 -0.000000
v 1.125000 2.000000 -0.000000
v 1.000000 0.250000 -0.000000
v 1.000000 2.000000 -0.000000
v 1.125000 0.250000 -0.125000
v 1.125000 2.000000 -0.125000
v 1.000000 0.250000 -0.125000
v 1.000000 2.000000 -0.125000
v 2.000000 0.250000 -0.000000
v 2.000000 2.000000 -0.000000
v 1.875000 0.250000 -0.000000
v 1.875000 2.000000 -0.000000
v 2.000000 0.250000 -0.125000
v 2.000000 2.000000 -0.125000
v 1.875000 0.250000 -0.125000
v 1.875000 2.000000 -0.125000
v 1.125000 0.250000 1.125000
v 1.125000 2.000000 1.125000
v 1.000000 0.250000 1.125000
v 1.000000 2.000000 1.125000
v 1.125000 0.250000 1.000000
v 1.125000 2.000000 1.000000
v 1.000000 0.250000 1.000000
v 1.000000 2.000000 1.000000
v 2.000000 0.250000 1.125000
v 2.000000 2.000000 1.125000
v 1.875000 0.250000 1.125000
v 1.875000 2.000000 1.125000
v 2.000000 0.250000 1.000000
v 2.000000 2.000000 1.000000
v 1.875000 0.250000 1.000000
v 1.875000 2.000000 1.000000
v 1.125000 0.250000 2.000000
v 1.125000 2.000000 2.000000
v 1.000000 0.250000 2.000000
v 1.000000 2.000000 2.000000
v 1.125000 0.250000 1.875000
v 1.125000 2.000000 1.875000
v 1.000000 0.250000 1.875000
v 1.000000 2.000000 1.875000
v 2.000000 0.250000 2.000000
v 2.000000 2.000000 2.000000
v 1.875000 0.250000 2.000000
v 1.875000 2.000000 2.000000
v 2.000000 0.250000 1.875000
v 2.000000 2.000000 1.875000
v 1.875000 0.250000 1.875000
v 1.875000 2.000000 1.875000
v 1.812500 1.250000 1.625000
v 1.812500 1.375000 1.625000
v 1.562500 1.250000 1.625000
v 1.562500 1.375000 1.625000
v 1.812500 1.250000 1.375000
v 1.812500 1.375000 1.375000
v 1.562500 1.250000 1.375000
v 1.562500 1.375000 1.375000
v 1.437500 0.875000 1.625000
v 1.437500 1.000000 1.625000
v 1.187500 0.875000 1.625000
v 1.187500 1.000000 1.625000
v 1.437500 0.875000 1.375000
v 1.437500 1.000000 1.375000
v 1.187500 0.875000 1.375000
v 1.187500 1.000000 1.375000
v 1.562500 1.000000 0.937500
v 1.562500 1.250000 0.937500
v 1.812500 1.000000 0.937500
v 1.812500 1.250000 0.937500
v 1.562500 1.000000 1.625000
v 1.562500 1.250000 1.625000
v 1.812500 1.000000 1.625000
v 1.812500 1.250000 1.625000
v 1.187500 1.000000 0.937500
v 1.187500 1.250000 0.937500
v 1.437500 1.000000 0.937500
v 1.437500 1.250000 0.937500
v 1.187500 1.000000 1.625000
v 1.187500 1.250000 1.625000
v 1.437500 1.000000 1.625000
v 1.437500 1.250000 1.625000
v 1.875000 0.875000 -0.875000
v 1.875000 1.000000 -0.875000
v 1.125000 0.875000 -0.875000
v 1.125000 1.000000 -0.875000
v 1.875000 0.875000 -1.000000
v 1.875000 1.000000 -1.000000
v 1.125000 0.875000 -1.000000
v 1.125000 1.000000 -1.000000
v 1.875000 1.250000 -0.000000
v 1.875000 1.375000 -0.000000
v 1.125000 1.250000 -0.000000
v 1.125000 1.375000 -0.000000
v 1.875000 1.250000 -0.125000
v 1.875000 1.375000 -0.125000
v 1.125000 1.250000 -0.125000
v 1.125000 1.375000 -0.125000
v 1.875000 0.875000 -0.000000
v 1.875000 1.000000 -0.000000
v 1.125000 0.875000 -0.000000
v 1.125000 1.000000 -0.000000
v 1.875000 0.875000 -0.125000
v 1.875000 1.000000 -0.125000
v 1.125000 0.875000 -0.125000
v 1.125000 1.000000 -0.125000
v 1.875000 1.250000 1.125000
v 1.875000 1.375000 1.125000
v 1.125000 1.250000 1.125000
v 1.125000 1.375000 1.125000
v 1.875000 1.250000 1.000000
v 1.875000 1.375000 1.000000
v 1.125000 1.250000 1.000000
v 1.125000 1.375000 1.000000
v 1.875000 0.875000 1.125000
v 1.875000 1.000000 1.125000
v 1.125000 0.875000 1.125000
v 1.125000 1.000000 1.125000
v 1.875000 0.875000 1.000000
v 1.875000 1.000000 1.000000
v 1.125000 0.875000 1.000000
v 1.125000 1.000000 1.000000
v 1.875000 1.250000 2.000000
v 1.875000 1.375000 2.000000
v 1.125000 1.250000 2.000000
v 1.125000 1.375000 2.000000
v 1.875000 1.250000 1.875000
v 1.875000 1.375000 1.875000
v 1.125000 1.250000 1.875000
v 1.125000 1.375000 1.875000
v 1.875000 0.875000 2.000000
v 1.875000 1.000000 2.000000
v 1.125000 0.875000 2.000000
v 1.125000 1.000000 2.000000
v 1.875000 0.875000 1.875000
v 1.875000 1.000000 1.875000
v 1.125000 0.875000 1.875000
v 1.125000 1.000000 1.875000
v 1.687500 1.500000 -0.937500
v 1.687500 1.875000 -0.937500
v 1.312500 1.500000 -0.937500
v 1.312500 1.875000 -0.937500
v 1.687500 1.500000 -1.000000
v 1.687500 1.875000 -1.000000
v 1.312500 1.500000 -1.000000
v 1.312500 1.875000 -1.000000
v 1.312500 1.500000 1.937500
v 1.312500 1.875000 1.937500
v 1.687500 1.500000 1.937500
v 1.687500 1.875000 1.937500
v 1.312500 1.500000 2.000000
v 1.312500 1.875000 2.000000
v 1.687500 1.500000 2.000000
v 1.687500 1.875000 2.000000
v 0.687500 0.312500 -0.937500
v 0.687500 0.687500 -0.937500
v 0.312500 0.312500 -0.937500
v 0.312500 0.687500 -0.937500
v 0.687500 0.312500 -1.000000
v 0.687500 0.687500 -1.000000
v 0.312500 0.312500 -1.000000
v 0.312500 0.687500 -1.000000
v 0.312500 0.312500 1.937500
v 0.312500 0.687500 1.937500
v 0.687500 0.312500 1.937500
v 0.687500 0.687500 1.937500
v 0.312500 0.312500 2.000000
v 0.312500 0.687500 2.000000
v 0.687500 0.312500 2.000000
v 0.687500 0.687500 2.000000
v 0.062500 0.250000 1.000000
v 0.062500 0.875000 1.000000
v 0.000000 0.250000 1.000000
v 0.000000 0.875000 1.000000
v 0.062500 0.250000 -0.000000
v 0.062500 0.875000 -0.000000
v 0.000000 0.250000 -0.000000
v 0.000000 0.875000 -0.000000
v 2.000000 0.312500 0.687500
v 2.000000 0.687500 0.687500
v 1.937500 0.312500 0.687500
v 1.937500 0.687500 0.687500
v 2.000000 0.312500 0.312500
v 2.000000 0.687500 0.312500
v 1.937500 0.312500 0.312500
v 1.937500 0.687500 0.312500
v 1.687500 1.437500 0.437500
v 1.312500 1.437500 0.437500
v 1.687500 1.437500 0.062500
v 1.312500 1.437500 0.062500
v 1.687500 1.375000 0.937500
v 1.687500 1.437500 0.937500
v 1.312500 1.375000 0.937500
v 1.312500 1.437500 0.937500
v 1.687500 1.375000 0.562500
v 1.687500 1.437500 0.562500
v 1.312500 1.375000 0.562500
v 1.312500 1.437500 0.562500
v 1.687500 1.375000 0.437500
v 1.687500 1.437500 0.437500
v 1.312500 1.375000 0.437500
v 1.312500 1.437500 0.437500
v 1.687500 1.375000 0.062500
v 1.687500 1.437500 0.062500
v 1.312500 1.375000 0.062500
v 1.312500 1.437500 0.062500
v 1.687500 1.375000 0.437500
v 1.687500 1.437500 0.437500
v 1.312500 1.375000 0.437500
v 1.312500 1.437500 0.437500
vn -0.0000 -0.0000 1.0000
vn -1.0000 -0.0000 -0.0000
vn -0.0000 -0.0000 -1.0000
vn 1.0000 -0.0000 -0.0000
vn -0.0000 -1.0000 -0.0000
vn -0.0000 1.0000 -0.0000
vt 0.390625 0.187500
vt 0.375000 0.250000
vt 0.375000 0.187500
vt 0.390625 0.125000
vt 0.421875 0.187500
vt 0.406250 0.125000
vt 0.421875 0.125000
vt 0.460938 0.312500
vt 0.445312 0.375000
vt 0.445312 0.312500
vt 0.460938 0.375000
vt 0.375000 0.312500
vt 0.460938 0.250000
vt 0.375000 0.375000
vt 0.406250 0.312500
vt 0.406250 0.375000
vt 0.375000 0.125000
vt 0.460938 0.187500
vt 0.406250 0.187500
vt 0.460938 0.125000
vt 0.906250 0.968750
vt 1.000000 1.000000
vt 0.906250 1.000000
vt 0.914062 0.968750
vt 1.000000 0.968750
vt 0.484375 0.593750
vt 0.375000 0.781250
vt 0.375000 0.593750
vt 0.734375 0.812500
vt 0.640625 0.656250
vt 0.734375 0.656250
vt 0.593750 0.843750
vt 0.484375 0.687500
vt 0.593750 0.687500
vt 0.484375 0.781250
vt 0.781250 1.000000
vt 0.781250 0.968750
vt 0.984375 0.968750
vt 0.515625 0.375000
vt 0.484375 1.000000
vt 0.648438 0.968750
vt 0.625000 0.812500
vt 0.648438 0.812500
vt 0.875000 0.968750
vt 0.875000 1.000000
vt 0.625000 0.968750
vt 0.000000 0.375000
vt 0.000000 0.125000
vt 0.867188 0.812500
vt 0.976562 0.968750
vt 0.867188 0.968750
vt 0.632812 0.812500
vt 0.992188 0.968750
vt 0.632812 0.968750
vt 0.976562 0.812500
vt 0.992188 0.812500
vt 0.250000 0.437500
vt 0.250000 0.375000
vt 0.375000 0.500000
vt 0.000000 0.437500
vt 0.375000 0.437500
vt 0.000000 1.000000
vt 0.000000 0.500000
vt 0.375000 1.000000
vt 0.406250 0.250000
vt 0.875000 0.812500
vt 0.867188 0.718750
vt 0.875000 0.718750
vt 0.828882 0.718713
vt 0.782007 0.624963
vt 0.828882 0.624963
vt 0.835938 0.812500
vt 0.828125 0.718750
vt 0.835938 0.718750
vt 0.875000 0.734375
vt 0.828125 0.796875
vt 0.875000 0.796875
vt 0.820312 0.625000
vt 0.828125 0.625000
vt 0.874631 0.813312
vt 0.827756 0.719562
vt 0.874631 0.719562
vt 0.789062 0.718750
vt 0.781250 0.625000
vt 0.789062 0.625000
vt 0.828125 0.640625
vt 0.781250 0.703125
vt 0.828125 0.703125
vt 0.874631 0.814087
vt 0.827756 0.720337
vt 0.874631 0.720337
vt 1.000000 0.812500
vt 0.992188 0.656250
vt 1.000000 0.656250
vt 0.875000 0.656250
vt 0.882812 0.812500
vt 0.882812 0.656250
vt 0.742188 0.718750
vt 0.734375 0.625000
vt 0.742188 0.625000
vt 0.000000 0.000000
vt 0.781250 0.718750
vt 0.773438 0.625000
vt 0.734375 0.640625
vt 0.734375 0.718750
vt 0.875000 0.625000
vt 0.875000 0.640625
vt 0.835938 0.625000
vt 0.875000 0.703125
vt 0.390625 0.250000
vt 0.914062 1.000000
vt 0.640625 0.812500
vt 0.484375 0.843750
vt 0.984375 1.000000
vt 0.515625 0.593750
vt 0.625000 1.000000
vt 0.782007 0.718713
vt 0.828125 0.812500
vt 0.828125 0.734375
vt 0.820312 0.718750
vt 0.827756 0.813312
vt 0.781250 0.640625
vt 0.827756 0.814087
vt 0.773438 0.718750
vt 0.734375 0.703125
vt 0.867188 0.625000
s 0
usemtl None
f 2/1/1 3/2/1 1/3/1
f 4/1/2 7/2/2 3/3/2
f 8/3/3 5/4/3 7/1/3
f 5/5/4 2/6/4 1/7/4
f 10/8/1 11/9/1 9/10/1
f 12/8/2 15/9/2 11/10/2
f 16/9/3 13/8/3 15/11/3
f 13/11/4 10/10/4 9/8/4
f 20/12/2 23/13/2 19/2/2
f 24/14/3 21/15/3 23/16/3
f 21/13/4 18/12/4 17/2/4
f 23/8/5 17/14/5 19/12/5
f 20/14/6 22/8/6 24/11/6
f 28/17/2 31/18/2 27/3/2
f 32/3/3 29/6/3 31/19/3
f 30/20/4 25/3/4 29/18/4
f 31/18/5 25/2/5 27/3/5
f 28/2/6 30/18/6 32/13/6
f 34/21/1 35/22/1 33/23/1
f 40/22/3 37/24/3 39/25/3
f 39/22/5 33/21/5 35/25/5
f 36/22/6 38/21/6 40/25/6
f 44/26/5 41/27/5 42/28/5
f 46/29/1 47/30/1 45/31/1
f 48/32/2 51/33/2 47/34/2
f 52/29/3 49/30/3 51/31/3
f 50/32/4 45/33/4 49/34/4
f 51/26/5 45/27/5 47/28/5
f 48/27/6 50/26/6 52/35/6
f 54/25/1 55/36/1 53/37/1
f 56/36/2 59/25/2 55/22/2
f 60/25/3 57/36/3 59/37/3
f 58/36/4 53/25/4 57/22/4
f 56/22/6 58/38/6 60/25/6
f 62/39/1 63/28/1 61/14/1
f 64/39/2 67/28/2 63/14/2
f 68/39/3 65/28/3 67/14/3
f 66/39/4 61/28/4 65/14/4
f 64/40/6 66/27/6 68/35/6
f 70/41/1 71/42/1 69/43/1
f 72/41/2 75/42/2 71/43/2
f 76/41/3 73/42/3 75/43/3
f 74/41/4 69/42/4 73/43/4
f 78/44/1 79/22/1 77/45/1
f 84/22/3 81/44/3 83/25/3
f 82/22/4 77/46/4 81/25/4
f 83/17/5 77/47/5 79/48/5
f 84/48/6 78/14/6 82/47/6
f 86/49/1 87/50/1 85/51/1
f 88/52/2 91/53/2 87/54/2
f 92/50/3 89/49/3 91/55/3
f 89/56/4 86/54/4 85/52/4
f 94/57/1 95/47/1 93/58/1
f 96/59/2 99/60/2 95/61/2
f 100/57/3 97/47/3 99/58/3
f 98/59/4 93/60/4 97/61/4
f 99/59/5 93/62/5 95/63/5
f 96/62/6 98/59/6 100/64/6
f 102/22/2 103/46/2 101/25/2
f 106/41/1 107/42/1 105/43/1
f 108/41/2 111/42/2 107/43/2
f 112/41/3 109/42/3 111/43/3
f 110/41/4 105/42/4 109/43/4
f 114/41/1 115/42/1 113/43/1
f 116/41/2 119/42/2 115/43/2
f 120/41/3 117/42/3 119/43/3
f 118/41/4 113/42/4 117/43/4
f 122/41/1 123/42/1 121/43/1
f 124/41/2 127/42/2 123/43/2
f 128/41/3 125/42/3 127/43/3
f 126/41/4 121/42/4 125/43/4
f 130/29/1 131/30/1 129/31/1
f 132/32/2 135/33/2 131/34/2
f 136/29/3 133/30/3 135/31/3
f 134/32/4 129/33/4 133/34/4
f 132/27/6 134/26/6 136/35/6
f 138/29/1 139/30/1 137/31/1
f 140/32/2 143/33/2 139/34/2
f 144/29/3 141/30/3 143/31/3
f 142/32/4 137/33/4 141/34/4
f 140/27/6 142/26/6 144/35/6
f 146/29/1 147/30/1 145/31/1
f 148/32/2 151/33/2 147/34/2
f 152/29/3 149/30/3 151/31/3
f 150/32/4 145/33/4 149/34/4
f 148/27/6 150/26/6 152/35/6
f 154/25/1 155/36/1 153/37/1
f 156/36/2 159/25/2 155/22/2
f 160/25/3 157/36/3 159/37/3
f 158/36/4 153/25/4 157/22/4
f 156/22/6 158/38/6 160/25/6
f 162/25/1 163/36/1 161/37/1
f 164/36/2 167/25/2 163/22/2
f 168/25/3 165/36/3 167/37/3
f 166/36/4 161/25/4 165/22/4
f 164/22/6 166/38/6 168/25/6
f 170/25/1 171/36/1 169/37/1
f 172/36/2 175/25/2 171/22/2
f 176/25/3 173/36/3 175/37/3
f 174/36/4 169/25/4 173/22/4
f 172/22/6 174/38/6 176/25/6
f 178/25/1 179/36/1 177/37/1
f 180/36/2 183/25/2 179/22/2
f 184/25/3 181/36/3 183/37/3
f 182/36/4 177/25/4 181/22/4
f 180/22/6 182/38/6 184/25/6
f 186/25/1 187/36/1 185/37/1
f 188/36/2 191/25/2 187/22/2
f 192/25/3 189/36/3 191/37/3
f 190/36/4 185/25/4 189/22/4
f 188/22/6 190/38/6 192/25/6
f 194/25/1 195/36/1 193/37/1
f 196/36/2 199/25/2 195/22/2
f 200/25/3 197/36/3 199/37/3
f 198/36/4 193/25/4 197/22/4
f 196/22/6 198/38/6 200/25/6
f 202/25/1 203/36/1 201/37/1
f 204/36/2 207/25/2 203/22/2
f 208/25/3 205/36/3 207/37/3
f 206/36/4 201/25/4 205/22/4
f 204/22/6 206/38/6 208/25/6
f 210/1/1 211/2/1 209/3/1
f 212/1/2 215/2/2 211/3/2
f 216/3/3 213/4/3 215/1/3
f 214/3/4 209/4/4 213/1/4
f 218/8/1 219/9/1 217/10/1
f 220/8/2 223/9/2 219/10/2
f 224/9/3 221/8/3 223/11/3
f 222/9/4 217/8/4 221/11/4
f 228/17/4 231/18/4 227/3/4
f 232/2/1 229/19/1 231/65/1
f 229/18/2 226/17/2 225/3/2
f 231/18/5 225/2/5 227/3/5
f 228/2/6 230/18/6 232/13/6
f 236/12/4 239/13/4 235/2/4
f 240/12/1 237/65/1 239/15/1
f 238/8/2 233/2/2 237/13/2
f 235/12/5 237/11/5 233/14/5
f 236/14/6 238/8/6 240/11/6
f 242/21/1 243/22/1 241/23/1
f 248/22/3 245/24/3 247/25/3
f 247/22/5 241/21/5 243/25/5
f 244/22/6 246/21/6 248/25/6
f 250/21/1 251/22/1 249/23/1
f 256/22/3 253/24/3 255/25/3
f 255/22/5 249/21/5 251/25/5
f 252/22/6 254/21/6 256/25/6
f 258/21/1 259/22/1 257/23/1
f 264/22/3 261/24/3 263/25/3
f 263/22/5 257/21/5 259/25/5
f 260/22/6 262/21/6 264/25/6
f 266/21/1 267/22/1 265/23/1
f 272/22/3 269/24/3 271/25/3
f 271/22/5 265/21/5 267/25/5
f 268/22/6 270/21/6 272/25/6
f 274/21/1 275/22/1 273/23/1
f 280/22/3 277/24/3 279/25/3
f 279/22/5 273/21/5 275/25/5
f 276/22/6 278/21/6 280/25/6
f 282/21/1 283/22/1 281/23/1
f 288/22/3 285/24/3 287/25/3
f 287/22/5 281/21/5 283/25/5
f 284/22/6 286/21/6 288/25/6
f 290/21/1 291/22/1 289/23/1
f 296/22/3 293/24/3 295/25/3
f 292/22/6 294/21/6 296/25/6
f 300/66/2 303/67/2 299/68/2
f 304/69/3 301/70/3 303/71/3
f 302/72/4 297/73/4 301/74/4
f 303/75/5 297/73/5 299/68/5
f 300/66/6 302/76/6 304/77/6
f 308/66/4 311/67/4 307/68/4
f 312/69/1 309/70/1 311/71/1
f 310/72/2 305/73/2 309/74/2
f 311/75/5 305/73/5 307/68/5
f 308/66/6 310/76/6 312/77/6
f 316/73/2 319/78/2 315/79/2
f 320/80/3 317/81/3 319/82/3
f 318/83/4 313/84/4 317/85/4
f 319/86/5 313/84/5 315/79/5
f 316/73/6 318/87/6 320/88/6
f 324/73/4 327/78/4 323/79/4
f 328/89/1 325/90/1 327/91/1
f 326/83/2 321/84/2 325/85/2
f 327/86/5 321/84/5 323/79/5
f 324/73/6 326/87/6 328/88/6
f 330/92/1 331/93/1 329/94/1
f 332/92/2 335/95/2 331/94/2
f 336/96/3 333/95/3 335/97/3
f 338/98/1 339/99/1 337/100/1
f 340/101/2 343/101/2 339/101/2
f 344/102/3 341/103/3 343/84/3
f 342/102/4 337/99/4 341/84/4
f 343/84/5 337/104/5 339/99/5
f 340/105/6 342/87/6 344/102/6
f 346/106/6 347/73/6 348/79/6
f 350/67/1 351/106/1 349/68/1
f 352/107/2 355/79/2 351/106/2
f 356/108/3 353/73/3 355/79/3
f 353/73/4 350/109/4 349/68/4
f 352/106/6 354/73/6 356/79/6
f 360/107/2 363/79/2 359/106/2
f 364/108/3 361/73/3 363/79/3
f 361/73/4 358/109/4 357/68/4
f 366/67/1 367/106/1 365/68/1
f 2/1/1 4/110/1 3/2/1
f 4/1/2 8/110/2 7/2/2
f 8/3/3 6/17/3 5/4/3
f 5/5/4 6/19/4 2/6/4
f 10/8/1 12/11/1 11/9/1
f 12/8/2 16/11/2 15/9/2
f 16/9/3 14/10/3 13/8/3
f 13/11/4 14/9/4 10/10/4
f 20/12/2 24/8/2 23/13/2
f 24/14/3 22/12/3 21/15/3
f 21/13/4 22/8/4 18/12/4
f 23/8/5 21/11/5 17/14/5
f 20/14/6 18/12/6 22/8/6
f 28/17/2 32/20/2 31/18/2
f 32/3/3 30/17/3 29/6/3
f 30/20/4 26/17/4 25/3/4
f 31/18/5 29/13/5 25/2/5
f 28/2/6 26/3/6 30/18/6
f 34/21/1 36/25/1 35/22/1
f 40/22/3 38/111/3 37/24/3
f 39/22/5 37/23/5 33/21/5
f 36/22/6 34/23/6 38/21/6
f 44/26/5 43/35/5 41/27/5
f 46/29/1 48/112/1 47/30/1
f 48/32/2 52/113/2 51/33/2
f 52/29/3 50/112/3 49/30/3
f 50/32/4 46/113/4 45/33/4
f 51/26/5 49/35/5 45/27/5
f 48/27/6 46/28/6 50/26/6
f 54/25/1 56/22/1 55/36/1
f 56/36/2 60/37/2 59/25/2
f 60/25/3 58/22/3 57/36/3
f 58/36/4 54/37/4 53/25/4
f 56/22/6 54/114/6 58/38/6
f 62/39/1 64/115/1 63/28/1
f 64/39/2 68/115/2 67/28/2
f 68/39/3 66/115/3 65/28/3
f 66/39/4 62/115/4 61/28/4
f 64/40/6 62/64/6 66/27/6
f 70/41/1 72/46/1 71/42/1
f 72/41/2 76/46/2 75/42/2
f 76/41/3 74/46/3 73/42/3
f 74/41/4 70/46/4 69/42/4
f 78/44/1 80/25/1 79/22/1
f 84/22/3 82/45/3 81/44/3
f 82/22/4 78/116/4 77/46/4
f 83/17/5 81/14/5 77/47/5
f 84/48/6 80/17/6 78/14/6
f 86/49/1 88/55/1 87/50/1
f 88/52/2 92/56/2 91/53/2
f 92/50/3 90/51/3 89/49/3
f 89/56/4 90/53/4 86/54/4
f 94/57/1 96/60/1 95/47/1
f 96/59/2 100/63/2 99/60/2
f 100/57/3 98/60/3 97/47/3
f 98/59/4 94/63/4 93/60/4
f 99/59/5 97/64/5 93/62/5
f 96/62/6 94/63/6 98/59/6
f 102/22/2 104/116/2 103/46/2
f 106/41/1 108/46/1 107/42/1
f 108/41/2 112/46/2 111/42/2
f 112/41/3 110/46/3 109/42/3
f 110/41/4 106/46/4 105/42/4
f 114/41/1 116/46/1 115/42/1
f 116/41/2 120/46/2 119/42/2
f 120/41/3 118/46/3 117/42/3
f 118/41/4 114/46/4 113/42/4
f 122/41/1 124/46/1 123/42/1
f 124/41/2 128/46/2 127/42/2
f 128/41/3 126/46/3 125/42/3
f 126/41/4 122/46/4 121/42/4
f 130/29/1 132/112/1 131/30/1
f 132/32/2 136/113/2 135/33/2
f 136/29/3 134/112/3 133/30/3
f 134/32/4 130/113/4 129/33/4
f 132/27/6 130/28/6 134/26/6
f 138/29/1 140/112/1 139/30/1
f 140/32/2 144/113/2 143/33/2
f 144/29/3 142/112/3 141/30/3
f 142/32/4 138/113/4 137/33/4
f 140/27/6 138/28/6 142/26/6
f 146/29/1 148/112/1 147/30/1
f 148/32/2 152/113/2 151/33/2
f 152/29/3 150/112/3 149/30/3
f 150/32/4 146/113/4 145/33/4
f 148/27/6 146/28/6 150/26/6
f 154/25/1 156/22/1 155/36/1
f 156/36/2 160/37/2 159/25/2
f 160/25/3 158/22/3 157/36/3
f 158/36/4 154/37/4 153/25/4
f 156/22/6 154/114/6 158/38/6
f 162/25/1 164/22/1 163/36/1
f 164/36/2 168/37/2 167/25/2
f 168/25/3 166/22/3 165/36/3
f 166/36/4 162/37/4 161/25/4
f 164/22/6 162/114/6 166/38/6
f 170/25/1 172/22/1 171/36/1
f 172/36/2 176/37/2 175/25/2
f 176/25/3 174/22/3 173/36/3
f 174/36/4 170/37/4 169/25/4
f 172/22/6 170/114/6 174/38/6
f 178/25/1 180/22/1 179/36/1
f 180/36/2 184/37/2 183/25/2
f 184/25/3 182/22/3 181/36/3
f 182/36/4 178/37/4 177/25/4
f 180/22/6 178/114/6 182/38/6
f 186/25/1 188/22/1 187/36/1
f 188/36/2 192/37/2 191/25/2
f 192/25/3 190/22/3 189/36/3
f 190/36/4 186/37/4 185/25/4
f 188/22/6 186/114/6 190/38/6
f 194/25/1 196/22/1 195/36/1
f 196/36/2 200/37/2 199/25/2
f 200/25/3 198/22/3 197/36/3
f 198/36/4 194/37/4 193/25/4
f 196/22/6 194/114/6 198/38/6
f 202/25/1 204/22/1 203/36/1
f 204/36/2 208/37/2 207/25/2
f 208/25/3 206/22/3 205/36/3
f 206/36/4 202/37/4 201/25/4
f 204/22/6 202/114/6 206/38/6
f 210/1/1 212/110/1 211/2/1
f 212/1/2 216/110/2 215/2/2
f 216/3/3 214/17/3 213/4/3
f 214/3/4 210/17/4 209/4/4
f 218/8/1 220/11/1 219/9/1
f 220/8/2 224/11/2 223/9/2
f 224/9/3 222/10/3 221/8/3
f 222/9/4 218/10/4 217/8/4
f 228/17/4 232/20/4 231/18/4
f 232/2/1 230/3/1 229/19/1
f 229/18/2 230/20/2 226/17/2
f 231/18/5 229/13/5 225/2/5
f 228/2/6 226/3/6 230/18/6
f 236/12/4 240/8/4 239/13/4
f 240/12/1 238/2/1 237/65/1
f 238/8/2 234/12/2 233/2/2
f 235/12/5 239/8/5 237/11/5
f 236/14/6 234/12/6 238/8/6
f 242/21/1 244/25/1 243/22/1
f 248/22/3 246/111/3 245/24/3
f 247/22/5 245/23/5 241/21/5
f 244/22/6 242/23/6 246/21/6
f 250/21/1 252/25/1 251/22/1
f 256/22/3 254/111/3 253/24/3
f 255/22/5 253/23/5 249/21/5
f 252/22/6 250/23/6 254/21/6
f 258/21/1 260/25/1 259/22/1
f 264/22/3 262/111/3 261/24/3
f 263/22/5 261/23/5 257/21/5
f 260/22/6 258/23/6 262/21/6
f 266/21/1 268/25/1 267/22/1
f 272/22/3 270/111/3 269/24/3
f 271/22/5 269/23/5 265/21/5
f 268/22/6 266/23/6 270/21/6
f 274/21/1 276/25/1 275/22/1
f 280/22/3 278/111/3 277/24/3
f 279/22/5 277/23/5 273/21/5
f 276/22/6 274/23/6 278/21/6
f 282/21/1 284/25/1 283/22/1
f 288/22/3 286/111/3 285/24/3
f 287/22/5 285/23/5 281/21/5
f 284/22/6 282/23/6 286/21/6
f 290/21/1 292/25/1 291/22/1
f 296/22/3 294/111/3 293/24/3
f 292/22/6 290/23/6 294/21/6
f 300/66/2 304/49/2 303/67/2
f 304/69/3 302/117/3 301/70/3
f 302/72/4 298/118/4 297/73/4
f 303/75/5 301/119/5 297/73/5
f 300/66/6 298/118/6 302/76/6
f 308/66/4 312/49/4 311/67/4
f 312/69/1 310/117/1 309/70/1
f 310/72/2 306/118/2 305/73/2
f 311/75/5 309/119/5 305/73/5
f 308/66/6 306/118/6 310/76/6
f 316/73/2 320/120/2 319/78/2
f 320/80/3 318/121/3 317/81/3
f 318/83/4 314/102/4 313/84/4
f 319/86/5 317/122/5 313/84/5
f 316/73/6 314/102/6 318/87/6
f 324/73/4 328/120/4 327/78/4
f 328/89/1 326/123/1 325/90/1
f 326/83/2 322/102/2 321/84/2
f 327/86/5 325/122/5 321/84/5
f 324/73/6 322/102/6 326/87/6
f 330/92/1 332/56/1 331/93/1
f 332/92/2 336/66/2 335/95/2
f 336/96/3 334/66/3 333/95/3
f 338/98/1 340/105/1 339/99/1
f 340/101/2 344/101/2 343/101/2
f 344/102/3 342/124/3 341/103/3
f 342/102/4 338/105/4 337/99/4
f 343/84/5 341/122/5 337/104/5
f 340/105/6 338/125/6 342/87/6
f 346/106/6 345/68/6 347/73/6
f 350/67/1 352/126/1 351/106/1
f 352/107/2 356/86/2 355/79/2
f 356/108/3 354/74/3 353/73/3
f 353/73/4 354/88/4 350/109/4
f 352/106/6 350/68/6 354/73/6
f 360/107/2 364/86/2 363/79/2
f 364/108/3 362/74/3 361/73/3
f 361/73/4 362/88/4 358/109/4
f 366/67/1 368/126/1 367/106/1
