# Blender 4.2.3 LTS
# www.blender.org
mtllib lathe_multiblock.mtl
g Hull_Mesh
v 1.000000 0.875000 1.500000
v 1.000000 1.000000 1.500000
v 1.000000 0.875000 3.000000
v 1.000000 1.000000 3.000000
v 0.000000 0.875000 1.500000
v 0.000000 1.000000 1.500000
v 0.000000 0.875000 3.000000
v 0.000000 1.000000 3.000000
v 0.750000 1.000000 1.500000
v 0.750000 1.500000 1.500000
v 0.750000 1.000000 2.125000
v 0.750000 1.500000 2.125000
v 0.000000 1.000000 1.500000
v 0.000000 1.500000 1.500000
v 0.000000 1.000000 2.125000
v 0.000000 1.500000 2.125000
v 0.750000 1.000000 -1.000000
v 0.750000 1.500000 -1.000000
v 0.750000 1.000000 -0.000000
v 0.750000 1.500000 -0.000000
v 0.000000 1.000000 -0.999999
v 0.000000 1.500000 -0.999999
v 0.000000 1.000000 -0.000000
v 0.000000 1.500000 -0.000000
v 1.000000 -0.000000 -1.000000
v 1.000000 0.250000 -1.000000
v 1.000000 0.000000 3.000000
v 1.000000 0.250000 3.000000
v 0.000000 -0.000000 -0.999999
v 0.000000 0.250000 -0.999999
v 0.000000 0.000000 3.000000
v 0.000000 0.250000 3.000000
v 0.937500 0.250000 -0.937500
v 0.937500 0.875000 -0.937500
v 0.937500 0.250000 -0.062500
v 0.937500 0.875000 -0.062500
v 0.062500 0.250000 -0.937500
v 0.062500 0.875000 -0.937500
v 0.062500 0.250000 -0.062500
v 0.062500 0.875000 -0.062500
v 0.625000 0.875000 -0.062500
v 0.625000 0.937500 -0.062500
v 0.625000 0.875000 1.562500
v 0.625000 0.937500 1.562500
v 0.562500 0.875000 -0.062500
v 0.562500 0.937500 -0.062500
v 0.562500 0.875000 1.562500
v 0.562500 0.937500 1.562500
v 0.562500 0.687500 -0.062500
v 0.562500 1.000000 -0.062500
v 0.562500 0.687500 1.562500
v 0.562500 1.000000 1.562500
v 0.500000 0.687500 -0.062500
v 0.500000 1.000000 -0.062500
v 0.500000 0.687500 1.562500
v 0.500000 1.000000 1.562500
v 1.000000 0.250000 1.500000
v 1.000000 0.875000 1.500000
v 1.000000 0.250000 1.687500
v 1.000000 0.875000 1.687500
v 0.812500 0.250000 1.500000
v 0.812500 0.875000 1.500000
v 0.812500 0.250000 1.687500
v 0.812500 0.875000 1.687500
v 0.937500 0.250000 1.562500
v 0.937500 0.875000 1.562500
v 0.937500 0.250000 2.937500
v 0.937500 0.875000 2.937500
v 0.062500 0.250000 1.562500
v 0.062500 0.875000 1.562500
v 0.062500 0.250000 2.937500
v 0.062500 0.875000 2.937500
v 1.000000 0.875000 -1.000000
v 1.000000 1.000000 -1.000000
v 1.000000 0.875000 -0.000000
v 1.000000 1.000000 -0.000000
v 0.000000 0.875000 -1.000000
v 0.000000 1.000000 -1.000000
v 0.000000 0.875000 -0.000000
v 0.000000 1.000000 -0.000000
v 0.000000 1.000000 3.000000
v 0.000000 1.625000 3.000000
v 0.000000 1.000000 2.125000
v 0.000000 1.625000 2.125000
v 0.875000 1.000000 3.000000
v 0.875000 1.625000 3.000000
v 0.875000 1.000000 2.125000
v 0.875000 1.625000 2.125000
v 1.000000 0.250000 2.812500
v 1.000000 0.875000 2.812500
v 1.000000 0.250000 3.000000
v 1.000000 0.875000 3.000000
v 0.812500 0.250000 2.812500
v 0.812500 0.875000 2.812500
v 0.812500 0.250000 3.000000
v 0.812500 0.875000 3.000000
v 0.187500 0.250000 1.500000
v 0.187500 0.875000 1.500000
v 0.187500 0.250000 1.687500
v 0.187500 0.875000 1.687500
v 0.000000 0.250000 1.500000
v 0.000000 0.875000 1.500000
v 0.000000 0.250000 1.687500
v 0.000000 0.875000 1.687500
v 0.187500 0.250000 2.812500
v 0.187500 0.875000 2.812500
v 0.187500 0.250000 3.000000
v 0.187500 0.875000 3.000000
v 0.000000 0.250000 2.812500
v 0.000000 0.875000 2.812500
v 0.000000 0.250000 3.000000
v 0.000000 0.875000 3.000000
v 1.000000 0.250000 -0.187500
v 1.000000 0.875000 -0.187500
v 1.000000 0.250000 -0.000000
v 1.000000 0.875000 -0.000000
v 0.812500 0.250000 -0.187500
v 0.812500 0.875000 -0.187500
v 0.812500 0.250000 -0.000000
v 0.812500 0.875000 -0.000000
v 0.187500 0.250000 -0.187500
v 0.187500 0.875000 -0.187500
v 0.187500 0.250000 -0.000000
v 0.187500 0.875000 -0.000000
v 0.000000 0.250000 -0.187500
v 0.000000 0.875000 -0.187500
v 0.000000 0.250000 -0.000000
v 0.000000 0.875000 -0.000000
v 1.000000 0.250000 -1.000000
v 1.000000 0.875000 -1.000000
v 1.000000 0.250000 -0.812500
v 1.000000 0.875000 -0.812500
v 0.812500 0.250000 -1.000000
v 0.812500 0.875000 -1.000000
v 0.812500 0.250000 -0.812500
v 0.812500 0.875000 -0.812500
v 0.187500 0.250000 -1.000000
v 0.187500 0.875000 -1.000000
v 0.187500 0.250000 -0.812500
v 0.187500 0.875000 -0.812500
v 0.000000 0.250000 -1.000000
v 0.000000 0.875000 -1.000000
v 0.000000 0.250000 -0.812500
v 0.000000 0.875000 -0.812500
v 0.625000 0.750000 -0.062500
v 0.625000 0.812500 -0.062500
v 0.625000 0.750000 1.562500
v 0.625000 0.812500 1.562500
v 0.562500 0.750000 -0.062500
v 0.562500 0.812500 -0.062500
v 0.562500 0.750000 1.562500
v 0.562500 0.812500 1.562500
v 0.125000 0.875000 1.562500
v 0.125000 0.937500 1.562500
v 0.125000 0.875000 -0.062500
v 0.125000 0.937500 -0.062500
v 0.187500 0.875000 1.562500
v 0.187500 0.937500 1.562500
v 0.187500 0.875000 -0.062500
v 0.187500 0.937500 -0.062500
v 0.125000 0.750000 1.562500
v 0.125000 0.812500 1.562500
v 0.125000 0.750000 -0.062500
v 0.125000 0.812500 -0.062500
v 0.187500 0.750000 1.562500
v 0.187500 0.812500 1.562500
v 0.187500 0.750000 -0.062500
v 0.187500 0.812500 -0.062500
v 0.250000 0.687500 -0.062500
v 0.250000 1.000000 -0.062500
v 0.250000 0.687500 1.562500
v 0.250000 1.000000 1.562500
v 0.187500 0.687500 -0.062500
v 0.187500 1.000000 -0.062500
v 0.187500 0.687500 1.562500
v 0.187500 1.000000 1.562500
v 0.312500 0.312500 -0.937500
v 0.312500 0.687500 -0.937500
v 0.312500 0.312500 -1.000000
v 0.312500 0.687500 -1.000000
v 0.687500 0.312500 -0.937500
v 0.687500 0.687500 -0.937500
v 0.687500 0.312500 -1.000000
v 0.687500 0.687500 -1.000000
v 0.687500 0.312500 2.937500
v 0.687500 0.687500 2.937500
v 0.687500 0.312500 3.000000
v 0.687500 0.687500 3.000000
v 0.312500 0.312500 2.937500
v 0.312500 0.687500 2.937500
v 0.312500 0.312500 3.000000
v 0.312500 0.687500 3.000000
v 0.172961 1.096756 -1.005197
v 0.172961 1.396430 -1.005197
v 0.472635 1.096756 -1.005197
v 0.472635 1.396430 -1.005197
vn 1.0000 -0.0000 -0.0000
vn -0.0000 -0.0000 1.0000
vn -1.0000 -0.0000 -0.0000
vn -0.0000 -0.0000 -1.0000
vn -0.0000 -1.0000 -0.0000
vn -0.0000 1.0000 -0.0000
vt 0.312500 0.656250
vt 0.500000 0.687500
vt 0.312500 0.687500
vt 0.437500 0.687500
vt 0.500000 0.656250
vt 0.437500 0.656250
vt -0.000000 0.437500
vt 0.187500 0.687500
vt 0.000000 0.687500
vt 0.984375 0.843750
vt 0.906250 0.718750
vt 0.984375 0.718750
vt 0.906250 0.843750
vt 0.812500 0.718750
vt 0.796875 1.000000
vt 0.890625 0.843750
vt 0.890625 1.000000
vt 1.000000 0.593750
vt 0.875000 0.468750
vt 1.000000 0.468750
vt 0.874064 0.590539
vt 0.753059 0.402645
vt 0.874064 0.402645
vt 0.750000 0.593750
vt 0.875000 0.406250
vt 0.875000 0.593750
vt 0.500000 1.000000
vt 0.000000 0.937500
vt 0.500000 0.937500
vt 0.437500 0.500000
vt 0.312500 0.437500
vt 0.437500 0.437500
vt 0.421875 0.656250
vt 0.312500 0.500000
vt 0.421875 0.500000
vt 0.000000 0.343750
vt 0.203125 0.359375
vt 0.000000 0.359375
vt 0.203125 0.343750
vt 0.203125 0.437500
vt 0.203125 0.375000
vt 0.000000 0.421875
vt 0.203125 0.421875
vt 0.476562 0.500000
vt 0.500000 0.500000
vt 0.484375 0.656250
vt 0.484375 0.500000
vt 0.187500 0.437500
vt 0.687500 0.843750
vt 0.796875 0.843750
vt 1.000000 1.000000
vt 1.000000 0.843750
vt 0.796875 0.625000
vt 0.687500 0.625000
vt -0.000000 0.375000
vt 0.953125 0.703125
vt 0.945312 0.609375
vt 0.953125 0.609375
vt 0.883789 0.703125
vt 0.836914 0.609375
vt 0.883789 0.609375
vt 0.914062 0.703125
vt 0.906250 0.609375
vt 0.914062 0.609375
vt 0.906250 0.625000
vt 0.953125 0.625000
vt 0.953125 0.687500
vt 0.906250 0.703125
vt 0.906250 0.687500
vt 1.000000 0.703125
vt 0.992188 0.609375
vt 1.000000 0.609375
vt 0.960938 0.703125
vt 0.960938 0.609375
vt 1.000000 0.625000
vt 1.000000 0.687500
vt 0.812500 0.843750
vt 0.753059 0.590539
vt 0.750000 0.406250
vt -0.000000 1.000000
vt 0.000082 0.999918
vt 0.476562 0.656250
vt 0.687500 1.000000
vt 0.945312 0.703125
vt 0.836914 0.703125
vt 0.992188 0.703125
vt 0.952691 0.703125
vt 0.905816 0.609375
vt 0.952691 0.609375
vt 0.905816 0.703125
s 0
usemtl Material.001
f 2/1/1 3/2/1 1/3/1
f 4/1/2 7/4/2 3/3/2
f 8/2/3 5/1/3 7/5/3
f 6/4/4 1/1/4 5/6/4
f 7/7/5 1/8/5 3/9/5
f 4/7/6 6/8/6 8/9/6
f 10/10/1 11/11/1 9/12/1
f 16/10/3 13/11/3 15/12/3
f 14/13/4 9/14/4 13/11/4
f 12/15/6 14/16/6 16/17/6
f 18/18/1 19/19/1 17/20/1
f 20/13/2 23/14/2 19/11/2
f 24/18/3 21/19/3 23/20/3
f 22/21/4 17/22/4 21/23/4
f 20/24/6 22/25/6 24/26/6
f 26/27/1 27/28/1 25/29/1
f 28/30/2 31/31/2 27/32/2
f 32/27/3 29/28/3 31/29/3
f 30/30/4 25/31/4 29/32/4
f 31/9/5 25/29/5 27/28/5
f 28/9/6 30/29/6 32/28/6
f 34/33/1 35/34/1 33/35/1
f 36/33/2 39/34/2 35/35/2
f 40/33/3 37/34/3 39/35/3
f 38/33/4 33/34/4 37/35/4
f 42/36/1 43/37/1 41/38/1
f 47/37/5 41/36/5 43/39/5
f 44/37/6 46/36/6 48/39/6
f 50/40/1 51/38/1 49/37/1
f 56/40/3 53/38/3 55/37/3
f 55/41/5 49/38/5 51/37/5
f 52/40/6 54/42/6 56/43/6
f 58/5/1 59/44/1 57/45/1
f 60/5/2 63/44/2 59/45/2
f 64/5/3 61/44/3 63/45/3
f 62/5/4 57/44/4 61/45/4
f 66/46/1 67/34/1 65/47/1
f 68/33/2 71/34/2 67/35/2
f 72/46/3 69/34/3 71/47/3
f 70/33/4 65/34/4 69/35/4
f 74/4/1 75/1/1 73/6/1
f 76/1/2 79/4/2 75/3/2
f 80/4/3 77/1/3 79/6/3
f 78/4/4 73/1/4 77/6/4
f 79/31/5 73/8/5 75/48/5
f 76/48/6 78/3/6 80/8/6
f 82/15/3 83/49/3 81/50/3
f 84/15/4 87/49/4 83/50/4
f 88/51/1 85/16/1 87/52/1
f 86/15/2 81/49/2 85/50/2
f 84/53/6 86/49/6 88/54/6
f 90/5/1 91/44/1 89/45/1
f 92/5/2 95/44/2 91/45/2
f 96/5/3 93/44/3 95/45/3
f 94/5/4 89/44/4 93/45/4
f 98/5/1 99/44/1 97/45/1
f 100/5/2 103/44/2 99/45/2
f 104/5/3 101/44/3 103/45/3
f 102/5/4 97/44/4 101/45/4
f 106/5/1 107/44/1 105/45/1
f 108/5/2 111/44/2 107/45/2
f 112/5/3 109/44/3 111/45/3
f 110/5/4 105/44/4 109/45/4
f 114/5/1 115/44/1 113/45/1
f 116/5/2 119/44/2 115/45/2
f 120/5/3 117/44/3 119/45/3
f 118/5/4 113/44/4 117/45/4
f 122/5/1 123/44/1 121/45/1
f 124/5/2 127/44/2 123/45/2
f 128/5/3 125/44/3 127/45/3
f 126/5/4 121/44/4 125/45/4
f 130/5/1 131/44/1 129/45/1
f 132/5/2 135/44/2 131/45/2
f 136/5/3 133/44/3 135/45/3
f 134/5/4 129/44/4 133/45/4
f 138/5/1 139/44/1 137/45/1
f 140/5/2 143/44/2 139/45/2
f 144/5/3 141/44/3 143/45/3
f 142/5/4 137/44/4 141/45/4
f 146/36/1 147/37/1 145/38/1
f 151/37/5 145/36/5 147/39/5
f 148/37/6 150/36/6 152/39/6
f 154/36/3 155/37/3 153/38/3
f 159/37/5 153/36/5 155/39/5
f 156/37/6 158/36/6 160/39/6
f 162/36/3 163/37/3 161/38/3
f 167/37/5 161/36/5 163/39/5
f 164/37/6 166/36/6 168/39/6
f 170/40/1 171/38/1 169/37/1
f 176/40/3 173/38/3 175/37/3
f 171/37/5 173/55/5 169/38/5
f 172/40/6 174/42/6 176/43/6
f 178/56/3 179/57/3 177/58/3
f 180/59/4 183/60/4 179/61/4
f 184/62/1 181/63/1 183/64/1
f 183/65/5 177/58/5 179/66/5
f 180/67/6 182/68/6 184/69/6
f 186/70/1 187/71/1 185/72/1
f 188/70/2 191/58/2 187/72/2
f 192/73/3 189/58/3 191/74/3
f 191/66/5 185/72/5 187/75/5
f 188/76/6 190/56/6 192/67/6
f 2/1/1 4/5/1 3/2/1
f 4/1/2 8/6/2 7/4/2
f 8/2/3 6/3/3 5/1/3
f 6/4/4 2/3/4 1/1/4
f 7/7/5 5/48/5 1/8/5
f 4/7/6 2/48/6 6/8/6
f 10/10/1 12/13/1 11/11/1
f 16/10/3 14/13/3 13/11/3
f 14/13/4 10/77/4 9/14/4
f 12/15/6 10/50/6 14/16/6
f 18/18/1 20/26/1 19/19/1
f 20/13/2 24/77/2 23/14/2
f 24/18/3 22/26/3 21/19/3
f 22/21/4 18/78/4 17/22/4
f 20/24/6 18/79/6 22/25/6
f 26/27/1 28/80/1 27/28/1
f 28/30/2 32/34/2 31/31/2
f 32/27/3 30/81/3 29/28/3
f 30/30/4 26/34/4 25/31/4
f 31/9/5 29/2/5 25/29/5
f 28/9/6 26/2/6 30/29/6
f 34/33/1 36/1/1 35/34/1
f 36/33/2 40/1/2 39/34/2
f 40/33/3 38/1/3 37/34/3
f 38/33/4 34/1/4 33/34/4
f 42/36/1 44/39/1 43/37/1
f 47/37/5 45/38/5 41/36/5
f 44/37/6 42/38/6 46/36/6
f 50/40/1 52/7/1 51/38/1
f 56/40/3 54/7/3 53/38/3
f 55/41/5 53/55/5 49/38/5
f 52/40/6 50/7/6 54/42/6
f 58/5/1 60/82/1 59/44/1
f 60/5/2 64/82/2 63/44/2
f 64/5/3 62/82/3 61/44/3
f 62/5/4 58/82/4 57/44/4
f 66/46/1 68/1/1 67/34/1
f 68/33/2 72/1/2 71/34/2
f 72/46/3 70/1/3 69/34/3
f 70/33/4 66/1/4 65/34/4
f 74/4/1 76/3/1 75/1/1
f 76/1/2 80/6/2 79/4/2
f 80/4/3 78/3/3 77/1/3
f 78/4/4 74/3/4 73/1/4
f 79/31/5 77/3/5 73/8/5
f 76/48/6 74/31/6 78/3/6
f 82/15/3 84/83/3 83/49/3
f 84/15/4 88/83/4 87/49/4
f 88/51/1 86/17/1 85/16/1
f 86/15/2 82/83/2 81/49/2
f 84/53/6 82/50/6 86/49/6
f 90/5/1 92/82/1 91/44/1
f 92/5/2 96/82/2 95/44/2
f 96/5/3 94/82/3 93/44/3
f 94/5/4 90/82/4 89/44/4
f 98/5/1 100/82/1 99/44/1
f 100/5/2 104/82/2 103/44/2
f 104/5/3 102/82/3 101/44/3
f 102/5/4 98/82/4 97/44/4
f 106/5/1 108/82/1 107/44/1
f 108/5/2 112/82/2 111/44/2
f 112/5/3 110/82/3 109/44/3
f 110/5/4 106/82/4 105/44/4
f 114/5/1 116/82/1 115/44/1
f 116/5/2 120/82/2 119/44/2
f 120/5/3 118/82/3 117/44/3
f 118/5/4 114/82/4 113/44/4
f 122/5/1 124/82/1 123/44/1
f 124/5/2 128/82/2 127/44/2
f 128/5/3 126/82/3 125/44/3
f 126/5/4 122/82/4 121/44/4
f 130/5/1 132/82/1 131/44/1
f 132/5/2 136/82/2 135/44/2
f 136/5/3 134/82/3 133/44/3
f 134/5/4 130/82/4 129/44/4
f 138/5/1 140/82/1 139/44/1
f 140/5/2 144/82/2 143/44/2
f 144/5/3 142/82/3 141/44/3
f 142/5/4 138/82/4 137/44/4
f 146/36/1 148/39/1 147/37/1
f 151/37/5 149/38/5 145/36/5
f 148/37/6 146/38/6 150/36/6
f 154/36/3 156/39/3 155/37/3
f 159/37/5 157/38/5 153/36/5
f 156/37/6 154/38/6 158/36/6
f 162/36/3 164/39/3 163/37/3
f 167/37/5 165/38/5 161/36/5
f 164/37/6 162/38/6 166/36/6
f 170/40/1 172/7/1 171/38/1
f 176/40/3 174/7/3 173/38/3
f 171/37/5 175/41/5 173/55/5
f 172/40/6 170/7/6 174/42/6
f 178/56/3 180/84/3 179/57/3
f 180/59/4 184/85/4 183/60/4
f 184/62/1 182/68/1 181/63/1
f 183/65/5 181/63/5 177/58/5
f 180/67/6 178/56/6 182/68/6
f 186/70/1 188/86/1 187/71/1
f 188/70/2 192/56/2 191/58/2
f 192/73/3 190/56/3 189/58/3
f 191/66/5 189/58/5 185/72/5
f 188/76/6 186/70/6 190/56/6
f 194/87/4 195/88/4 193/89/4
f 194/87/4 196/90/4 195/88/4
g Rod_Mesh
v -0.022423 0.054134 1.500000
v -0.022423 0.054134 -0.000000
v -0.054134 0.022423 1.500000
v -0.054134 0.022423 -0.000000
v -0.054134 -0.022423 1.500000
v -0.054134 -0.022423 0.000000
v -0.022423 -0.054134 1.500000
v -0.022423 -0.054134 0.000000
v 0.022423 -0.054133 1.500000
v 0.022423 -0.054134 0.000000
v 0.054134 -0.022423 1.500000
v 0.054133 -0.022423 0.000000
v 0.054134 0.022423 1.500000
v 0.054133 0.022423 -0.000000
v 0.022423 0.054134 1.500000
v 0.022423 0.054134 -0.000000
vn -0.7071 0.7071 -0.0000
vn -1.0000 -0.0000 -0.0000
vn -0.7071 -0.7071 -0.0000
vn -0.0000 -1.0000 -0.0000
vn 0.7071 -0.7071 -0.0000
vn 1.0000 -0.0000 -0.0000
vn -0.0000 -0.0000 -1.0000
vn 0.7071 0.7071 -0.0000
vn -0.0000 1.0000 -0.0000
vn -0.0000 -0.0000 1.0000
vt -0.000615 0.848123
vt 0.499361 0.816656
vt 0.499385 0.846554
vt -0.000558 0.920302
vt 0.499425 0.897592
vt 0.499441 0.918732
vt -0.000574 0.899161
vt 0.499401 0.867694
vt -0.000638 0.818226
vt 0.499345 0.795515
vt -0.000655 0.797085
vt 0.499321 0.765618
vt -0.000678 0.767188
vt 0.499305 0.744478
vt 0.339671 0.630442
vt 0.322112 0.615381
vt 0.329385 0.579020
vt -0.000695 0.746047
vt 0.499281 0.714580
vt -0.000598 0.869264
vt 0.329365 0.575277
vt 0.322062 0.561981
vt 0.346994 0.543178
vt 0.322062 0.543178
vt 0.329365 0.529882
vt 0.339692 0.529882
vt 0.346994 0.561981
vt 0.339692 0.575277
vt -0.000638 0.818226
vt -0.000678 0.767188
vt 0.339671 0.579020
vt 0.346944 0.594081
vt 0.346944 0.615381
vt 0.329385 0.630442
vt 0.322112 0.594081
vt -0.000718 0.716150
s 0
usemtl Material.002
f 198/91/7 199/92/7 197/93/7
f 200/94/8 201/95/8 199/96/8
f 202/97/9 203/98/9 201/95/9
f 204/99/10 205/100/10 203/92/10
f 206/101/11 207/102/11 205/100/11
f 208/103/12 209/104/12 207/102/12
f 210/105/13 206/106/13 202/107/13
f 210/108/14 211/109/14 209/104/14
f 212/110/15 197/93/15 211/98/15
f 209/111/16 211/112/16 203/113/16
f 211/112/16 197/114/16 199/115/16
f 199/115/16 201/116/16 211/112/16
f 201/116/16 203/113/16 211/112/16
f 203/113/16 205/117/16 207/118/16
f 207/118/16 209/111/16 203/113/16
f 198/91/7 200/119/7 199/92/7
f 200/94/8 202/97/8 201/95/8
f 202/97/9 204/110/9 203/98/9
f 204/99/10 206/101/10 205/100/10
f 206/101/11 208/120/11 207/102/11
f 208/103/12 210/108/12 209/104/12
f 202/107/13 200/121/13 198/122/13
f 198/122/13 212/123/13 210/105/13
f 210/105/13 208/124/13 206/106/13
f 206/106/13 204/125/13 202/107/13
f 202/107/13 198/122/13 210/105/13
f 210/108/14 212/126/14 211/109/14
f 212/110/15 198/91/15 197/93/15
g Shaft_Mesh
v -0.017938 0.043307 1.500000
v -0.017938 0.043307 -0.000000
v -0.043307 0.017938 1.500000
v -0.043307 0.017938 -0.000000
v -0.043307 -0.017938 1.500000
v -0.043307 -0.017938 0.000000
v -0.017938 -0.043307 1.500000
v -0.017938 -0.043307 0.000000
v 0.017938 -0.043307 1.500000
v 0.017938 -0.043307 0.000000
v 0.043307 -0.017938 1.500000
v 0.043307 -0.017938 0.000000
v 0.043307 0.017938 1.500000
v 0.043307 0.017938 -0.000000
v 0.017938 0.043307 1.500000
v 0.017938 0.043307 -0.000000
vn -0.7071 0.7071 -0.0000
vn -1.0000 -0.0000 -0.0000
vn -0.7071 -0.7071 -0.0000
vn -0.0000 -1.0000 -0.0000
vn 0.7071 -0.7071 -0.0000
vn 1.0000 -0.0000 -0.0000
vn -0.0000 -0.0000 -1.0000
vn 0.7071 0.7071 -0.0000
vn -0.0000 1.0000 -0.0000
vn -0.0000 -0.0000 1.0000
vt 0.500476 0.670569
vt 0.000522 0.720311
vt 0.000477 0.672475
vt 0.500567 0.766240
vt 0.000600 0.801970
vt 0.000568 0.768147
vt 0.500599 0.800064
vt 0.000646 0.849806
vt 0.500645 0.847902
vt 0.000678 0.883632
vt 0.500521 0.718405
vt 0.000788 0.999116
vt 0.500755 0.963386
vt 0.500787 0.997210
vt 0.223779 0.543094
vt 0.223779 0.519175
vt 0.281521 0.543094
vt 0.000756 0.965292
vt 0.500709 0.915550
vt 0.000710 0.917456
vt 0.500677 0.881726
vt 0.240691 0.617748
vt 0.223779 0.576917
vt 0.264609 0.560005
vt 0.240691 0.502263
vt 0.264609 0.502263
vt 0.281521 0.519175
vt 0.240691 0.560005
vt 0.281521 0.576917
vt 0.281521 0.600837
vt 0.264609 0.617748
vt 0.223779 0.600837
s 0
usemtl Material.003
f 214/127/17 215/128/17 213/129/17
f 216/130/18 217/131/18 215/132/18
f 218/133/19 219/134/19 217/131/19
f 220/135/20 221/136/20 219/134/20
f 222/132/21 223/137/21 221/130/21
f 224/138/22 225/139/22 223/140/22
f 220/141/23 218/142/23 226/143/23
f 226/144/24 227/145/24 225/139/24
f 228/146/25 213/147/25 227/145/25
f 219/148/26 223/149/26 227/150/26
f 214/127/17 216/137/17 215/128/17
f 216/130/18 218/133/18 217/131/18
f 218/133/19 220/135/19 219/134/19
f 220/135/20 222/147/20 221/136/20
f 222/132/21 224/128/21 223/137/21
f 224/138/22 226/144/22 225/139/22
f 218/142/23 216/151/23 214/152/23
f 214/152/23 228/153/23 218/142/23
f 228/153/23 226/143/23 218/142/23
f 226/143/23 224/150/23 222/154/23
f 222/154/23 220/141/23 226/143/23
f 226/144/24 228/146/24 227/145/24
f 228/146/25 214/136/25 213/147/25
f 227/150/26 213/155/26 215/156/26
f 215/156/26 217/157/26 219/148/26
f 219/148/26 221/158/26 223/149/26
f 223/149/26 225/154/26 227/150/26
f 227/150/26 215/156/26 219/148/26
g Tool_Mesh
v 0.062500 0.687500 1.125000
v 0.062500 1.000000 1.125000
v 0.062500 0.687500 1.500000
v 0.062500 1.000000 1.500000
v 0.500000 1.062500 1.125000
v 0.500000 1.312500 1.125000
v 0.500000 1.062500 1.500000
v 0.500000 1.312500 1.500000
v 0.250000 1.062500 1.125000
v 0.250000 1.312500 1.125000
v 0.250000 1.062500 1.500000
v 0.250000 1.312500 1.500000
v 0.437500 0.875000 1.125000
v 0.437500 1.000000 1.125000
v 0.437500 0.875000 1.500000
v 0.437500 1.000000 1.500000
v 0.312500 0.875000 1.125000
v 0.312500 1.000000 1.125000
v 0.312500 0.875000 1.500000
v 0.312500 1.000000 1.500000
v 0.687500 0.687500 1.125000
v 0.687500 1.000000 1.125000
v 0.687500 0.687500 1.500000
v 0.687500 1.000000 1.500000
v 0.562500 0.687500 1.125000
v 0.562500 1.000000 1.125000
v 0.562500 0.687500 1.500000
v 0.562500 1.000000 1.500000
v 0.687500 1.000000 1.125000
v 0.687500 1.062500 1.125000
v 0.687500 1.000000 1.500000
v 0.687500 1.062500 1.500000
v 0.062500 1.000000 1.125000
v 0.062500 1.062500 1.125000
v 0.062500 1.000000 1.500000
v 0.062500 1.062500 1.500000
v 0.187500 0.687500 1.125000
v 0.187500 1.000000 1.125000
v 0.187500 0.687500 1.500000
v 0.187500 1.000000 1.500000
v 0.062500 0.687500 1.125000
v 0.062500 1.000000 1.125000
v 0.062500 0.687500 1.500000
v 0.062500 1.000000 1.500000
vn -1.0000 -0.0000 -0.0000
vn 1.0000 -0.0000 -0.0000
vn -0.0000 -0.0000 1.0000
vn -0.0000 -0.0000 -1.0000
vn -0.0000 1.0000 -0.0000
vn -0.0000 -1.0000 -0.0000
vt 0.609375 0.984375
vt 0.562500 0.906250
vt 0.609375 0.906250
vt 0.562500 0.843750
vt 0.843750 0.734375
vt 0.875000 0.796875
vt 0.843750 0.796875
vt 0.609375 0.843750
vt 0.875000 0.734375
vt 1.000000 0.750000
vt 0.984375 0.843750
vt 0.984375 0.750000
vt 0.984375 0.812500
vt 1.000000 0.843750
vt 1.000000 0.812500
vt 1.000000 0.828125
vt 0.984375 0.828125
vt 0.562500 0.984375
vt 0.609375 1.000000
vt 0.562500 1.000000
vt 0.687500 1.000000
vt 0.687500 0.921875
vt 0.687500 0.906250
vt 0.687500 0.984375
vt 0.609375 0.921875
s 0
usemtl Material.004
f 232/159/27 229/160/27 231/161/27
f 234/162/28 235/161/28 233/160/28
f 236/163/29 239/164/29 235/165/29
f 240/161/27 237/162/27 239/166/27
f 238/164/30 233/163/30 237/167/30
f 236/160/31 238/166/31 240/161/31
f 242/168/28 243/169/28 241/170/28
f 244/171/29 247/172/29 243/169/29
f 248/169/27 245/168/27 247/172/27
f 246/172/30 241/171/30 245/173/30
f 247/168/32 241/169/32 243/170/32
f 250/159/28 251/160/28 249/161/28
f 252/170/29 255/174/29 251/175/29
f 254/174/30 249/170/30 253/168/30
f 255/168/32 249/169/32 251/170/32
f 258/176/28 259/177/28 257/178/28
f 260/159/29 263/179/29 259/177/29
f 264/177/27 261/176/27 263/159/27
f 262/180/30 257/161/30 261/181/30
f 263/181/32 257/177/32 259/161/32
f 260/177/31 262/181/31 264/179/31
f 268/170/29 271/174/29 267/175/29
f 270/174/30 265/170/30 269/168/30
f 271/168/32 265/169/32 267/170/32
f 232/159/27 230/176/27 229/160/27
f 234/162/28 236/166/28 235/161/28
f 236/163/29 240/167/29 239/164/29
f 240/161/27 238/160/27 237/162/27
f 238/164/30 234/165/30 233/163/30
f 236/160/31 234/162/31 238/166/31
f 242/168/28 244/172/28 243/169/28
f 244/171/29 248/173/29 247/172/29
f 248/169/27 246/170/27 245/168/27
f 246/172/30 242/169/30 241/171/30
f 247/168/32 245/172/32 241/169/32
f 250/159/28 252/176/28 251/160/28
f 252/170/29 256/168/29 255/174/29
f 254/174/30 250/175/30 249/170/30
f 255/168/32 253/172/32 249/169/32
f 258/176/28 260/159/28 259/177/28
f 260/159/29 264/182/29 263/179/29
f 264/177/27 262/178/27 261/176/27
f 262/180/30 258/183/30 257/161/30
f 263/181/32 261/179/32 257/177/32
f 260/177/31 258/161/31 262/181/31
f 268/170/29 272/168/29 271/174/29
f 270/174/30 266/175/30 265/170/30
f 271/168/32 269/172/32 265/169/32
