# Blender 4.2.3 LTS
# www.blender.org
mtllib precision_assembler.mtl
g Hull_Mesh
v 2.062500 1.125000 3.812500
v 2.062500 2.750000 3.812500
v 2.062500 1.125000 0.187500
v 2.062500 2.750000 0.187500
v 2.125000 1.125000 3.812500
v 2.125000 2.750000 3.812500
v 2.125000 1.125000 0.187500
v 2.125000 2.750000 0.187500
v 0.187500 1.125000 3.937500
v 0.187500 2.750000 3.937500
v 0.187500 1.125000 3.875000
v 0.187500 2.750000 3.875000
v 2.000000 1.125000 3.937500
v 2.000000 2.750000 3.937500
v 2.000000 1.125000 3.875000
v 2.000000 2.750000 3.875000
v 0.187500 1.125000 0.125000
v 0.187500 2.750000 0.125000
v 0.187500 1.125000 0.062500
v 0.187500 2.750000 0.062500
v 2.000000 1.125000 0.125000
v 2.000000 2.750000 0.125000
v 2.000000 1.125000 0.062500
v 2.000000 2.750000 0.062500
v 0.312500 0.812500 1.687500
v 0.312500 0.875000 1.687500
v 0.312500 0.812500 1.312500
v 0.312500 0.875000 1.312500
v 0.687500 0.812500 1.687500
v 0.687500 0.875000 1.687500
v 0.687500 0.812500 1.312500
v 0.687500 0.875000 1.312500
v 0.312500 0.125000 1.687500
v 0.312500 0.187500 1.687500
v 0.312500 0.125000 1.312501
v 0.312500 0.187500 1.312501
v 0.687500 0.125000 1.687500
v 0.687500 0.187500 1.687500
v 0.687500 0.125000 1.312501
v 0.687500 0.187500 1.312501
v 0.000000 1.125000 4.000000
v 0.000000 2.750000 4.000000
v 0.000000 1.125000 3.812500
v 0.000000 2.750000 3.812500
v 0.187500 1.125000 4.000000
v 0.187500 2.750000 4.000000
v 0.187500 1.125000 3.812500
v 0.187500 2.750000 3.812500
v 0.000000 2.750000 4.000000
v 0.000000 3.000000 4.000000
v 0.000000 2.750000 -0.000000
v 0.000000 3.000000 -0.000000
v 3.000000 2.750000 4.000000
v 3.000000 3.000000 4.000000
v 3.000000 2.750000 -0.000000
v 3.000000 3.000000 -0.000000
v 0.000000 1.000000 4.000000
v 0.000000 1.125000 4.000000
v 0.000000 1.000000 -0.000000
v 0.000000 1.125000 -0.000000
v 3.000000 1.000000 4.000000
v 3.000000 1.125000 4.000000
v 3.000000 1.000000 -0.000000
v 3.000000 1.125000 -0.000000
v 1.000000 0.875000 3.750000
v 1.000000 1.000000 3.750000
v 1.000000 0.875000 3.000000
v 2.750000 0.875000 3.750000
v 2.750000 1.000000 3.750000
v 2.750000 0.875000 3.000000
v 2.750000 1.000000 3.000000
v 0.250000 0.875000 3.750000
v 0.250000 1.000000 3.750000
v 0.250000 0.875000 1.000000
v 0.250000 1.000000 1.000000
v 1.000000 0.875000 3.750000
v 1.000000 1.000000 3.750000
v 1.000000 0.875000 1.000000
v 0.250000 0.000000 3.750000
v 0.250000 0.125000 3.750000
v 0.250000 0.000000 1.000000
v 0.250000 0.125000 1.000000
v 1.000000 0.000000 3.750000
v 1.000000 0.125000 3.750000
v 1.000000 0.000000 1.000000
v 1.000000 0.125000 1.000000
v 1.000000 0.000000 3.750000
v 1.000000 0.125000 3.750000
v 1.000000 0.000000 3.000000
v 1.000000 0.125000 3.000000
v 2.750000 0.000000 3.750000
v 2.750000 0.125000 3.750000
v 2.750000 0.000000 3.000000
v 2.750000 0.125000 3.000000
v 2.125000 1.687500 2.500000
v 2.125000 2.312500 2.500000
v 2.125000 1.687500 1.500000
v 2.125000 2.312500 1.500000
v 2.562500 1.687500 2.500000
v 2.562500 2.312500 2.500000
v 2.562500 1.687500 1.500000
v 2.562500 2.312500 1.500000
v 2.125000 1.875000 0.875000
v 2.125000 2.125000 0.875000
v 2.125000 1.875000 0.625000
v 2.125000 2.125000 0.625000
v 2.250000 1.875000 0.875000
v 2.250000 2.125000 0.875000
v 2.250000 1.875000 0.625000
v 2.250000 2.125000 0.625000
v 2.250000 1.875000 3.375000
v 2.250000 2.125000 3.375000
v 2.250000 1.875000 2.500000
v 2.250000 2.125000 2.500000
v 2.500000 1.875000 3.375000
v 2.500000 2.125000 3.375000
v 2.500000 1.875000 2.500000
v 2.500000 2.125000 2.500000
v 2.250000 1.875000 1.500000
v 2.250000 2.125000 1.500000
v 2.250000 1.875000 0.625000
v 2.250000 2.125000 0.625000
v 2.500000 1.875000 1.500000
v 2.500000 2.125000 1.500000
v 2.500000 1.875000 0.625000
v 2.500000 2.125000 0.625000
v 2.562500 1.125000 2.312500
v 2.562500 2.125000 2.312500
v 2.562500 1.125000 2.062500
v 2.562500 2.125000 2.062500
v 2.812500 1.125000 2.312500
v 2.812500 2.125000 2.312500
v 2.812500 1.125000 2.062500
v 2.812500 2.125000 2.062500
v 2.562500 1.125000 1.937500
v 2.562500 2.125000 1.937500
v 2.562500 1.125000 1.687500
v 2.562500 2.125000 1.687500
v 2.812500 1.125000 1.937500
v 2.812500 2.125000 1.937500
v 2.812500 1.125000 1.687500
v 2.812500 2.125000 1.687500
v 1.000000 0.250000 3.000000
v 1.000000 0.875000 3.000000
v 1.000000 0.250000 2.812500
v 1.000000 0.875000 2.812500
v 1.187500 0.250000 3.000000
v 1.187500 0.875000 3.000000
v 1.187500 0.250000 2.812500
v 1.187500 0.875000 2.812500
v 1.062500 0.250000 2.937500
v 1.062500 0.875000 2.937500
v 1.062500 0.250000 1.062500
v 1.062500 0.875000 1.062500
v 2.937500 0.250000 2.937500
v 2.937500 0.875000 2.937500
v 2.937500 0.250000 1.062500
v 2.937500 0.875000 1.062500
v 1.000000 0.875000 3.000000
v 1.000000 1.000000 3.000000
v 1.000000 0.875000 1.000000
v 1.000000 1.000000 1.000000
v 3.000000 0.875000 3.000000
v 3.000000 1.000000 3.000000
v 3.000000 0.875000 1.000000
v 3.000000 1.000000 1.000000
v 1.000000 0.000000 3.000000
v 1.000000 0.250000 3.000000
v 1.000000 0.000000 1.000000
v 1.000000 0.250000 1.000000
v 3.000000 0.000000 3.000000
v 3.000000 0.250000 3.000000
v 3.000000 0.000000 1.000000
v 3.000000 0.250000 1.000000
v 1.000000 0.875000 1.000000
v 1.000000 0.875000 0.250000
v 1.000000 1.000000 0.250000
v 2.750000 0.875000 1.000000
v 2.750000 1.000000 1.000000
v 2.750000 0.875000 0.250000
v 2.750000 1.000000 0.250000
v 1.000000 0.000000 1.000000
v 1.000000 0.125000 1.000000
v 1.000000 0.000000 0.250000
v 1.000000 0.125000 0.250000
v 2.750000 0.000000 1.000000
v 2.750000 0.125000 1.000000
v 2.750000 0.000000 0.250000
v 2.750000 0.125000 0.250000
v 1.437500 1.125000 3.000000
v 1.437500 1.500000 3.000000
v 1.437500 1.125000 2.812500
v 1.437500 1.500000 2.812500
v 1.625000 1.125000 3.000000
v 1.625000 1.500000 3.000000
v 1.625000 1.125000 2.812500
v 1.625000 1.500000 2.812500
v 0.875000 2.125000 2.312500
v 0.875000 2.750000 2.312500
v 0.875000 2.125000 2.125000
v 0.875000 2.750000 2.125000
v 1.062500 2.125000 2.312500
v 1.062500 2.750000 2.312500
v 1.062500 2.125000 2.125000
v 1.062500 2.750000 2.125000
v 2.812500 0.250000 3.000000
v 2.812500 0.875000 3.000000
v 2.812500 0.250000 2.812500
v 2.812500 0.875000 2.812500
v 3.000000 0.250000 3.000000
v 3.000000 0.875000 3.000000
v 3.000000 0.250000 2.812500
v 3.000000 0.875000 2.812500
v 1.000000 0.250000 1.187500
v 1.000000 0.875000 1.187500
v 1.000000 0.250000 1.000000
v 1.000000 0.875000 1.000000
v 1.187500 0.250000 1.187500
v 1.187500 0.875000 1.187500
v 1.187500 0.250000 1.000000
v 1.187500 0.875000 1.000000
v 2.812500 0.250000 1.187500
v 2.812500 0.875000 1.187500
v 2.812500 0.250000 1.000000
v 2.812500 0.875000 1.000000
v 3.000000 0.250000 1.187500
v 3.000000 0.875000 1.187500
v 3.000000 0.250000 1.000000
v 3.000000 0.875000 1.000000
v 2.000000 1.125000 4.000000
v 2.000000 2.750000 4.000000
v 2.000000 1.125000 3.812500
v 2.000000 2.750000 3.812500
v 2.187500 1.125000 4.000000
v 2.187500 2.750000 4.000000
v 2.187500 1.125000 3.812500
v 2.187500 2.750000 3.812500
v 2.812500 1.125000 4.000000
v 2.812500 2.750000 4.000000
v 2.812500 1.125000 3.812500
v 2.812500 2.750000 3.812500
v 3.000000 1.125000 4.000000
v 3.000000 2.750000 4.000000
v 3.000000 1.125000 3.812500
v 3.000000 2.750000 3.812500
v 0.000000 1.125000 0.187500
v 0.000000 2.750000 0.187500
v 0.000000 1.125000 -0.000000
v 0.000000 2.750000 -0.000000
v 0.187500 1.125000 0.187500
v 0.187500 2.750000 0.187500
v 0.187500 1.125000 -0.000000
v 0.187500 2.750000 -0.000000
v 2.000000 1.125000 0.187500
v 2.000000 2.750000 0.187500
v 2.000000 1.125000 -0.000000
v 2.000000 2.750000 -0.000000
v 2.187500 1.125000 0.187500
v 2.187500 2.750000 0.187500
v 2.187500 1.125000 -0.000000
v 2.187500 2.750000 -0.000000
v 2.812500 1.125000 0.187500
v 2.812500 2.750000 0.187500
v 2.812500 1.125000 -0.000000
v 2.812500 2.750000 -0.000000
v 3.000000 1.125000 0.187500
v 3.000000 2.750000 0.187500
v 3.000000 1.125000 -0.000000
v 3.000000 2.750000 -0.000000
v 2.125000 1.875000 1.375000
v 2.125000 2.125000 1.375000
v 2.125000 1.875000 1.125000
v 2.125000 2.125000 1.125000
v 2.250000 1.875000 1.375000
v 2.250000 2.125000 1.375000
v 2.250000 1.875000 1.125000
v 2.250000 2.125000 1.125000
v 2.125000 1.875000 2.875000
v 2.125000 2.125000 2.875000
v 2.125000 1.875000 2.625000
v 2.125000 2.125000 2.625000
v 2.250000 1.875000 2.875000
v 2.250000 2.125000 2.875000
v 2.250000 1.875000 2.625000
v 2.250000 2.125000 2.625000
v 2.125000 1.875000 3.375000
v 2.125000 2.125000 3.375000
v 2.125000 1.875000 3.125000
v 2.125000 2.125000 3.125000
v 2.250000 1.875000 3.375000
v 2.250000 2.125000 3.375000
v 2.250000 1.875000 3.125000
v 2.250000 2.125000 3.125000
v 0.312500 0.812500 2.687500
v 0.312500 0.875000 2.687500
v 0.312500 0.812500 2.312500
v 0.312500 0.875000 2.312500
v 0.687500 0.812500 2.687500
v 0.687500 0.875000 2.687500
v 0.687500 0.812500 2.312500
v 0.687500 0.875000 2.312500
v 0.312500 0.125000 2.687500
v 0.312500 0.187500 2.687500
v 0.312500 0.125000 2.312500
v 0.312500 0.187500 2.312500
v 0.687500 0.125000 2.687500
v 0.687500 0.187500 2.687500
v 0.687500 0.125000 2.312500
v 0.687500 0.187500 2.312500
v 0.312500 0.812500 3.687500
v 0.312500 0.875000 3.687500
v 0.312500 0.812500 3.312500
v 0.312500 0.875000 3.312500
v 0.687500 0.812500 3.687500
v 0.687500 0.875000 3.687500
v 0.687500 0.812500 3.312500
v 0.687500 0.875000 3.312500
v 0.312500 0.125000 3.687500
v 0.312500 0.187500 3.687500
v 0.312500 0.125000 3.312500
v 0.312500 0.187500 3.312500
v 0.687500 0.125000 3.687500
v 0.687500 0.187500 3.687500
v 0.687500 0.125000 3.312500
v 0.687500 0.187500 3.312500
v 1.312500 0.812500 3.687500
v 1.312500 0.875000 3.687500
v 1.312500 0.812500 3.312500
v 1.312500 0.875000 3.312500
v 1.687500 0.812500 3.687500
v 1.687500 0.875000 3.687500
v 1.687500 0.812500 3.312500
v 1.687500 0.875000 3.312500
v 1.312500 0.125000 3.687500
v 1.312500 0.187500 3.687500
v 1.312500 0.125000 3.312500
v 1.312500 0.187500 3.312500
v 1.687500 0.125000 3.687500
v 1.687500 0.187500 3.687500
v 1.687500 0.125000 3.312500
v 1.687500 0.187500 3.312500
v 2.312500 0.812500 3.687500
v 2.312500 0.875000 3.687500
v 2.312500 0.812500 3.312500
v 2.312500 0.875000 3.312500
v 2.687500 0.812500 3.687500
v 2.687500 0.875000 3.687500
v 2.687500 0.812500 3.312500
v 2.687500 0.875000 3.312500
v 2.312500 0.125000 3.687500
v 2.312500 0.187500 3.687500
v 2.312500 0.125000 3.312500
v 2.312500 0.187500 3.312500
v 2.687500 0.125000 3.687500
v 2.687500 0.187500 3.687500
v 2.687500 0.125000 3.312500
v 2.687500 0.187500 3.312500
v 1.312500 0.812500 0.687500
v 1.312500 0.875000 0.687500
v 1.312500 0.812500 0.312500
v 1.312500 0.875000 0.312500
v 1.687500 0.812500 0.687500
v 1.687500 0.875000 0.687500
v 1.687500 0.812500 0.312500
v 1.687500 0.875000 0.312500
v 1.312500 0.125000 0.687501
v 1.312500 0.187500 0.687501
v 1.312500 0.125000 0.312501
v 1.312500 0.187500 0.312501
v 1.687500 0.125000 0.687501
v 1.687500 0.187500 0.687501
v 1.687500 0.125000 0.312501
v 1.687500 0.187500 0.312501
v 2.312500 0.812500 0.687500
v 2.312500 0.875000 0.687500
v 2.312500 0.812500 0.312500
v 2.312500 0.875000 0.312500
v 2.687500 0.812500 0.687500
v 2.687500 0.875000 0.687500
v 2.687500 0.812500 0.312500
v 2.687500 0.875000 0.312500
v 2.312500 0.125000 0.687501
v 2.312500 0.187500 0.687501
v 2.312500 0.125000 0.312501
v 2.312500 0.187500 0.312501
v 2.687500 0.125000 0.687501
v 2.687500 0.187500 0.687501
v 2.687500 0.125000 0.312501
v 2.687500 0.187500 0.312501
v 0.875000 2.125000 1.437500
v 0.875000 2.750000 1.437500
v 0.875000 2.125000 1.250000
v 0.875000 2.750000 1.250000
v 1.062500 2.125000 1.437500
v 1.062500 2.750000 1.437500
v 1.062500 2.125000 1.250000
v 1.062500 2.750000 1.250000
v 0.875000 2.125000 1.437500
v 0.875000 2.125000 1.250000
v 1.062500 2.125000 1.437500
v 1.062500 2.125000 1.250000
v 0.000000 0.000000 1.000000
v 0.000000 0.250000 1.000000
v 0.000000 0.000000 0.000000
v 0.000000 0.250000 -0.000000
v 1.000000 0.000000 1.000000
v 1.000000 0.250000 1.000000
v 1.000000 0.000000 0.000000
v 1.000000 0.250000 -0.000000
v 0.062500 0.250000 0.937500
v 0.062500 0.875000 0.937500
v 0.062500 0.250000 0.062500
v 0.062500 0.875000 0.062500
v 0.937500 0.250000 0.937500
v 0.937500 0.875000 0.937500
v 0.937500 0.250000 0.062500
v 0.937500 0.875000 0.062500
v 0.000000 0.875000 1.000000
v 0.000000 1.000000 1.000000
v 0.000000 0.875000 -0.000000
v 0.000000 1.000000 -0.000000
v 1.000000 0.875000 1.000000
v 1.000000 1.000000 1.000000
v 1.000000 0.875000 -0.000000
v 1.000000 1.000000 -0.000000
v 0.812500 0.250000 1.000000
v 0.812500 0.875000 1.000000
v 0.812500 0.250000 0.812500
v 0.812500 0.875000 0.812500
v 1.000000 0.250000 1.000000
v 1.000000 0.875000 1.000000
v 1.000000 0.250000 0.812500
v 1.000000 0.875000 0.812500
v 0.812500 0.250000 0.187500
v 0.812500 0.875000 0.187500
v 0.812500 0.250000 -0.000000
v 0.812500 0.875000 -0.000000
v 1.000000 0.250000 0.187500
v 1.000000 0.875000 0.187500
v 1.000000 0.250000 -0.000000
v 1.000000 0.875000 -0.000000
v 0.000000 0.250000 1.000000
v 0.000000 0.875000 1.000000
v 0.000000 0.250000 -0.000000
v 0.000000 0.875000 -0.000000
v 0.187500 0.250000 1.000000
v 0.187500 0.875000 1.000000
v 0.187500 0.250000 -0.000000
v 0.187500 0.875000 -0.000000
vn -1.0000 -0.0000 -0.0000
vn -0.0000 -0.0000 -1.0000
vn 1.0000 -0.0000 -0.0000
vn -0.0000 -0.0000 1.0000
vn -0.0000 -1.0000 -0.0000
vn -0.0000 1.0000 -0.0000
vt 0.604055 1.001324
vt 0.377493 0.899762
vt 0.604055 0.899762
vt 0.000000 0.000000
vt 0.600787 1.000000
vt 0.374225 0.898438
vt 0.600787 0.898438
vt 0.398438 0.894531
vt 0.421875 0.898438
vt 0.398438 0.898438
vt 0.402344 0.875000
vt 0.402344 0.898438
vt 0.421875 0.878906
vt 0.398438 0.875000
vt 0.421875 0.875000
vt 0.417969 0.898438
vt 0.375000 0.875000
vt 0.398438 0.878906
vt 0.375000 0.878906
vt 0.375000 0.898438
vt 0.378906 0.875000
vt 0.378906 0.898438
vt 0.375000 0.894531
vt 0.394531 0.898438
vt 0.714844 1.000000
vt 0.703125 0.898438
vt 0.714844 0.898438
vt 0.703125 1.000000
vt 1.000000 0.937500
vt 0.750000 0.921875
vt 1.000000 0.921875
vt 0.812500 0.906250
vt 1.000000 0.906250
vt 0.750000 0.609375
vt 1.000000 0.796875
vt 0.750000 0.796875
vt -0.000000 0.812500
vt 0.250000 1.000000
vt 0.000000 1.000000
vt 0.750000 0.992188
vt 1.000000 1.000000
vt 0.750000 1.000000
vt 0.812500 0.992188
vt 0.812500 1.000000
vt 1.000000 0.992188
vt 0.250000 0.812500
vt 0.000000 0.625000
vt 0.875000 1.000000
vt 0.828125 0.992188
vt 0.875000 0.992188
vt 0.890625 0.992188
vt 0.375000 0.718750
vt 0.421875 0.828125
vt 0.375000 0.828125
vt 0.828125 1.000000
vt 0.859375 1.000000
vt 0.859375 0.992188
vt 0.250000 0.828125
vt 0.250000 0.875000
vt 0.421875 0.718750
vt 0.687500 0.863281
vt 0.648438 0.890625
vt 0.648438 0.863281
vt 0.710938 0.835938
vt 0.648438 0.796875
vt 0.710938 0.796875
vt 0.687500 0.890625
vt 0.710938 0.863281
vt 0.648438 0.835938
vt 0.757812 0.976562
vt 0.750000 0.960938
vt 0.757812 0.960938
vt 0.750000 0.976562
vt 0.812500 0.976562
vt 0.812500 0.960938
vt 0.765625 0.976562
vt 0.765625 0.960938
vt 0.812500 0.945312
vt 0.757812 0.945312
vt 0.988281 0.953125
vt 1.000000 0.953125
vt 0.878906 0.953125
vt 0.996094 0.992188
vt 0.878906 0.992188
vt 0.996094 0.953125
vt 0.875000 0.937500
vt 0.375000 1.000000
vt 0.890625 1.000000
vt 0.953125 0.992188
vt 0.359375 0.781250
vt 0.250000 0.781250
vt 0.359375 0.828125
vt 0.703125 0.976562
vt 0.714844 0.976562
vt 0.703125 0.988281
vt 0.714844 0.988281
vt 0.714844 0.945312
vt 0.703125 0.910156
vt 0.812500 0.921875
vt 0.750000 0.906250
vt 0.250000 0.718750
vt 0.312500 0.781250
vt 0.312500 0.718750
vt 0.988281 0.992188
vt 0.929688 0.953125
vt 0.929688 0.992188
vt 0.812500 0.953125
vt 0.875000 0.953125
vt 0.863281 0.953125
vt 0.377493 1.001324
vt 0.374225 1.000000
vt 0.421875 0.894531
vt 0.417969 0.875000
vt 0.394531 0.875000
vt 0.750000 0.937500
vt 1.000000 0.609375
vt 0.250000 0.625000
vt 0.953125 1.000000
vt 0.703125 0.945312
vt 0.714844 0.910156
vt 0.863281 0.992188
s 0
usemtl None
f 2/1/1 3/2/1 1/3/1
f 4/4/2 7/4/2 3/4/2
f 8/5/3 5/6/3 7/7/3
f 6/4/4 1/4/4 5/4/4
f 10/4/1 11/4/1 9/4/1
f 16/4/3 13/4/3 15/4/3
f 18/4/1 19/4/1 17/4/1
f 24/4/3 21/4/3 23/4/3
f 26/8/1 27/9/1 25/10/1
f 28/10/2 31/11/2 27/12/2
f 32/13/3 29/14/3 31/15/3
f 30/16/4 25/15/4 29/9/4
f 31/15/5 25/10/5 27/14/5
f 34/17/1 35/18/1 33/19/1
f 36/20/2 39/21/2 35/22/2
f 40/10/3 37/23/3 39/8/3
f 38/24/4 33/14/4 37/10/4
f 36/20/6 38/14/6 40/10/6
f 42/25/1 43/26/1 41/27/1
f 44/26/2 47/25/2 43/28/2
f 48/25/3 45/26/3 47/27/3
f 46/25/4 41/26/4 45/27/4
f 50/29/1 51/30/1 49/31/1
f 52/31/2 55/32/2 51/33/2
f 56/29/3 53/30/3 55/31/3
f 54/31/4 49/32/4 53/33/4
f 55/34/5 49/35/5 51/36/5
f 52/37/6 54/38/6 56/39/6
f 58/40/1 59/41/1 57/42/1
f 60/43/2 63/41/2 59/44/2
f 64/41/3 61/40/3 63/45/3
f 62/41/4 57/43/4 61/45/4
f 63/38/5 57/37/5 59/46/5
f 60/47/6 62/46/6 64/37/6
f 71/48/3 68/49/3 70/50/3
f 69/41/4 65/51/4 68/45/4
f 70/52/5 65/53/5 67/54/5
f 73/49/1 74/41/1 72/55/1
f 77/56/4 72/43/4 76/57/4
f 78/58/5 72/15/5 74/59/5
f 80/49/1 81/41/1 79/55/1
f 84/56/4 79/43/4 83/57/4
f 85/58/5 79/15/5 81/59/5
f 82/59/6 84/53/6 86/58/6
f 94/48/3 91/49/3 93/50/3
f 92/41/4 87/51/4 91/45/4
f 93/52/5 87/53/5 89/54/5
f 90/53/6 92/52/6 94/60/6
f 98/61/2 101/62/2 97/63/2
f 102/64/3 99/65/3 101/66/3
f 100/62/4 95/61/4 99/67/4
f 101/68/5 95/69/5 97/64/5
f 98/69/6 100/68/6 102/63/6
f 106/70/2 109/71/2 105/72/2
f 108/71/4 103/70/4 107/73/4
f 109/70/5 103/71/5 105/73/5
f 106/71/6 108/70/6 110/72/6
f 112/72/1 113/74/1 111/70/1
f 118/74/3 115/72/3 117/75/3
f 116/76/4 111/71/4 115/77/4
f 117/72/5 111/78/5 113/79/5
f 114/79/6 116/75/6 118/72/6
f 120/72/1 121/74/1 119/70/1
f 122/71/2 125/76/2 121/73/2
f 126/74/3 123/72/3 125/75/3
f 125/75/5 119/79/5 121/78/5
f 122/78/6 124/72/6 126/75/6
f 128/73/1 129/75/1 127/74/1
f 130/74/2 133/40/2 129/73/2
f 134/73/3 131/75/3 133/74/3
f 132/43/4 127/73/4 131/40/4
f 130/73/6 132/77/6 134/76/6
f 136/73/1 137/75/1 135/74/1
f 138/74/2 141/40/2 137/73/2
f 142/73/3 139/75/3 141/74/3
f 140/43/4 135/73/4 139/40/4
f 138/73/6 140/77/6 142/76/6
f 144/45/1 145/80/1 143/81/1
f 146/45/2 149/80/2 145/81/2
f 150/45/3 147/80/3 149/81/3
f 148/45/4 143/80/4 147/81/4
f 152/82/1 153/83/1 151/84/1
f 154/82/2 157/83/2 153/84/2
f 158/83/3 155/82/3 157/85/3
f 156/83/4 151/82/4 155/85/4
f 162/50/2 165/41/2 161/48/2
f 166/41/3 163/50/3 165/45/3
f 164/41/4 159/50/4 163/45/4
f 165/17/5 159/38/5 161/59/5
f 168/81/1 169/86/1 167/29/1
f 170/81/2 173/86/2 169/29/2
f 174/81/3 171/86/3 173/29/3
f 172/81/4 167/86/4 171/29/4
f 173/59/5 167/87/5 169/38/5
f 170/38/6 172/17/6 174/87/6
f 177/51/2 180/41/2 176/88/2
f 181/41/3 178/89/3 180/45/3
f 180/90/5 175/58/5 176/91/5
f 185/51/2 188/41/2 184/88/2
f 189/41/3 186/89/3 188/45/3
f 188/90/5 182/58/5 184/91/5
f 185/58/6 187/90/6 189/92/6
f 191/25/1 192/93/1 190/94/1
f 193/25/2 196/93/2 192/94/2
f 197/25/3 194/93/3 196/94/3
f 195/25/4 190/93/4 194/94/4
f 193/25/6 195/95/6 197/96/6
f 199/97/1 200/26/1 198/27/1
f 201/97/2 204/26/2 200/27/2
f 205/97/3 202/26/3 204/27/3
f 203/97/4 198/26/4 202/27/4
f 204/27/5 198/98/5 200/26/5
f 207/45/1 208/80/1 206/81/1
f 209/45/2 212/80/2 208/81/2
f 213/45/3 210/80/3 212/81/3
f 211/45/4 206/80/4 210/81/4
f 215/45/1 216/80/1 214/81/1
f 217/45/2 220/80/2 216/81/2
f 221/45/3 218/80/3 220/81/3
f 219/45/4 214/80/4 218/81/4
f 223/45/1 224/80/1 222/81/1
f 225/45/2 228/80/2 224/81/2
f 229/45/3 226/80/3 228/81/3
f 227/45/4 222/80/4 226/81/4
f 231/25/1 232/26/1 230/27/1
f 233/26/2 236/25/2 232/28/2
f 237/25/3 234/26/3 236/27/3
f 235/25/4 230/26/4 234/27/4
f 239/25/1 240/26/1 238/27/1
f 241/26/2 244/25/2 240/28/2
f 245/25/3 242/26/3 244/27/3
f 243/25/4 238/26/4 242/27/4
f 247/25/1 248/26/1 246/27/1
f 249/26/2 252/25/2 248/28/2
f 253/25/3 250/26/3 252/27/3
f 251/25/4 246/26/4 250/27/4
f 255/25/1 256/26/1 254/27/1
f 257/26/2 260/25/2 256/28/2
f 261/25/3 258/26/3 260/27/3
f 259/25/4 254/26/4 258/27/4
f 263/25/1 264/26/1 262/27/1
f 265/26/2 268/25/2 264/28/2
f 269/25/3 266/26/3 268/27/3
f 267/25/4 262/26/4 266/27/4
f 273/70/2 276/71/2 272/72/2
f 275/71/4 270/70/4 274/73/4
f 276/70/5 270/71/5 272/73/5
f 273/71/6 275/70/6 277/72/6
f 281/70/2 284/71/2 280/72/2
f 283/71/4 278/70/4 282/73/4
f 284/70/5 278/71/5 280/73/5
f 281/71/6 283/70/6 285/72/6
f 289/70/2 292/71/2 288/72/2
f 291/71/4 286/70/4 290/73/4
f 292/70/5 286/71/5 288/73/5
f 289/71/6 291/70/6 293/72/6
f 295/8/1 296/9/1 294/10/1
f 297/10/2 300/11/2 296/12/2
f 301/13/3 298/14/3 300/15/3
f 299/16/4 294/15/4 298/9/4
f 300/15/5 294/10/5 296/14/5
f 303/17/1 304/18/1 302/19/1
f 305/20/2 308/21/2 304/22/2
f 309/10/3 306/23/3 308/8/3
f 307/24/4 302/14/4 306/10/4
f 305/20/6 307/14/6 309/10/6
f 311/8/1 312/9/1 310/10/1
f 313/10/2 316/11/2 312/12/2
f 317/13/3 314/14/3 316/15/3
f 315/16/4 310/15/4 314/9/4
f 316/15/5 310/10/5 312/14/5
f 319/17/1 320/18/1 318/19/1
f 321/20/2 324/21/2 320/22/2
f 325/10/3 322/23/3 324/8/3
f 323/24/4 318/14/4 322/10/4
f 321/20/6 323/14/6 325/10/6
f 327/8/1 328/9/1 326/10/1
f 329/10/2 332/11/2 328/12/2
f 333/13/3 330/14/3 332/15/3
f 331/16/4 326/15/4 330/9/4
f 332/15/5 326/10/5 328/14/5
f 335/17/1 336/18/1 334/19/1
f 337/20/2 340/21/2 336/22/2
f 341/10/3 338/23/3 340/8/3
f 339/24/4 334/14/4 338/10/4
f 337/20/6 339/14/6 341/10/6
f 343/8/1 344/9/1 342/10/1
f 345/10/2 348/11/2 344/12/2
f 349/13/3 346/14/3 348/15/3
f 347/16/4 342/15/4 346/9/4
f 348/15/5 342/10/5 344/14/5
f 351/17/1 352/18/1 350/19/1
f 353/20/2 356/21/2 352/22/2
f 357/10/3 354/23/3 356/8/3
f 355/24/4 350/14/4 354/10/4
f 353/20/6 355/14/6 357/10/6
f 359/8/1 360/9/1 358/10/1
f 361/10/2 364/11/2 360/12/2
f 365/13/3 362/14/3 364/15/3
f 363/16/4 358/15/4 362/9/4
f 364/15/5 358/10/5 360/14/5
f 367/17/1 368/18/1 366/19/1
f 369/20/2 372/21/2 368/22/2
f 373/10/3 370/23/3 372/8/3
f 371/24/4 366/14/4 370/10/4
f 369/20/6 371/14/6 373/10/6
f 375/8/1 376/9/1 374/10/1
f 377/10/2 380/11/2 376/12/2
f 381/13/3 378/14/3 380/15/3
f 379/16/4 374/15/4 378/9/4
f 380/15/5 374/10/5 376/14/5
f 383/17/1 384/18/1 382/19/1
f 385/20/2 388/21/2 384/22/2
f 389/10/3 386/23/3 388/8/3
f 387/24/4 382/14/4 386/10/4
f 385/20/6 387/14/6 389/10/6
f 391/97/1 392/26/1 390/27/1
f 393/97/2 396/26/2 392/27/2
f 397/97/3 394/26/3 396/27/3
f 395/97/4 390/26/4 394/27/4
f 401/27/5 398/98/5 399/26/5
f 403/99/1 404/100/1 402/32/1
f 405/99/2 408/100/2 404/32/2
f 409/99/3 406/100/3 408/32/3
f 407/99/4 402/100/4 406/32/4
f 408/101/5 402/102/5 404/91/5
f 405/91/6 407/103/6 409/102/6
f 411/104/1 412/105/1 410/80/1
f 413/105/2 416/104/2 412/106/2
f 417/105/3 414/104/3 416/106/3
f 415/105/4 410/104/4 414/106/4
f 419/48/1 420/43/1 418/50/1
f 421/43/2 424/48/2 420/44/2
f 425/44/3 422/50/3 424/43/3
f 423/48/4 418/43/4 422/50/4
f 424/103/5 418/91/5 420/101/5
f 427/45/1 428/80/1 426/81/1
f 429/45/2 432/80/2 428/81/2
f 433/45/3 430/80/3 432/81/3
f 431/45/4 426/80/4 430/81/4
f 435/45/1 436/80/1 434/81/1
f 437/45/2 440/80/2 436/81/2
f 441/45/3 438/80/3 440/81/3
f 439/45/4 434/80/4 438/81/4
f 443/50/1 444/107/1 442/108/1
f 445/50/2 448/109/2 444/108/2
f 449/50/3 446/107/3 448/108/3
f 447/50/4 442/109/4 446/108/4
f 448/4/5 442/4/5 444/4/5
f 445/4/6 447/4/6 449/4/6
f 2/1/1 4/110/1 3/2/1
f 4/4/2 8/4/2 7/4/2
f 8/5/3 6/111/3 5/6/3
f 6/4/4 2/4/4 1/4/4
f 10/4/1 12/4/1 11/4/1
f 16/4/3 14/4/3 13/4/3
f 18/4/1 20/4/1 19/4/1
f 24/4/3 22/4/3 21/4/3
f 26/8/1 28/112/1 27/9/1
f 28/10/2 32/14/2 31/11/2
f 32/13/3 30/18/3 29/14/3
f 30/16/4 26/113/4 25/15/4
f 31/15/5 29/9/5 25/10/5
f 34/17/1 36/14/1 35/18/1
f 36/20/2 40/17/2 39/21/2
f 40/10/3 38/20/3 37/23/3
f 38/24/4 34/114/4 33/14/4
f 36/20/6 34/17/6 38/14/6
f 42/25/1 44/28/1 43/26/1
f 44/26/2 48/27/2 47/25/2
f 48/25/3 46/28/3 45/26/3
f 46/25/4 42/28/4 41/26/4
f 50/29/1 52/115/1 51/30/1
f 52/31/2 56/99/2 55/32/2
f 56/29/3 54/115/3 53/30/3
f 54/31/4 50/99/4 49/32/4
f 55/34/5 53/116/5 49/35/5
f 52/37/6 50/46/6 54/38/6
f 58/40/1 60/45/1 59/41/1
f 60/43/2 64/45/2 63/41/2
f 64/41/3 62/42/3 61/40/3
f 62/41/4 58/44/4 57/43/4
f 63/38/5 61/39/5 57/37/5
f 60/47/6 58/117/6 62/46/6
f 71/48/3 69/55/3 68/49/3
f 69/41/4 66/88/4 65/51/4
f 70/52/5 68/60/5 65/53/5
f 73/49/1 75/45/1 74/41/1
f 77/56/4 73/44/4 72/43/4
f 78/58/5 76/53/5 72/15/5
f 80/49/1 82/45/1 81/41/1
f 84/56/4 80/44/4 79/43/4
f 85/58/5 83/53/5 79/15/5
f 82/59/6 80/15/6 84/53/6
f 94/48/3 92/55/3 91/49/3
f 92/41/4 88/88/4 87/51/4
f 93/52/5 91/60/5 87/53/5
f 90/53/6 88/54/6 92/52/6
f 98/61/2 102/67/2 101/62/2
f 102/64/3 100/69/3 99/65/3
f 100/62/4 96/63/4 95/61/4
f 101/68/5 99/63/5 95/69/5
f 98/69/6 96/64/6 100/68/6
f 106/70/2 110/73/2 109/71/2
f 108/71/4 104/72/4 103/70/4
f 109/70/5 107/72/5 103/71/5
f 106/71/6 104/73/6 108/70/6
f 112/72/1 114/75/1 113/74/1
f 118/74/3 116/70/3 115/72/3
f 116/76/4 112/73/4 111/71/4
f 117/72/5 115/75/5 111/78/5
f 114/79/6 112/78/6 116/75/6
f 120/72/1 122/75/1 121/74/1
f 122/71/2 126/77/2 125/76/2
f 126/74/3 124/70/3 123/72/3
f 125/75/5 123/72/5 119/79/5
f 122/78/6 120/79/6 124/72/6
f 128/73/1 130/71/1 129/75/1
f 130/74/2 134/43/2 133/40/2
f 134/73/3 132/71/3 131/75/3
f 132/43/4 128/74/4 127/73/4
f 130/73/6 128/71/6 132/77/6
f 136/73/1 138/71/1 137/75/1
f 138/74/2 142/43/2 141/40/2
f 142/73/3 140/71/3 139/75/3
f 140/43/4 136/74/4 135/73/4
f 138/73/6 136/71/6 140/77/6
f 144/45/1 146/104/1 145/80/1
f 146/45/2 150/104/2 149/80/2
f 150/45/3 148/104/3 147/80/3
f 148/45/4 144/104/4 143/80/4
f 152/82/1 154/85/1 153/83/1
f 154/82/2 158/85/2 157/83/2
f 158/83/3 156/84/3 155/82/3
f 156/83/4 152/84/4 151/82/4
f 162/50/2 166/45/2 165/41/2
f 166/41/3 164/48/3 163/50/3
f 164/41/4 160/48/4 159/50/4
f 165/17/5 163/87/5 159/38/5
f 168/81/1 170/108/1 169/86/1
f 170/81/2 174/108/2 173/86/2
f 174/81/3 172/108/3 171/86/3
f 172/81/4 168/108/4 167/86/4
f 173/59/5 171/17/5 167/87/5
f 170/38/6 168/59/6 172/17/6
f 177/51/2 181/45/2 180/41/2
f 181/41/3 179/118/3 178/89/3
f 180/90/5 178/92/5 175/58/5
f 185/51/2 189/45/2 188/41/2
f 189/41/3 187/118/3 186/89/3
f 188/90/5 186/92/5 182/58/5
f 185/58/6 183/91/6 187/90/6
f 191/25/1 193/28/1 192/93/1
f 193/25/2 197/28/2 196/93/2
f 197/25/3 195/28/3 194/93/3
f 195/25/4 191/28/4 190/93/4
f 193/25/6 191/28/6 195/95/6
f 199/97/1 201/119/1 200/26/1
f 201/97/2 205/119/2 204/26/2
f 205/97/3 203/119/3 202/26/3
f 203/97/4 199/119/4 198/26/4
f 204/27/5 202/120/5 198/98/5
f 207/45/1 209/104/1 208/80/1
f 209/45/2 213/104/2 212/80/2
f 213/45/3 211/104/3 210/80/3
f 211/45/4 207/104/4 206/80/4
f 215/45/1 217/104/1 216/80/1
f 217/45/2 221/104/2 220/80/2
f 221/45/3 219/104/3 218/80/3
f 219/45/4 215/104/4 214/80/4
f 223/45/1 225/104/1 224/80/1
f 225/45/2 229/104/2 228/80/2
f 229/45/3 227/104/3 226/80/3
f 227/45/4 223/104/4 222/80/4
f 231/25/1 233/28/1 232/26/1
f 233/26/2 237/27/2 236/25/2
f 237/25/3 235/28/3 234/26/3
f 235/25/4 231/28/4 230/26/4
f 239/25/1 241/28/1 240/26/1
f 241/26/2 245/27/2 244/25/2
f 245/25/3 243/28/3 242/26/3
f 243/25/4 239/28/4 238/26/4
f 247/25/1 249/28/1 248/26/1
f 249/26/2 253/27/2 252/25/2
f 253/25/3 251/28/3 250/26/3
f 251/25/4 247/28/4 246/26/4
f 255/25/1 257/28/1 256/26/1
f 257/26/2 261/27/2 260/25/2
f 261/25/3 259/28/3 258/26/3
f 259/25/4 255/28/4 254/26/4
f 263/25/1 265/28/1 264/26/1
f 265/26/2 269/27/2 268/25/2
f 269/25/3 267/28/3 266/26/3
f 267/25/4 263/28/4 262/26/4
f 273/70/2 277/73/2 276/71/2
f 275/71/4 271/72/4 270/70/4
f 276/70/5 274/72/5 270/71/5
f 273/71/6 271/73/6 275/70/6
f 281/70/2 285/73/2 284/71/2
f 283/71/4 279/72/4 278/70/4
f 284/70/5 282/72/5 278/71/5
f 281/71/6 279/73/6 283/70/6
f 289/70/2 293/73/2 292/71/2
f 291/71/4 287/72/4 286/70/4
f 292/70/5 290/72/5 286/71/5
f 289/71/6 287/73/6 291/70/6
f 295/8/1 297/112/1 296/9/1
f 297/10/2 301/14/2 300/11/2
f 301/13/3 299/18/3 298/14/3
f 299/16/4 295/113/4 294/15/4
f 300/15/5 298/9/5 294/10/5
f 303/17/1 305/14/1 304/18/1
f 305/20/2 309/17/2 308/21/2
f 309/10/3 307/20/3 306/23/3
f 307/24/4 303/114/4 302/14/4
f 305/20/6 303/17/6 307/14/6
f 311/8/1 313/112/1 312/9/1
f 313/10/2 317/14/2 316/11/2
f 317/13/3 315/18/3 314/14/3
f 315/16/4 311/113/4 310/15/4
f 316/15/5 314/9/5 310/10/5
f 319/17/1 321/14/1 320/18/1
f 321/20/2 325/17/2 324/21/2
f 325/10/3 323/20/3 322/23/3
f 323/24/4 319/114/4 318/14/4
f 321/20/6 319/17/6 323/14/6
f 327/8/1 329/112/1 328/9/1
f 329/10/2 333/14/2 332/11/2
f 333/13/3 331/18/3 330/14/3
f 331/16/4 327/113/4 326/15/4
f 332/15/5 330/9/5 326/10/5
f 335/17/1 337/14/1 336/18/1
f 337/20/2 341/17/2 340/21/2
f 341/10/3 339/20/3 338/23/3
f 339/24/4 335/114/4 334/14/4
f 337/20/6 335/17/6 339/14/6
f 343/8/1 345/112/1 344/9/1
f 345/10/2 349/14/2 348/11/2
f 349/13/3 347/18/3 346/14/3
f 347/16/4 343/113/4 342/15/4
f 348/15/5 346/9/5 342/10/5
f 351/17/1 353/14/1 352/18/1
f 353/20/2 357/17/2 356/21/2
f 357/10/3 355/20/3 354/23/3
f 355/24/4 351/114/4 350/14/4
f 353/20/6 351/17/6 355/14/6
f 359/8/1 361/112/1 360/9/1
f 361/10/2 365/14/2 364/11/2
f 365/13/3 363/18/3 362/14/3
f 363/16/4 359/113/4 358/15/4
f 364/15/5 362/9/5 358/10/5
f 367/17/1 369/14/1 368/18/1
f 369/20/2 373/17/2 372/21/2
f 373/10/3 371/20/3 370/23/3
f 371/24/4 367/114/4 366/14/4
f 369/20/6 367/17/6 371/14/6
f 375/8/1 377/112/1 376/9/1
f 377/10/2 381/14/2 380/11/2
f 381/13/3 379/18/3 378/14/3
f 379/16/4 375/113/4 374/15/4
f 380/15/5 378/9/5 374/10/5
f 383/17/1 385/14/1 384/18/1
f 385/20/2 389/17/2 388/21/2
f 389/10/3 387/20/3 386/23/3
f 387/24/4 383/114/4 382/14/4
f 385/20/6 383/17/6 387/14/6
f 391/97/1 393/119/1 392/26/1
f 393/97/2 397/119/2 396/26/2
f 397/97/3 395/119/3 394/26/3
f 395/97/4 391/119/4 390/26/4
f 401/27/5 400/120/5 398/98/5
f 403/99/1 405/30/1 404/100/1
f 405/99/2 409/30/2 408/100/2
f 409/99/3 407/30/3 406/100/3
f 407/99/4 403/30/4 402/100/4
f 408/101/5 406/103/5 402/102/5
f 405/91/6 403/101/6 407/103/6
f 411/104/1 413/106/1 412/105/1
f 413/105/2 417/80/2 416/104/2
f 417/105/3 415/80/3 414/104/3
f 415/105/4 411/80/4 410/104/4
f 419/48/1 421/44/1 420/43/1
f 421/43/2 425/50/2 424/48/2
f 425/44/3 423/48/3 422/50/3
f 423/48/4 419/44/4 418/43/4
f 424/103/5 422/102/5 418/91/5
f 427/45/1 429/104/1 428/80/1
f 429/45/2 433/104/2 432/80/2
f 433/45/3 431/104/3 430/80/3
f 431/45/4 427/104/4 426/80/4
f 435/45/1 437/104/1 436/80/1
f 437/45/2 441/104/2 440/80/2
f 441/45/3 439/104/3 438/80/3
f 439/45/4 435/104/4 434/80/4
f 443/50/1 445/43/1 444/107/1
f 445/50/2 449/121/2 448/109/2
f 449/50/3 447/43/3 446/107/3
f 447/50/4 443/121/4 442/109/4
f 448/4/5 446/4/5 442/4/5
f 445/4/6 443/4/6 447/4/6
g ProcessA_Mesh
v 1.025440 2.399092 1.323526
v 1.025440 2.357092 1.323526
v 0.914560 2.357092 1.323526
v 1.025440 2.399092 1.365526
v 1.025440 2.357092 1.365526
v 0.914560 2.399092 1.365526
v 0.914560 2.357092 1.365526
v 0.914560 2.399092 1.323526
v 1.285000 1.488000 1.045000
v 1.285000 1.452000 1.045000
v 0.655000 1.452000 1.045000
v 1.285000 1.488000 1.645000
v 1.285000 1.452000 1.645000
v 0.655000 1.488000 1.645000
v 0.655000 1.452000 1.645000
v 0.655000 1.488000 1.045000
v 0.944564 1.518000 1.296551
v 0.995436 1.518000 1.296551
v 0.995436 1.518000 1.393450
v 0.944564 1.518000 1.393450
v 0.944564 1.598000 1.345000
v 0.944564 1.800292 1.478138
v 0.995436 1.598000 1.345000
v 0.995436 1.800292 1.211862
v 0.995436 2.410292 1.371628
v 0.944564 2.410292 1.371628
v 0.944564 2.000292 1.371628
v 0.944564 1.799313 1.258616
v 0.944564 1.800292 1.211862
v 0.995436 1.799313 1.258616
v 0.944564 1.799313 1.431385
v 0.944564 1.999313 1.345000
v 0.995436 1.999313 1.345000
v 0.995436 1.799313 1.431385
v 0.995436 1.800292 1.478138
v 0.944564 2.000292 1.318373
v 0.995436 2.000292 1.371628
v 0.995436 2.000292 1.318373
v 0.995436 2.410292 1.318373
v 0.944564 2.410292 1.318373
vn -0.0000 -0.0000 -1.0000
vn 1.0000 -0.0000 -0.0000
vn -0.0000 -0.0000 1.0000
vn -1.0000 -0.0000 -0.0000
vn -0.0000 -1.0000 -0.0000
vn -0.0000 1.0000 -0.0000
vn -0.0000 0.9930 -0.1184
vn 0.1031 0.9947 -0.0000
vn -0.0000 0.9930 0.1184
vn -0.1031 0.9947 -0.0000
vn -0.0000 0.3943 0.9190
vn -0.0000 -0.2874 -0.9578
vn -0.0000 -0.3965 -0.9180
vn -0.0000 0.3943 -0.9190
vn -0.0000 -0.2873 0.9578
vn -0.0000 0.9993 0.0367
vn -0.0000 0.9993 0.0368
vn -0.0000 0.9993 -0.0367
vn -0.0000 0.4700 0.8826
vn -0.0000 -0.3965 0.9180
vn -0.0000 0.4701 -0.8826
vn -0.0000 0.4701 0.8826
vt 0.882812 0.894531
vt 0.882812 0.906250
vt 0.871094 0.906250
vt 0.886719 0.820312
vt 0.890625 0.820312
vt 0.890625 0.859375
vt 0.832031 0.816406
vt 0.832031 0.812500
vt 0.886719 0.812500
vt 0.894531 0.859375
vt 0.832031 0.820312
vt 0.886719 0.816406
vt 0.859375 0.839844
vt 0.832031 0.859375
vt 0.863281 0.839844
vt 0.886719 0.859375
vt 0.871094 0.894531
vt 0.886719 0.894531
vt 0.894531 0.820312
vt 0.832031 0.894531
s 1
usemtl None
f 450/122/7 451/123/7 452/124/7
f 453/122/8 454/123/8 451/124/8
f 455/122/9 456/123/9 454/124/9
f 457/122/10 452/123/10 456/124/10
f 451/122/11 454/123/11 456/124/11
f 453/122/12 450/123/12 457/124/12
f 458/125/7 459/126/7 460/127/7
f 461/128/8 462/129/8 459/130/8
f 463/131/9 464/127/9 462/126/9
f 465/132/10 460/128/10 464/133/10
f 466/134/13 467/134/13 458/135/13
f 468/136/14 461/137/14 458/135/14
f 468/136/15 469/136/15 463/125/15
f 469/136/16 466/134/16 465/132/16
f 470/138/10 469/122/10 471/123/10
f 468/138/8 467/122/8 472/123/8
f 472/138/8 467/122/8 473/123/8
f 466/138/10 469/122/10 470/123/10
f 474/122/9 475/123/9 476/124/9
f 470/122/10 477/123/10 478/124/10
f 472/122/17 479/123/17 477/124/17
f 466/122/18 478/123/18 473/124/18
f 480/122/19 481/123/19 482/124/19
f 472/122/8 483/123/8 484/124/8
f 470/122/20 480/123/20 483/124/20
f 468/122/21 484/123/21 471/124/21
f 485/122/22 481/123/23 482/124/22
f 486/122/24 482/123/24 481/124/24
f 483/122/8 482/123/8 486/124/8
f 484/122/25 486/123/25 476/124/25
f 479/138/8 473/122/8 487/123/8
f 477/122/10 481/123/10 485/124/10
f 479/122/26 482/123/26 481/124/26
f 478/122/27 485/123/27 487/124/27
f 480/138/10 471/122/10 476/123/10
f 482/138/8 474/122/8 486/123/8
f 482/138/8 487/122/8 488/123/8
f 481/122/10 475/123/10 489/124/10
f 485/122/7 489/123/7 488/124/7
f 489/122/12 475/123/12 474/124/12
f 476/138/10 475/122/10 481/123/10
f 459/135/11 462/137/11 464/139/11
f 457/138/7 450/122/7 452/124/7
f 450/138/8 453/122/8 451/124/8
f 453/138/9 455/122/9 454/124/9
f 455/138/10 457/122/10 456/124/10
f 452/138/11 451/122/11 456/124/11
f 455/138/12 453/122/12 457/124/12
f 465/137/7 458/125/7 460/127/7
f 458/133/8 461/128/8 459/130/8
f 461/140/9 463/131/9 462/126/9
f 463/125/10 465/132/10 464/133/10
f 465/132/13 466/134/13 458/135/13
f 467/134/14 468/136/14 458/135/14
f 461/137/15 468/136/15 463/125/15
f 463/125/16 469/136/16 465/132/16
f 480/124/10 470/138/10 471/123/10
f 479/124/8 472/138/8 473/123/8
f 486/138/9 474/122/9 476/124/9
f 466/138/10 470/122/10 478/124/10
f 470/138/17 472/122/17 477/124/17
f 467/138/18 466/122/18 473/124/18
f 483/138/19 480/122/19 482/124/19
f 468/138/8 472/122/8 484/124/8
f 472/138/20 470/122/20 483/124/20
f 469/138/21 468/122/21 471/124/21
f 487/138/22 485/122/22 482/124/22
f 476/138/24 486/122/24 481/124/24
f 484/138/8 483/122/8 486/124/8
f 471/138/28 484/122/28 476/124/28
f 482/124/8 479/138/8 487/123/8
f 478/138/10 477/122/10 485/124/10
f 477/138/26 479/122/26 481/124/26
f 473/138/27 478/122/27 487/124/27
f 481/124/10 480/138/10 476/123/10
f 474/124/8 482/138/8 488/123/8
f 485/138/10 481/122/10 489/124/10
f 487/138/7 485/122/7 488/124/7
f 488/138/12 489/122/12 474/124/12
f 460/141/11 459/135/11 464/139/11
g ProcessB_Mesh
v 1.005000 1.569938 2.221527
v 0.987500 1.569938 2.251837
v 0.975000 1.476092 2.230187
v 0.952500 1.569938 2.251837
v 0.965000 1.476092 2.230187
v 0.935000 1.569938 2.221527
v 0.960000 1.476092 2.221527
v 0.952500 1.569938 2.191216
v 0.965000 1.476092 2.212866
v 0.987500 1.569938 2.191216
v 0.980000 1.476092 2.221527
v 0.975000 1.476092 2.212866
v 1.025440 2.399092 2.198526
v 1.025440 2.357092 2.198526
v 0.914560 2.357092 2.198526
v 1.025440 2.399092 2.240526
v 1.025440 2.357092 2.240526
v 0.914560 2.399092 2.240526
v 0.914560 2.357092 2.240526
v 0.914560 2.399092 2.198526
v 0.944564 1.568000 2.268450
v 0.944564 1.800292 2.353138
v 0.944564 1.799313 2.306385
v 0.995436 1.568000 2.268450
v 0.995436 1.568000 2.171550
v 0.995436 1.608000 2.220000
v 0.995436 1.800292 2.086862
v 0.995436 1.799313 2.133615
v 0.944564 1.568000 2.171550
v 0.944564 1.608000 2.220000
v 0.995436 2.410292 2.246628
v 0.944564 2.410292 2.246628
v 0.944564 2.000292 2.246628
v 0.944564 1.799313 2.133615
v 0.944564 1.800292 2.086862
v 0.944564 1.999313 2.220000
v 0.995436 1.999313 2.220000
v 0.995436 1.799313 2.306385
v 0.995436 1.800292 2.353138
v 0.944564 2.000292 2.193372
v 0.995436 2.000292 2.246628
v 0.995436 2.000292 2.193372
v 0.995436 2.410292 2.193372
v 0.944564 2.410292 2.193372
vn 0.8439 -0.2248 0.4872
vn 0.8438 -0.2248 0.4872
vn -0.0000 -0.2248 0.9744
vn -0.8439 -0.2248 0.4872
vn -0.8439 -0.2248 -0.4872
vn -0.0000 1.0000 -0.0000
vn 0.8439 -0.2248 -0.4872
vn -0.0000 -0.2248 -0.9744
vn -0.0000 -1.0000 -0.0000
vn -0.0000 -0.0000 -1.0000
vn 1.0000 -0.0000 -0.0000
vn -0.0000 -0.0000 1.0000
vn -1.0000 -0.0000 -0.0000
vn -0.0000 0.4115 0.9114
vn -0.0000 -0.3425 -0.9395
vn -0.0000 -0.3965 -0.9180
vn -0.0000 0.4115 -0.9114
vn -0.0000 -0.3425 0.9395
vn -0.0000 0.9993 0.0367
vn -0.0000 0.9993 -0.0367
vn -0.0000 0.4700 0.8826
vn -0.0000 -0.3965 0.9180
vn -0.0000 0.4701 -0.8826
vn -0.0000 0.4701 0.8826
vn -0.0000 0.4700 -0.8826
vt 1.000000 0.804688
vt 1.000000 0.816406
vt 0.988281 0.816406
vt 0.984375 0.816406
vt 0.988281 0.808594
vt 0.976562 0.808594
vt 0.996094 0.816406
vt 1.000000 0.808594
vt 0.996094 0.804688
vt 0.988281 0.804688
vt 0.976562 0.816406
vt 0.976562 0.804688
vt 0.976562 0.812500
vt 0.984375 0.804688
vt 0.988281 0.812500
vt 1.000000 0.812500
s 1
usemtl None
f 490/142/29 491/143/29 492/144/30
f 491/142/31 493/143/31 494/144/31
f 493/142/32 495/143/32 496/144/32
f 495/142/33 497/143/33 498/144/33
f 491/145/34 499/146/34 495/147/34
f 499/142/35 490/143/35 500/144/35
f 497/142/36 499/143/36 501/144/36
f 500/148/37 494/149/37 496/150/37
f 502/151/38 503/144/38 504/152/38
f 505/151/39 506/144/39 503/152/39
f 507/151/40 508/144/40 506/152/40
f 509/151/41 504/144/41 508/152/41
f 503/151/37 506/144/37 508/152/37
f 505/151/34 502/144/34 509/152/34
f 510/151/41 511/144/41 512/152/41
f 513/153/39 514/151/39 515/144/39
f 514/151/39 516/144/39 517/152/39
f 518/153/41 510/151/41 519/144/41
f 520/151/40 521/144/40 522/152/40
f 518/153/41 519/151/41 523/144/41
f 515/151/42 517/144/42 523/152/42
f 518/151/43 524/144/43 516/152/43
f 512/151/44 525/144/44 526/152/44
f 513/153/39 515/151/39 527/144/39
f 519/151/45 512/144/45 527/152/45
f 513/151/46 528/144/46 511/152/46
f 529/151/47 525/144/47 526/152/47
f 530/151/48 526/144/48 525/152/48
f 527/151/39 526/144/39 530/152/39
f 528/151/49 530/144/49 522/152/49
f 517/153/39 516/151/39 531/144/39
f 523/151/41 525/144/41 529/152/41
f 517/151/50 526/144/50 525/152/50
f 524/151/51 529/144/51 531/152/51
f 512/153/41 511/151/41 522/144/41
f 526/153/39 520/151/39 530/144/39
f 526/153/39 531/151/39 532/144/39
f 525/151/41 521/144/41 533/152/41
f 529/151/38 533/144/38 532/152/38
f 533/151/34 521/144/34 520/152/34
f 522/153/41 521/151/41 525/144/41
f 500/151/30 490/142/29 492/144/30
f 492/151/31 491/142/31 494/144/31
f 494/151/32 493/142/32 496/144/32
f 496/151/33 495/142/33 498/144/33
f 495/147/34 493/154/34 491/145/34
f 499/146/34 497/155/34 495/147/34
f 491/145/34 490/156/34 499/146/34
f 501/151/35 499/142/35 500/144/35
f 498/151/36 497/142/36 501/144/36
f 498/146/37 501/156/37 500/148/37
f 500/148/37 496/150/37 498/146/37
f 500/148/37 492/157/37 494/149/37
f 509/153/38 502/151/38 504/152/38
f 502/153/39 505/151/39 503/152/39
f 505/153/40 507/151/40 506/152/40
f 507/153/41 509/151/41 508/152/41
f 504/153/37 503/151/37 508/152/37
f 507/153/34 505/151/34 509/152/34
f 519/153/41 510/151/41 512/152/41
f 515/153/39 514/151/39 517/152/39
f 530/153/40 520/151/40 522/152/40
f 524/152/41 518/153/41 523/144/41
f 519/153/42 515/151/42 523/152/42
f 514/153/43 518/151/43 516/152/43
f 527/153/44 512/151/44 526/152/44
f 528/152/39 513/153/39 527/144/39
f 515/153/45 519/151/45 527/152/45
f 510/153/46 513/151/46 511/152/46
f 531/153/47 529/151/47 526/152/47
f 522/153/48 530/151/48 525/152/48
f 528/153/39 527/151/39 530/152/39
f 511/153/52 528/151/52 522/152/52
f 526/152/39 517/153/39 531/144/39
f 524/153/41 523/151/41 529/152/41
f 523/153/50 517/151/50 525/152/50
f 516/153/53 524/151/53 531/152/53
f 525/152/41 512/153/41 522/144/41
f 520/152/39 526/153/39 532/144/39
f 529/153/41 525/151/41 533/152/41
f 531/153/38 529/151/38 532/152/38
f 532/153/34 533/151/34 520/152/34
g ProcessC_Mesh
v 1.579810 1.480450 2.959527
v 1.558679 1.435135 2.959527
v 1.558679 1.435135 2.859527
v 1.508869 1.430777 2.959527
v 1.508869 1.430777 2.859527
v 1.480190 1.471734 2.959527
v 1.480190 1.471734 2.859527
v 1.501321 1.517050 2.959527
v 1.501321 1.517050 2.859527
v 1.551131 1.521407 2.959527
v 1.579810 1.480450 2.859527
v 1.551131 1.521407 2.859527
v 1.519387 1.941611 2.881527
v 1.559014 1.488669 2.881527
v 1.499242 1.483439 2.881527
v 1.519387 1.941611 2.941527
v 1.559014 1.488669 2.941527
v 1.459615 1.936382 2.941527
v 1.499242 1.483439 2.941527
v 1.459615 1.936382 2.881527
v 1.580812 2.042677 2.811527
v 1.584298 2.002829 2.811527
v 1.392032 1.905702 2.691527
v 1.580812 2.042677 3.011527
v 1.584298 2.002829 3.011527
v 1.374601 2.104941 3.131527
v 1.392032 1.905702 3.131527
v 1.374601 2.104941 2.691527
vn 0.9063 -0.4226 -0.0000
vn 0.0872 -0.9962 -0.0000
vn -0.8191 -0.5736 -0.0000
vn -0.9063 0.4226 -0.0000
vn -0.0000 -0.0000 1.0000
vn 0.8191 0.5736 -0.0000
vn -0.0871 0.9962 -0.0000
vn -0.0000 -0.0000 -1.0000
vn 0.9962 0.0872 -0.0000
vn -0.9962 -0.0872 -0.0000
vn 0.5125 0.0448 -0.8575
vn 0.9962 0.0871 -0.0000
vn 0.5125 0.0448 0.8575
vn 0.4509 -0.8926 -0.0000
vn 0.2891 0.9573 -0.0000
vt 0.921875 0.906250
vt 0.914062 0.906250
vt 0.914062 0.894531
vt 0.910156 0.906250
vt 0.910156 0.894531
vt 0.902344 0.906250
vt 0.902344 0.894531
vt 0.894531 0.906250
vt 0.894531 0.894531
vt 0.945312 0.894531
vt 0.945312 0.906250
vt 0.937500 0.906250
vt 0.929688 0.906250
vt 0.921875 0.894531
vt 0.929688 0.894531
vt 0.968750 0.867188
vt 0.968750 0.875000
vt 0.957031 0.867188
vt 0.894531 0.863281
vt 0.957031 0.863281
vt 0.957031 0.871094
vt 0.894531 0.886719
vt 0.957031 0.886719
vt 0.957031 0.894531
vt 0.894531 0.878906
vt 0.957031 0.878906
vt 0.894531 0.871094
vt 0.972656 0.871094
vt 0.972656 0.878906
vt 0.968750 0.878906
vt 0.968750 0.871094
vt 0.968750 0.863281
vt 0.972656 0.863281
vt 0.925781 0.835938
vt 0.925781 0.843750
vt 0.945312 0.835938
vt 0.945312 0.843750
vt 0.972656 0.816406
vt 1.000000 0.816406
vt 1.000000 0.875000
vt 0.894531 0.816406
vt 0.937500 0.898438
vt 0.937500 0.894531
vt 0.945312 0.898438
vt 0.960938 0.863281
vt 0.960938 0.878906
vt 0.957031 0.875000
vt 0.972656 0.875000
s 1
usemtl None
f 534/158/54 535/159/54 536/160/54
f 535/159/55 537/161/55 538/162/55
f 537/161/56 539/163/56 540/164/56
f 539/163/57 541/165/57 542/166/57
f 535/167/58 543/168/58 541/169/58
f 543/170/59 534/158/59 544/171/59
f 541/169/60 543/170/60 545/172/60
f 544/173/61 536/174/61 542/175/61
f 546/176/61 547/177/61 548/178/61
f 549/179/62 550/180/62 547/181/62
f 549/179/58 551/182/58 552/183/58
f 553/184/63 548/178/63 552/183/63
f 547/185/55 550/186/55 552/187/55
f 549/188/60 546/189/60 553/190/60
f 554/191/64 555/192/64 556/176/64
f 557/193/62 558/194/65 555/192/62
f 559/195/66 560/190/66 558/194/66
f 561/195/63 556/196/63 560/197/63
f 556/176/67 555/192/67 558/194/67
f 557/193/68 554/191/68 561/198/68
f 544/171/54 534/158/54 536/160/54
f 536/160/55 535/159/55 538/162/55
f 538/162/56 537/161/56 540/164/56
f 540/164/57 539/163/57 542/166/57
f 539/199/58 537/200/58 535/167/58
f 535/167/58 541/169/58 539/199/58
f 535/167/58 534/201/58 543/168/58
f 545/172/59 543/170/59 544/171/59
f 542/200/60 541/169/60 545/172/60
f 542/175/61 545/202/61 544/173/61
f 538/203/61 540/204/61 542/175/61
f 542/175/61 536/174/61 538/203/61
f 553/184/61 546/176/61 548/178/61
f 546/166/62 549/179/62 547/181/62
f 550/180/58 549/179/58 552/183/58
f 551/182/63 553/184/63 552/183/63
f 548/188/55 547/185/55 552/187/55
f 551/185/60 549/188/60 553/190/60
f 561/198/64 554/191/64 556/176/64
f 554/191/62 557/193/62 555/192/62
f 557/193/66 559/195/66 558/194/66
f 559/205/63 561/195/63 560/197/63
f 560/190/67 556/176/67 558/194/67
f 559/195/68 557/193/68 561/198/68
g Tray_Mesh
v 1.310000 1.212000 0.340000
v 1.310000 1.128000 0.340000
v 0.590000 1.128000 0.340000
v 1.310000 1.212000 1.060000
v 1.310000 1.128000 1.060000
v 0.590000 1.212000 1.060000
v 0.590000 1.128000 1.060000
v 0.590000 1.212000 0.340000
v 0.662000 1.152000 1.038000
v 0.662000 1.152000 0.462000
v 1.238000 1.152000 1.038000
v 1.238000 1.152000 0.462000
vn -0.0000 -0.0000 -1.0000
vn 1.0000 -0.0000 -0.0000
vn -0.0000 -0.0000 1.0000
vn -1.0000 -0.0000 -0.0000
vn -0.0000 -1.0000 -0.0000
vn 0.6402 0.7682 -0.0000
vn -0.0000 1.0000 -0.0000
vn -0.0000 0.3443 -0.9389
vn -0.6402 0.7682 -0.0000
vn -0.0000 0.8974 0.4413
vn -0.0000 0.8973 0.4413
vt 0.761719 0.855469
vt 0.769531 0.863281
vt 0.769531 0.871094
vt 0.777344 0.855469
vt 0.777344 0.878906
vt 0.761719 0.878906
vt 0.832031 0.855469
vt 0.824219 0.863281
vt 0.789062 0.863281
vt 0.824219 0.898438
vt 0.789062 0.898438
vt 0.832031 0.906250
vt 0.781250 0.906250
vt 0.781250 0.855469
s 1
usemtl None
f 562/206/69 563/207/69 564/208/69
f 565/209/70 566/207/70 563/207/70
f 567/210/71 568/208/71 566/207/71
f 569/211/72 564/208/72 568/208/72
f 563/207/73 566/207/73 568/208/73
f 567/212/74 570/213/74 571/214/74
f 572/215/75 573/216/75 571/214/75
f 565/217/76 572/215/76 570/213/76
f 565/217/77 562/218/77 573/216/77
f 569/219/78 571/214/78 573/216/79
f 569/211/69 562/206/69 564/208/69
f 562/206/70 565/209/70 563/207/70
f 565/209/71 567/210/71 566/207/71
f 567/210/72 569/211/72 568/208/72
f 564/208/73 563/207/73 568/208/73
f 569/219/74 567/212/74 571/214/74
f 570/213/75 572/215/75 571/214/75
f 567/212/76 565/217/76 570/213/76
f 572/215/77 565/217/77 573/216/77
f 562/218/79 569/219/78 573/216/79
